<?xml version="1.0" standalone="no"?>
<!DOCTYPE svg PUBLIC "-//W3C//DTD SVG 1.1//EN" "http://www.w3.org/Graphics/SVG/1.1/DTD/svg11.dtd" >
<svg xmlns="http://www.w3.org/2000/svg" xmlns:xlink="http://www.w3.org/1999/xlink" version="1.1">
<metadata>
Created by FontForge 20150804 at Wed Jun 22 21:56:07 2016
 By cloudconvert
copyright missing
</metadata>
<defs>
<font id="Bellwethers-Regular" horiz-adv-x="600" >
  <font-face 
    font-family="Bellwethers"
    font-weight="400"
    font-stretch="normal"
    units-per-em="1000"
    panose-1="0 0 5 0 0 0 0 0 0 0"
    ascent="800"
    descent="-200"
    x-height="190"
    cap-height="738"
    bbox="-3963.38 -2120.14 5146.97 2148.5"
    underline-thickness="50"
    underline-position="-100"
    unicode-range="U+0020-2248"
  />
<missing-glyph horiz-adv-x="500" 
d="M0 0v700h500v-700h-500zM250 395l170 255h-340zM280 350l170 -255v510zM80 50h340l-170 255zM50 605v-510l170 255z" />
    <glyph glyph-name=".notdef" horiz-adv-x="500" 
d="M0 0v700h500v-700h-500zM250 395l170 255h-340zM280 350l170 -255v510zM80 50h340l-170 255zM50 605v-510l170 255z" />
    <glyph glyph-name="A" unicode="A" horiz-adv-x="634" 
d="M316 738c39 36 77 27 101 -20c15 -29 23 -55 30 -86c11 -45 14 -91 19 -136c1 -10 3 -24 3 -36c22 -2 135 -5 209 30c23 12 46 27 64 50c15 18 30 40 27 65c-1 3 -1 5 -1 7c-1 15 1 20 7 21c11 3 19 -3 22 -15c1 -9 -1 -17 -2 -25c-7 -41 -38 -73 -71 -98
c-48 -34 -81 -43 -148 -52c-22 -2 -44 -5 -67 -5c-11 0 -25 -1 -40 -1c6 -99 7 -95 13 -221c2 -45 5 -89 9 -134c3 -51 9 -101 24 -152c9 -24 17 -46 36 -64c9 -11 19 -18 30 -21c21 -9 33 -3 48 17c3 5 6 8 8 11c12 0 17 -25 6 -37c-14 -17 -42 -25 -66 -16
c-28 12 -49 30 -65 57c-14 31 -24 64 -29 96c-11 80 -25 301 -29 365c-3 20 -4 100 -5 100c-3 0 -24 1 -29 2c-74 1 -151 10 -225 7c-14 0 -30 -1 -31 -1c-1 -1 -5 -15 -10 -29c-17 -59 -25 -119 -27 -181c-3 -55 -3 -109 0 -163c3 -46 11 -92 15 -137c1 -7 1 -15 0 -22
c0 -5 -4 -6 -8 -8c-4 -1 -10 3 -12 6c-3 6 -3 13 -3 19c-6 91 -15 180 -11 272c0 53 4 104 14 155c4 20 18 76 20 86c-37 0 -79 -6 -110 -13c-9 -4 -17 -9 -24 -17c-1 -3 -3 -4 -4 -6c-10 -11 -15 -13 -20 -9c-10 6 -11 16 -4 26c5 7 13 11 19 16h6c11 6 27 12 49 16
c18 4 79 10 94 12c1 0 21 61 42 100c26 48 84 132 126 169zM326 719c-18 -16 -37 -35 -52 -53c-49 -62 -95 -153 -106 -197c79 2 167 -4 244 -7c10 -1 23 -2 37 -1c0 14 -2 26 -3 35c-3 37 -8 75 -14 110c-4 25 -12 49 -20 72c-3 11 -10 24 -18 34c-21 26 -43 30 -68 7z" />
    <glyph glyph-name="Aacute" unicode="&#xc1;" horiz-adv-x="634" 
d="M373 890c7 2 13 6 16 -4c4 -6 7 -12 4 -19c0 -6 -7 -13 -16 -16c-23 -7 -45 -22 -64 -38c-7 -3 -10 -10 -13 -9c-7 -3 -14 -2 -17 2c-8 13 61 64 90 84zM316 738c39 36 77 27 101 -20c15 -29 23 -55 30 -86c11 -45 14 -91 19 -136c1 -10 3 -24 3 -36c22 -2 135 -5 209 30
c23 12 46 27 64 50c15 18 30 40 27 65c-1 3 -1 5 -1 7c-1 15 1 20 7 21c11 3 19 -3 22 -15c1 -9 -1 -17 -2 -25c-7 -41 -38 -73 -71 -98c-48 -34 -81 -43 -148 -52c-22 -2 -44 -5 -67 -5c-11 0 -25 -1 -40 -1c6 -99 7 -95 13 -221c2 -45 5 -89 9 -134c3 -51 9 -101 24 -152
c9 -24 17 -46 36 -64c9 -11 19 -18 30 -21c21 -9 33 -3 48 17c3 5 6 8 8 11c12 0 17 -25 6 -37c-14 -17 -42 -25 -66 -16c-28 12 -49 30 -65 57c-14 31 -24 64 -29 96c-11 80 -25 301 -29 365c-3 20 -4 100 -5 100c-3 0 -24 1 -29 2c-74 1 -151 10 -225 7
c-14 0 -30 -1 -31 -1c-1 -1 -5 -15 -10 -29c-17 -59 -25 -119 -27 -181c-3 -55 -3 -109 0 -163c3 -46 11 -92 15 -137c1 -7 1 -15 0 -22c0 -5 -4 -6 -8 -8c-4 -1 -10 3 -12 6c-3 6 -3 13 -3 19c-6 91 -15 180 -11 272c0 53 4 104 14 155c4 20 18 76 20 86
c-37 0 -79 -6 -110 -13c-9 -4 -17 -9 -24 -17c-1 -3 -3 -4 -4 -6c-10 -11 -15 -13 -20 -9c-10 6 -11 16 -4 26c5 7 13 11 19 16h6c11 6 27 12 49 16c18 4 79 10 94 12c1 0 21 61 42 100c26 48 84 132 126 169zM326 719c-18 -16 -37 -35 -52 -53c-49 -62 -95 -153 -106 -197
c79 2 167 -4 244 -7c10 -1 23 -2 37 -1c0 14 -2 26 -3 35c-3 37 -8 75 -14 110c-4 25 -12 49 -20 72c-3 11 -10 24 -18 34c-21 26 -43 30 -68 7z" />
    <glyph glyph-name="Acircumflex" unicode="&#xc2;" horiz-adv-x="634" 
d="M354 911c24 -20 45 -44 61 -72c1 -2 3 -6 2 -9c0 -2 -1 -6 -3 -7c-3 -4 -9 -2 -11 -1c-2 4 -4 7 -7 11c-9 11 -17 23 -26 33c-6 9 -14 16 -26 18c-11 -4 -15 -13 -22 -20c-12 -11 -22 -22 -33 -33c-3 -4 -9 -7 -13 -11c-5 -2 -9 -1 -11 2c-4 3 -3 8 -1 11l9 9
c23 20 45 39 61 66c5 6 13 7 20 3zM316 738c39 36 77 27 101 -20c15 -29 23 -55 30 -86c11 -45 14 -91 19 -136c1 -10 3 -24 3 -36c22 -2 135 -5 209 30c23 12 46 27 64 50c15 18 30 40 27 65c-1 3 -1 5 -1 7c-1 15 1 20 7 21c11 3 19 -3 22 -15c1 -9 -1 -17 -2 -25
c-7 -41 -38 -73 -71 -98c-48 -34 -81 -43 -148 -52c-22 -2 -44 -5 -67 -5c-11 0 -25 -1 -40 -1c6 -99 7 -95 13 -221c2 -45 5 -89 9 -134c3 -51 9 -101 24 -152c9 -24 17 -46 36 -64c9 -11 19 -18 30 -21c21 -9 33 -3 48 17c3 5 6 8 8 11c12 0 17 -25 6 -37
c-14 -17 -42 -25 -66 -16c-28 12 -49 30 -65 57c-14 31 -24 64 -29 96c-11 80 -25 301 -29 365c-3 20 -4 100 -5 100c-3 0 -24 1 -29 2c-74 1 -151 10 -225 7c-14 0 -30 -1 -31 -1c-1 -1 -5 -15 -10 -29c-17 -59 -25 -119 -27 -181c-3 -55 -3 -109 0 -163
c3 -46 11 -92 15 -137c1 -7 1 -15 0 -22c0 -5 -4 -6 -8 -8c-4 -1 -10 3 -12 6c-3 6 -3 13 -3 19c-6 91 -15 180 -11 272c0 53 4 104 14 155c4 20 18 76 20 86c-37 0 -79 -6 -110 -13c-9 -4 -17 -9 -24 -17c-1 -3 -3 -4 -4 -6c-10 -11 -15 -13 -20 -9c-10 6 -11 16 -4 26
c5 7 13 11 19 16h6c11 6 27 12 49 16c18 4 79 10 94 12c1 0 21 61 42 100c26 48 84 132 126 169zM326 719c-18 -16 -37 -35 -52 -53c-49 -62 -95 -153 -106 -197c79 2 167 -4 244 -7c10 -1 23 -2 37 -1c0 14 -2 26 -3 35c-3 37 -8 75 -14 110c-4 25 -12 49 -20 72
c-3 11 -10 24 -18 34c-21 26 -43 30 -68 7z" />
    <glyph glyph-name="Adieresis" unicode="&#xc4;" horiz-adv-x="634" 
d="M421 866c6 -4 11 -10 10 -21c-2 -20 -29 -18 -32 -15c-1 2 -7 6 -1 18c0 4 2 5 2 9c8 7 13 11 21 9zM306 863c6 -4 11 -10 10 -21c-2 -20 -29 -18 -32 -15c-1 2 -7 6 -1 18c0 4 2 5 2 9c8 7 13 11 21 9zM316 738c39 36 77 27 101 -20c15 -29 23 -55 30 -86
c11 -45 14 -91 19 -136c1 -10 3 -24 3 -36c22 -2 135 -5 209 30c23 12 46 27 64 50c15 18 30 40 27 65c-1 3 -1 5 -1 7c-1 15 1 20 7 21c11 3 19 -3 22 -15c1 -9 -1 -17 -2 -25c-7 -41 -38 -73 -71 -98c-48 -34 -81 -43 -148 -52c-22 -2 -44 -5 -67 -5c-11 0 -25 -1 -40 -1
c6 -99 7 -95 13 -221c2 -45 5 -89 9 -134c3 -51 9 -101 24 -152c9 -24 17 -46 36 -64c9 -11 19 -18 30 -21c21 -9 33 -3 48 17c3 5 6 8 8 11c12 0 17 -25 6 -37c-14 -17 -42 -25 -66 -16c-28 12 -49 30 -65 57c-14 31 -24 64 -29 96c-11 80 -25 301 -29 365
c-3 20 -4 100 -5 100c-3 0 -24 1 -29 2c-74 1 -151 10 -225 7c-14 0 -30 -1 -31 -1c-1 -1 -5 -15 -10 -29c-17 -59 -25 -119 -27 -181c-3 -55 -3 -109 0 -163c3 -46 11 -92 15 -137c1 -7 1 -15 0 -22c0 -5 -4 -6 -8 -8c-4 -1 -10 3 -12 6c-3 6 -3 13 -3 19
c-6 91 -15 180 -11 272c0 53 4 104 14 155c4 20 18 76 20 86c-37 0 -79 -6 -110 -13c-9 -4 -17 -9 -24 -17c-1 -3 -3 -4 -4 -6c-10 -11 -15 -13 -20 -9c-10 6 -11 16 -4 26c5 7 13 11 19 16h6c11 6 27 12 49 16c18 4 79 10 94 12c1 0 21 61 42 100c26 48 84 132 126 169z
M326 719c-18 -16 -37 -35 -52 -53c-49 -62 -95 -153 -106 -197c79 2 167 -4 244 -7c10 -1 23 -2 37 -1c0 14 -2 26 -3 35c-3 37 -8 75 -14 110c-4 25 -12 49 -20 72c-3 11 -10 24 -18 34c-21 26 -43 30 -68 7z" />
    <glyph glyph-name="Agrave" unicode="&#xc0;" horiz-adv-x="634" 
d="M325 924c6 3 15 0 22 -7c17 -17 40 -30 63 -40c6 -5 13 -4 14 -7c6 -5 8 -12 6 -16c-8 -13 -85 25 -116 42c-5 5 -11 9 -4 16c4 6 8 12 15 12zM316 738c39 36 77 27 101 -20c15 -29 23 -55 30 -86c11 -45 14 -91 19 -136c1 -10 3 -24 3 -36c22 -2 135 -5 209 30
c23 12 46 27 64 50c15 18 30 40 27 65c-1 3 -1 5 -1 7c-1 15 1 20 7 21c11 3 19 -3 22 -15c1 -9 -1 -17 -2 -25c-7 -41 -38 -73 -71 -98c-48 -34 -81 -43 -148 -52c-22 -2 -44 -5 -67 -5c-11 0 -25 -1 -40 -1c6 -99 7 -95 13 -221c2 -45 5 -89 9 -134c3 -51 9 -101 24 -152
c9 -24 17 -46 36 -64c9 -11 19 -18 30 -21c21 -9 33 -3 48 17c3 5 6 8 8 11c12 0 17 -25 6 -37c-14 -17 -42 -25 -66 -16c-28 12 -49 30 -65 57c-14 31 -24 64 -29 96c-11 80 -25 301 -29 365c-3 20 -4 100 -5 100c-3 0 -24 1 -29 2c-74 1 -151 10 -225 7
c-14 0 -30 -1 -31 -1c-1 -1 -5 -15 -10 -29c-17 -59 -25 -119 -27 -181c-3 -55 -3 -109 0 -163c3 -46 11 -92 15 -137c1 -7 1 -15 0 -22c0 -5 -4 -6 -8 -8c-4 -1 -10 3 -12 6c-3 6 -3 13 -3 19c-6 91 -15 180 -11 272c0 53 4 104 14 155c4 20 18 76 20 86
c-37 0 -79 -6 -110 -13c-9 -4 -17 -9 -24 -17c-1 -3 -3 -4 -4 -6c-10 -11 -15 -13 -20 -9c-10 6 -11 16 -4 26c5 7 13 11 19 16h6c11 6 27 12 49 16c18 4 79 10 94 12c1 0 21 61 42 100c26 48 84 132 126 169zM326 719c-18 -16 -37 -35 -52 -53c-49 -62 -95 -153 -106 -197
c79 2 167 -4 244 -7c10 -1 23 -2 37 -1c0 14 -2 26 -3 35c-3 37 -8 75 -14 110c-4 25 -12 49 -20 72c-3 11 -10 24 -18 34c-21 26 -43 30 -68 7z" />
    <glyph glyph-name="Aring" unicode="&#xc5;" horiz-adv-x="634" 
d="M345 918c17 3 30 3 41 -7c25 -20 28 -47 20 -79c-5 -15 -24 -32 -46 -23c-7 2 -11 2 -15 3c-23 12 -39 38 -34 63c2 7 5 11 8 16l11 15c4 6 10 10 15 12zM349 901c-10 -10 -23 -19 -24 -34c-2 -19 7 -32 20 -42c29 -12 41 -2 46 18c5 19 1 39 -12 54c-8 7 -21 11 -30 4z
M316 738c39 36 77 27 101 -20c15 -29 23 -55 30 -86c11 -45 14 -91 19 -136c1 -10 3 -24 3 -36c22 -2 135 -5 209 30c23 12 46 27 64 50c15 18 30 40 27 65c-1 3 -1 5 -1 7c-1 15 1 20 7 21c11 3 19 -3 22 -15c1 -9 -1 -17 -2 -25c-7 -41 -38 -73 -71 -98
c-48 -34 -81 -43 -148 -52c-22 -2 -44 -5 -67 -5c-11 0 -25 -1 -40 -1c6 -99 7 -95 13 -221c2 -45 5 -89 9 -134c3 -51 9 -101 24 -152c9 -24 17 -46 36 -64c9 -11 19 -18 30 -21c21 -9 33 -3 48 17c3 5 6 8 8 11c12 0 17 -25 6 -37c-14 -17 -42 -25 -66 -16
c-28 12 -49 30 -65 57c-14 31 -24 64 -29 96c-11 80 -25 301 -29 365c-3 20 -4 100 -5 100c-3 0 -24 1 -29 2c-74 1 -151 10 -225 7c-14 0 -30 -1 -31 -1c-1 -1 -5 -15 -10 -29c-17 -59 -25 -119 -27 -181c-3 -55 -3 -109 0 -163c3 -46 11 -92 15 -137c1 -7 1 -15 0 -22
c0 -5 -4 -6 -8 -8c-4 -1 -10 3 -12 6c-3 6 -3 13 -3 19c-6 91 -15 180 -11 272c0 53 4 104 14 155c4 20 18 76 20 86c-37 0 -79 -6 -110 -13c-9 -4 -17 -9 -24 -17c-1 -3 -3 -4 -4 -6c-10 -11 -15 -13 -20 -9c-10 6 -11 16 -4 26c5 7 13 11 19 16h6c11 6 27 12 49 16
c18 4 79 10 94 12c1 0 21 61 42 100c26 48 84 132 126 169zM326 719c-18 -16 -37 -35 -52 -53c-49 -62 -95 -153 -106 -197c79 2 167 -4 244 -7c10 -1 23 -2 37 -1c0 14 -2 26 -3 35c-3 37 -8 75 -14 110c-4 25 -12 49 -20 72c-3 11 -10 24 -18 34c-21 26 -43 30 -68 7z" />
    <glyph glyph-name="Atilde" unicode="&#xc3;" horiz-adv-x="634" 
d="M467 914c5 0 8 -4 8 -8c2 -2 2 -2 2 -4c-4 -23 -10 -45 -26 -65c-9 -11 -20 -16 -37 -16c-13 0 -26 5 -38 15l-30 28c-8 8 -19 15 -30 17c-25 5 -45 2 -62 -17c-5 -7 -10 -15 -15 -23c-3 -7 -8 -11 -11 -7c-5 3 -5 10 -4 15c12 35 52 60 88 53c7 -1 13 -3 18 -6
c11 -8 22 -17 32 -25c8 -7 16 -15 25 -22c21 -13 44 -8 55 13c6 9 8 21 12 31c2 5 2 11 5 16c1 2 5 5 8 5zM316 738c39 36 77 27 101 -20c15 -29 23 -55 30 -86c11 -45 14 -91 19 -136c1 -10 3 -24 3 -36c22 -2 135 -5 209 30c23 12 46 27 64 50c15 18 30 40 27 65
c-1 3 -1 5 -1 7c-1 15 1 20 7 21c11 3 19 -3 22 -15c1 -9 -1 -17 -2 -25c-7 -41 -38 -73 -71 -98c-48 -34 -81 -43 -148 -52c-22 -2 -44 -5 -67 -5c-11 0 -25 -1 -40 -1c6 -99 7 -95 13 -221c2 -45 5 -89 9 -134c3 -51 9 -101 24 -152c9 -24 17 -46 36 -64
c9 -11 19 -18 30 -21c21 -9 33 -3 48 17c3 5 6 8 8 11c12 0 17 -25 6 -37c-14 -17 -42 -25 -66 -16c-28 12 -49 30 -65 57c-14 31 -24 64 -29 96c-11 80 -25 301 -29 365c-3 20 -4 100 -5 100c-3 0 -24 1 -29 2c-74 1 -151 10 -225 7c-14 0 -30 -1 -31 -1
c-1 -1 -5 -15 -10 -29c-17 -59 -25 -119 -27 -181c-3 -55 -3 -109 0 -163c3 -46 11 -92 15 -137c1 -7 1 -15 0 -22c0 -5 -4 -6 -8 -8c-4 -1 -10 3 -12 6c-3 6 -3 13 -3 19c-6 91 -15 180 -11 272c0 53 4 104 14 155c4 20 18 76 20 86c-37 0 -79 -6 -110 -13
c-9 -4 -17 -9 -24 -17c-1 -3 -3 -4 -4 -6c-10 -11 -15 -13 -20 -9c-10 6 -11 16 -4 26c5 7 13 11 19 16h6c11 6 27 12 49 16c18 4 79 10 94 12c1 0 21 61 42 100c26 48 84 132 126 169zM326 719c-18 -16 -37 -35 -52 -53c-49 -62 -95 -153 -106 -197c79 2 167 -4 244 -7
c10 -1 23 -2 37 -1c0 14 -2 26 -3 35c-3 37 -8 75 -14 110c-4 25 -12 49 -20 72c-3 11 -10 24 -18 34c-21 26 -43 30 -68 7z" />
    <glyph glyph-name="AE" unicode="&#xc6;" horiz-adv-x="1197" 
d="M313 745c39 36 77 27 101 -20c15 -29 23 -55 30 -86c11 -45 14 -91 19 -136c1 -10 3 -24 3 -36c22 -2 135 -5 209 30c1 0 3 1 4 2l1 1l10 28c21 55 47 115 133 163c33 18 82 20 130 1c36 -13 75 -57 91 -97c5 -13 5 -26 7 -39c0 -3 0 -8 -1 -11c-1 -5 -5 -8 -9 -8
s-9 2 -10 3c-3 3 -4 8 -3 13c-5 53 -45 104 -85 124c-43 18 -106 6 -159 -39c5 -2 8 -7 10 -13c1 -9 -1 -17 -2 -25c-7 -41 -38 -73 -71 -98c-8 -6 -16 -11 -23 -15c-12 -46 -18 -91 -16 -108c0 -13 3 -22 3 -35c10 -40 44 -60 80 -54c19 4 62 28 82 42c42 28 92 62 132 83
c11 9 23 13 35 20c7 1 15 -1 18 -8c7 -8 6 -20 -3 -25c-5 -2 -9 -4 -13 -7c-37 -14 -84 -42 -117 -69c-57 -45 -83 -73 -98 -92c-29 -35 -52 -74 -79 -116c-25 -43 -46 -91 -60 -145c-8 -28 -9 -61 0 -90c5 -14 11 -22 20 -30c27 -20 50 -14 78 -10c67 11 214 71 301 149
c46 41 109 119 132 157c4 7 12 19 15 29c6 9 14 20 16 -10c-17 -35 -37 -67 -57 -95c-56 -77 -159 -154 -200 -176c-62 -33 -210 -96 -268 -80c-24 6 -43 27 -55 52c0 2 -1 4 -2 5c-8 18 -12 37 -11 55c1 32 13 69 25 102c9 26 23 55 40 85c11 20 21 37 32 55
c16 25 31 48 50 71c6 10 34 29 48 50c-18 -10 -49 -24 -60 -27c-14 -3 -70 -7 -88 35c-26 59 -21 124 -7 173c-28 -12 -56 -18 -98 -23c-22 -2 -44 -5 -67 -5c-11 0 -25 -1 -40 -1c6 -99 7 -95 13 -221c2 -45 5 -89 9 -134c3 -51 9 -101 24 -152c9 -24 17 -46 36 -64
c9 -11 19 -18 30 -21c21 -9 33 -3 48 17c3 5 6 8 8 11c3 0 6 -3 8 -6l2 -5c3 -8 2 -19 -4 -26c-14 -17 -42 -25 -66 -16c-28 12 -49 30 -65 57c-14 31 -24 64 -29 96c-11 80 -25 301 -29 365c-3 20 -4 100 -5 100c-3 0 -24 1 -29 2c-74 1 -151 10 -225 7
c-14 0 -30 -1 -31 -1c-1 -1 -5 -15 -10 -29c-17 -59 -25 -119 -27 -181c-3 -55 -3 -109 0 -163c3 -46 11 -92 15 -137c1 -7 1 -15 0 -22c0 -5 -4 -6 -8 -8c-4 -1 -10 3 -12 6c-3 6 -3 13 -3 19c-6 91 -15 180 -11 272c0 53 4 104 14 155c4 20 18 76 20 86
c-37 0 -79 -6 -110 -13c-9 -4 -17 -9 -24 -17c-1 -3 -3 -4 -4 -6c-10 -11 -15 -13 -20 -9c-10 6 -11 16 -4 26c5 7 13 11 19 16h6c11 6 27 12 49 16c18 4 79 10 94 12c1 0 21 61 42 100c26 48 84 132 126 169zM323 726c-18 -16 -37 -35 -52 -53c-49 -62 -95 -153 -106 -197
c79 2 167 -4 244 -7c10 -1 23 -2 37 -1c0 14 -2 26 -3 35c-3 37 -8 75 -14 110c-4 25 -12 49 -20 72c-3 11 -10 24 -18 34c-21 26 -43 30 -68 7zM764 620l-16 -19c-9 -12 -16 -25 -22 -36c-8 -15 -14 -32 -20 -49c12 8 23 18 33 31c15 18 30 40 27 65c-1 3 -1 5 -1 7
c-1 0 -1 1 -1 1z" />
    <glyph glyph-name="B" unicode="B" horiz-adv-x="674" 
d="M507 756c22 -3 37 -7 51 -15c32 -14 46 -24 64 -60c4 -4 7 -19 7 -26c2 -13 -3 -54 -28 -90c-21 -34 -52 -54 -65 -67c-10 -7 -47 -39 -59 -44c-24 -13 -25 -11 2 -13l12 -2c25 -7 48 -18 66 -37c82 -82 52 -281 -43 -375c-54 -56 -117 -102 -197 -137
c-40 -18 -91 -31 -138 -35c-24 -4 -52 0 -73 9c-14 4 -22 18 -32 32c2 2 -1 7 -1 12c0 7 3 14 8 25c0 5 10 22 12 38c0 19 1 34 2 48c3 37 -13 286 -17 322l-9 117c-1 133 -13 216 -21 254c-1 8 0 18 1 20c3 3 10 8 12 7c7 -2 6 -5 9 -24c12 -71 14 -113 16 -159
c7 -88 30 -483 32 -483s5 43 8 68c12 311 81 453 189 545c27 22 54 40 67 46c15 7 31 13 48 18c13 4 24 6 36 6c15 2 32 1 41 0zM484 733c-3 0 -6 -1 -11 0c-8 -1 -17 -2 -22 -4c-30 -3 -56 -15 -84 -31c-26 -16 -69 -57 -92 -81c-79 -92 -108 -226 -129 -469
c-2 -22 -1 -39 -3 -59c-2 -13 -1 -23 -2 -36v-10l6 7c15 10 19 14 29 23c30 23 60 43 96 57c11 5 21 6 31 9c3 0 7 1 10 -1c7 2 17 -6 16 -15c-1 -6 -9 -11 -13 -16h-12c-36 3 -64 -17 -95 -36c-21 -17 -42 -35 -57 -54c-10 -11 -19 -24 -18 -37c-3 -13 -3 -23 -5 -36
c1 -4 -2 -9 -7 -12c-3 -4 -7 -6 -7 -7c-11 -5 -12 -16 -6 -28c6 -8 12 -11 23 -13c10 -4 23 -4 30 -4c30 -5 59 2 85 10c208 68 276 173 297 211c44 77 41 163 39 193c-10 83 -49 100 -63 111c-14 8 -37 13 -59 14c-6 1 -16 1 -26 1c-21 -1 -35 -6 -52 -11
c-66 -18 -64 -21 -119 -40c-1 -1 -6 -1 -9 -2c-8 -1 -11 5 -11 10c0 7 4 15 13 19c10 7 22 9 35 13c27 11 56 17 82 27c53 18 46 16 98 46c31 18 59 36 83 62c14 14 30 32 40 49c15 31 22 58 13 78c-13 26 -31 36 -50 46c-20 14 -48 15 -74 16z" />
    <glyph glyph-name="C" unicode="C" horiz-adv-x="609" 
d="M225 726c33 10 66 4 99 -13c17 -9 38 -22 55 -38c13 -13 28 -25 39 -42c28 -43 38 -91 38 -139c0 -8 -2 -16 -6 -23c-2 -3 -5 -6 -8 -6c-6 -2 -8 2 -10 7c-2 6 -3 11 -2 16c-2 11 -1 23 -2 33c-1 56 -28 102 -68 142c-11 11 -22 18 -34 25c-39 27 -81 29 -124 8
c-42 -20 -71 -52 -89 -94c-6 -14 -12 -28 -16 -40c-19 -66 -38 -132 -48 -199c-6 -47 -10 -136 -10 -183c0 -57 5 -114 16 -173c5 -30 21 -57 47 -81c24 -20 55 -29 87 -22c19 4 36 11 51 17c52 21 118 65 156 89c34 21 69 45 99 69c41 29 135 102 144 99
c10 -3 3 -22 -8 -29c-39 -24 -75 -52 -109 -76c-13 -9 -25 -19 -40 -29c-49 -34 -39 -26 -86 -57c-34 -22 -107 -69 -144 -85c-19 -8 -41 -14 -61 -19c-43 -9 -77 2 -108 30c-37 37 -48 79 -56 132c-2 14 -4 29 -5 46c-2 43 -1 101 -1 152c0 13 2 67 3 81c4 43 11 86 21 131
l29 107c12 34 27 62 47 92c26 36 63 59 104 72z" />
    <glyph glyph-name="Ccedilla" unicode="&#xc7;" horiz-adv-x="609" 
d="M639 178c10 -3 3 -22 -8 -29c-39 -24 -75 -52 -109 -76c-13 -9 -25 -19 -40 -29c-49 -34 -39 -26 -86 -57c-28 -18 -82 -53 -121 -74v-1c-3 -14 -6 -31 -6 -45c8 -3 17 -6 23 -9c14 -8 31 -14 39 -31c23 -37 12 -77 -28 -94c-26 -11 -51 -14 -80 -14c-17 3 -31 3 -48 6
c-9 0 -14 5 -14 14c-3 8 3 14 11 17c43 -20 83 -17 122 3c23 8 26 28 18 45c-12 26 -32 34 -55 26c-5 -3 -11 -6 -22 -9c0 9 -3 14 -3 20l15 59c-18 -7 -38 -12 -56 -17c-43 -9 -77 2 -108 30c-37 37 -48 79 -56 132c-2 14 -4 29 -5 46c-2 43 -1 101 -1 152c0 13 2 67 3 81
c4 43 11 86 21 131l29 107c12 34 27 62 47 92c26 36 63 59 104 72c33 10 66 4 99 -13c17 -9 38 -22 55 -38c13 -13 28 -25 39 -42c28 -43 38 -91 38 -139c0 -8 -2 -16 -6 -23c-2 -3 -5 -6 -8 -6c-6 -2 -8 2 -10 7c-2 6 -3 11 -2 16c-2 11 -1 23 -2 33c-1 56 -28 102 -68 142
c-11 11 -22 18 -34 25c-39 27 -81 29 -124 8c-42 -20 -71 -52 -89 -94c-6 -14 -12 -28 -16 -40c-19 -66 -38 -132 -48 -199c-6 -47 -10 -136 -10 -183c0 -57 5 -114 16 -173c5 -30 21 -57 47 -81c24 -20 55 -29 87 -22c19 4 36 11 51 17c52 21 118 65 156 89
c34 21 69 45 99 69c41 29 135 102 144 99z" />
    <glyph glyph-name="D" unicode="D" horiz-adv-x="610" 
d="M-69 741c5 3 11 2 16 -5c4 -7 6 -12 6 -18c8 -37 19 -73 24 -110c8 -37 16 -73 20 -109c6 -34 11 -68 16 -100c7 -67 16 -134 20 -201c5 -63 16 -162 20 -172c1 4 1 7 2 12c1 10 3 24 4 38c1 16 10 138 20 171c20 69 28 145 104 240c28 48 105 116 137 131
c30 18 60 31 94 37c61 11 100 -20 112 -32c38 -40 43 -89 43 -144c0 -13 -2 -27 -4 -40c0 -16 -2 -30 -6 -45c-2 -14 -5 -33 -9 -49c6 1 13 4 17 5l49 15c22 7 45 13 70 15c16 4 32 6 46 8c34 6 78 6 97 6c25 3 53 -5 76 -8c7 -2 15 -6 19 -12c6 -6 4 -15 3 -22
c-3 -8 -16 -9 -23 -4c0 2 -1 2 -1 2c-28 22 -122 23 -149 20c-36 -3 -73 -11 -110 -20c-20 -6 -75 -24 -97 -30c0 0 -6 -9 -20 -40c-10 -23 -24 -47 -37 -71c-17 -27 -108 -152 -135 -186c-19 -23 -40 -45 -61 -64c-17 -15 -35 -34 -53 -43c-10 -6 -21 -9 -33 -9
c-14 -3 -26 3 -34 20c-4 9 -5 18 -4 30c5 24 15 48 28 70c13 28 32 51 49 74c15 23 35 40 51 61c36 46 136 122 164 140c13 10 32 18 41 23c20 9 25 15 28 30c12 53 18 106 13 158c-1 32 -14 64 -32 88c-13 20 -37 31 -61 33c-28 4 -58 0 -87 -14c-52 -21 -95 -57 -131 -100
c-27 -32 -54 -69 -74 -103c-28 -49 -49 -115 -60 -181c-6 -38 -13 -76 -17 -115c-1 -15 -9 -95 -4 -165c0 -16 2 -34 2 -50c1 -5 0 -12 0 -18c-2 -6 -8 -9 -16 -10c-5 0 -12 2 -13 9l-6 31l-4 24c-3 23 -9 49 -12 75c0 9 -1 20 -3 30c-6 34 -9 71 -10 108c0 16 -2 32 -3 48
c-7 86 -13 170 -28 254c-7 40 -11 79 -31 160c-5 29 -16 56 -27 85c-1 7 -4 13 -4 20c-3 7 2 15 8 19zM514 307c-43 -21 -123 -78 -146 -98c-6 -5 -57 -56 -71 -73c-21 -24 -39 -49 -56 -71c-1 -2 -1 -3 -3 -5c-11 -18 -76 -132 -25 -125c10 1 17 5 24 8c21 18 44 28 61 50
c7 5 16 18 23 24c20 22 94 115 108 136c4 7 33 52 39 62l36 70c3 5 5 17 10 22z" />
    <glyph glyph-name="Eth" unicode="&#xd0;" horiz-adv-x="610" 
d="M924 374c6 -6 4 -15 3 -22c-3 -8 -16 -9 -23 -4c0 2 -1 2 -1 2c-28 22 -122 23 -149 20c-36 -3 -73 -11 -110 -20c-20 -6 -75 -24 -97 -30c0 0 -6 -9 -20 -40c-10 -23 -24 -47 -37 -71l-13 -20h1c5 -2 4 -5 3 -8c-2 -2 -2 -4 -3 -3c-5 -3 -9 -4 -13 -5
c-34 -48 -90 -125 -110 -150c-19 -23 -40 -45 -61 -64c-17 -15 -35 -34 -53 -43c-10 -6 -21 -9 -33 -9c-14 -3 -26 3 -34 20c-4 9 -5 18 -4 30c5 24 15 48 28 70c13 28 32 51 49 74c15 23 35 40 51 61l6 7h-58l-25 1h-48l-9 3c-2 2 -3 5 -4 9c-1 5 2 8 8 10
c20 -4 39 -7 57 -6h95c44 45 118 101 142 116c13 10 32 18 41 23c20 9 25 15 28 30c12 53 18 106 13 158c-1 32 -14 64 -32 88c-13 20 -37 31 -61 33c-28 4 -58 0 -87 -14c-52 -21 -95 -57 -131 -100c-27 -32 -54 -69 -74 -103c-28 -49 -49 -115 -60 -181
c-6 -38 -13 -76 -17 -115c-1 -15 -9 -95 -4 -165c0 -16 2 -34 2 -50c1 -5 0 -12 0 -18c-2 -6 -8 -9 -16 -10c-5 0 -12 2 -13 9l-6 31l-4 24c-3 23 -9 49 -12 75c0 9 -1 20 -3 30c-6 34 -9 71 -10 108c0 16 -2 32 -3 48c-7 86 -13 170 -28 254c-7 40 -11 79 -31 160
c-5 29 -16 56 -27 85c-1 7 -4 13 -4 20c-3 7 2 15 8 19c5 3 11 2 16 -5c4 -7 6 -12 6 -18c8 -37 19 -73 24 -110c8 -37 16 -73 20 -109c6 -34 11 -68 16 -100c7 -67 16 -134 20 -201c5 -63 16 -162 20 -172c1 4 1 7 2 12c1 10 3 24 4 38c1 16 10 138 20 171
c20 69 28 145 104 240c28 48 105 116 137 131c30 18 60 31 94 37c61 11 100 -20 112 -32c38 -40 43 -89 43 -144c0 -13 -2 -27 -4 -40c0 -16 -2 -30 -6 -45c-2 -14 -5 -33 -9 -49c6 1 13 4 17 5l49 15c22 7 45 13 70 15c16 4 32 6 46 8c34 6 78 6 97 6c25 3 53 -5 76 -8
c7 -2 15 -6 19 -12zM468 215l36 70c3 5 5 17 10 22c-43 -21 -123 -78 -146 -98l-24 -23h13c11 0 23 1 34 2c21 1 42 1 61 2zM321 17c20 22 94 115 108 136l11 17c-28 -1 -48 0 -73 -1h-39c-13 -13 -25 -26 -31 -33c-21 -24 -39 -49 -56 -71c-1 -2 -1 -3 -3 -5
c-11 -18 -76 -132 -25 -125c10 1 17 5 24 8c21 18 44 28 61 50c7 5 16 18 23 24z" />
    <glyph glyph-name="E" unicode="E" horiz-adv-x="563" 
d="M322 685c36 -13 75 -57 91 -97c5 -13 5 -26 7 -39c0 -3 0 -8 -1 -11c-1 -5 -5 -8 -9 -8s-9 2 -10 3c-3 3 -4 8 -3 13c-5 53 -45 104 -85 124c-53 23 -137 -2 -195 -76c-9 -12 -16 -25 -22 -36c-30 -60 -46 -158 -44 -186c0 -13 3 -22 3 -35c10 -40 44 -60 80 -54
c19 4 62 28 82 42c42 28 92 62 132 83c11 9 23 13 35 20c7 1 15 -1 18 -8c7 -8 6 -20 -3 -25c-5 -2 -9 -4 -13 -7c-37 -14 -84 -42 -117 -69c-57 -45 -83 -73 -98 -92c-29 -35 -52 -74 -79 -116c-25 -43 -46 -91 -60 -145c-8 -28 -9 -61 0 -90c5 -14 11 -22 20 -30
c27 -20 50 -14 78 -10c67 11 214 71 301 149c46 41 109 119 132 157c4 7 12 19 15 29c6 9 14 20 16 -10c-17 -35 -37 -67 -57 -95c-56 -77 -159 -154 -200 -176c-62 -33 -210 -96 -268 -80c-41 11 -69 69 -68 112c1 32 13 69 25 102c9 26 23 55 40 85c11 20 21 37 32 55
c16 25 31 48 50 71c6 10 34 29 48 50c-18 -10 -49 -24 -60 -27c-14 -3 -70 -7 -88 35c-31 71 -17 151 2 200l10 28c21 55 47 115 133 163c33 18 82 20 130 1z" />
    <glyph glyph-name="Eacute" unicode="&#xc9;" horiz-adv-x="563" 
d="M274 840c7 2 13 6 16 -4c4 -6 7 -12 4 -19c0 -6 -7 -13 -16 -16c-23 -7 -45 -22 -64 -38c-7 -3 -10 -10 -13 -9c-7 -3 -14 -2 -17 2c-8 13 61 64 90 84zM322 685c36 -13 75 -57 91 -97c5 -13 5 -26 7 -39c0 -3 0 -8 -1 -11c-1 -5 -5 -8 -9 -8s-9 2 -10 3c-3 3 -4 8 -3 13
c-5 53 -45 104 -85 124c-53 23 -137 -2 -195 -76c-9 -12 -16 -25 -22 -36c-30 -60 -46 -158 -44 -186c0 -13 3 -22 3 -35c10 -40 44 -60 80 -54c19 4 62 28 82 42c42 28 92 62 132 83c11 9 23 13 35 20c7 1 15 -1 18 -8c7 -8 6 -20 -3 -25c-5 -2 -9 -4 -13 -7
c-37 -14 -84 -42 -117 -69c-57 -45 -83 -73 -98 -92c-29 -35 -52 -74 -79 -116c-25 -43 -46 -91 -60 -145c-8 -28 -9 -61 0 -90c5 -14 11 -22 20 -30c27 -20 50 -14 78 -10c67 11 214 71 301 149c46 41 109 119 132 157c4 7 12 19 15 29c6 9 14 20 16 -10
c-17 -35 -37 -67 -57 -95c-56 -77 -159 -154 -200 -176c-62 -33 -210 -96 -268 -80c-41 11 -69 69 -68 112c1 32 13 69 25 102c9 26 23 55 40 85c11 20 21 37 32 55c16 25 31 48 50 71c6 10 34 29 48 50c-18 -10 -49 -24 -60 -27c-14 -3 -70 -7 -88 35c-31 71 -17 151 2 200
l10 28c21 55 47 115 133 163c33 18 82 20 130 1z" />
    <glyph glyph-name="Ecircumflex" unicode="&#xca;" horiz-adv-x="563" 
d="M273 861c24 -20 45 -44 61 -72c1 -2 3 -6 2 -9c0 -2 -1 -6 -3 -7c-3 -4 -9 -2 -11 -1c-2 4 -4 7 -7 11c-9 11 -17 23 -26 33c-6 9 -14 16 -26 18c-11 -4 -15 -13 -22 -20c-12 -11 -22 -22 -33 -33c-3 -4 -9 -7 -13 -11c-5 -2 -9 -1 -11 2c-4 3 -3 8 -1 11l9 9
c23 20 45 39 61 66c5 6 13 7 20 3zM322 685c36 -13 75 -57 91 -97c5 -13 5 -26 7 -39c0 -3 0 -8 -1 -11c-1 -5 -5 -8 -9 -8s-9 2 -10 3c-3 3 -4 8 -3 13c-5 53 -45 104 -85 124c-53 23 -137 -2 -195 -76c-9 -12 -16 -25 -22 -36c-30 -60 -46 -158 -44 -186
c0 -13 3 -22 3 -35c10 -40 44 -60 80 -54c19 4 62 28 82 42c42 28 92 62 132 83c11 9 23 13 35 20c7 1 15 -1 18 -8c7 -8 6 -20 -3 -25c-5 -2 -9 -4 -13 -7c-37 -14 -84 -42 -117 -69c-57 -45 -83 -73 -98 -92c-29 -35 -52 -74 -79 -116c-25 -43 -46 -91 -60 -145
c-8 -28 -9 -61 0 -90c5 -14 11 -22 20 -30c27 -20 50 -14 78 -10c67 11 214 71 301 149c46 41 109 119 132 157c4 7 12 19 15 29c6 9 14 20 16 -10c-17 -35 -37 -67 -57 -95c-56 -77 -159 -154 -200 -176c-62 -33 -210 -96 -268 -80c-41 11 -69 69 -68 112
c1 32 13 69 25 102c9 26 23 55 40 85c11 20 21 37 32 55c16 25 31 48 50 71c6 10 34 29 48 50c-18 -10 -49 -24 -60 -27c-14 -3 -70 -7 -88 35c-31 71 -17 151 2 200l10 28c21 55 47 115 133 163c33 18 82 20 130 1z" />
    <glyph glyph-name="Edieresis" unicode="&#xcb;" horiz-adv-x="563" 
d="M321 836c6 -4 11 -10 10 -21c-2 -20 -29 -18 -32 -15c-1 2 -7 6 -1 18c0 4 2 5 2 9c8 7 13 11 21 9zM206 833c6 -4 11 -10 10 -21c-2 -20 -29 -18 -32 -15c-1 2 -7 6 -1 18c0 4 2 5 2 9c8 7 13 11 21 9zM322 685c36 -13 75 -57 91 -97c5 -13 5 -26 7 -39
c0 -3 0 -8 -1 -11c-1 -5 -5 -8 -9 -8s-9 2 -10 3c-3 3 -4 8 -3 13c-5 53 -45 104 -85 124c-53 23 -137 -2 -195 -76c-9 -12 -16 -25 -22 -36c-30 -60 -46 -158 -44 -186c0 -13 3 -22 3 -35c10 -40 44 -60 80 -54c19 4 62 28 82 42c42 28 92 62 132 83c11 9 23 13 35 20
c7 1 15 -1 18 -8c7 -8 6 -20 -3 -25c-5 -2 -9 -4 -13 -7c-37 -14 -84 -42 -117 -69c-57 -45 -83 -73 -98 -92c-29 -35 -52 -74 -79 -116c-25 -43 -46 -91 -60 -145c-8 -28 -9 -61 0 -90c5 -14 11 -22 20 -30c27 -20 50 -14 78 -10c67 11 214 71 301 149
c46 41 109 119 132 157c4 7 12 19 15 29c6 9 14 20 16 -10c-17 -35 -37 -67 -57 -95c-56 -77 -159 -154 -200 -176c-62 -33 -210 -96 -268 -80c-41 11 -69 69 -68 112c1 32 13 69 25 102c9 26 23 55 40 85c11 20 21 37 32 55c16 25 31 48 50 71c6 10 34 29 48 50
c-18 -10 -49 -24 -60 -27c-14 -3 -70 -7 -88 35c-31 71 -17 151 2 200l10 28c21 55 47 115 133 163c33 18 82 20 130 1z" />
    <glyph glyph-name="Egrave" unicode="&#xc8;" horiz-adv-x="563" 
d="M215 854c6 3 15 0 22 -7c17 -17 40 -30 63 -40c6 -5 13 -4 14 -7c6 -5 8 -12 6 -16c-8 -13 -85 25 -116 42c-5 5 -11 9 -4 16c4 6 8 12 15 12zM322 685c36 -13 75 -57 91 -97c5 -13 5 -26 7 -39c0 -3 0 -8 -1 -11c-1 -5 -5 -8 -9 -8s-9 2 -10 3c-3 3 -4 8 -3 13
c-5 53 -45 104 -85 124c-53 23 -137 -2 -195 -76c-9 -12 -16 -25 -22 -36c-30 -60 -46 -158 -44 -186c0 -13 3 -22 3 -35c10 -40 44 -60 80 -54c19 4 62 28 82 42c42 28 92 62 132 83c11 9 23 13 35 20c7 1 15 -1 18 -8c7 -8 6 -20 -3 -25c-5 -2 -9 -4 -13 -7
c-37 -14 -84 -42 -117 -69c-57 -45 -83 -73 -98 -92c-29 -35 -52 -74 -79 -116c-25 -43 -46 -91 -60 -145c-8 -28 -9 -61 0 -90c5 -14 11 -22 20 -30c27 -20 50 -14 78 -10c67 11 214 71 301 149c46 41 109 119 132 157c4 7 12 19 15 29c6 9 14 20 16 -10
c-17 -35 -37 -67 -57 -95c-56 -77 -159 -154 -200 -176c-62 -33 -210 -96 -268 -80c-41 11 -69 69 -68 112c1 32 13 69 25 102c9 26 23 55 40 85c11 20 21 37 32 55c16 25 31 48 50 71c6 10 34 29 48 50c-18 -10 -49 -24 -60 -27c-14 -3 -70 -7 -88 35c-31 71 -17 151 2 200
l10 28c21 55 47 115 133 163c33 18 82 20 130 1z" />
    <glyph glyph-name="F" unicode="F" horiz-adv-x="454" 
d="M1 732c55 0 99 -12 129 -55c5 -10 17 -28 23 -46c2 -6 10 -3 17 -2c11 2 25 3 38 5c27 4 120 22 154 27s82 11 101 15l59 13c24 4 42 7 65 13c15 3 24 4 39 15c10 6 20 3 25 -7c3 -5 4 -14 1 -21c-9 -15 -15 -16 -29 -4h-3c-76 -8 -153 -26 -230 -40
c-76 -11 -153 -26 -229 -36c3 -12 4 -16 5 -25c9 -43 14 -82 14 -125c2 -30 3 -54 3 -81v-20c1 -9 -1 -9 10 -7c13 2 34 6 43 8c30 7 170 34 208 52c8 4 16 1 20 -6c6 -8 4 -15 -6 -21c-3 0 -7 -3 -12 -4c-32 -6 -64 -12 -95 -17c-51 -9 -95 -20 -141 -32c-4 0 -8 -1 -13 -3
l-15 -4c0 -44 -7 -96 -11 -139c-2 -16 -3 -28 -4 -43c-3 -28 -8 -59 -11 -89c-5 -43 -10 -76 -14 -111c-3 -18 -3 -34 -8 -51c-1 -3 -6 -8 -11 -8c-6 0 -12 4 -12 10c5 8 7 17 7 27c4 27 8 55 11 86c2 19 6 49 8 70c2 19 6 41 8 62l3 46c2 34 6 63 9 94c1 13 2 28 4 43
c-11 -1 -18 -1 -24 -1c-3 0 -7 2 -7 5s2 10 6 14c3 3 13 5 22 6c5 0 5 9 6 21v34c1 31 0 65 -3 97c-3 33 -7 64 -16 95c-3 5 -4 10 -7 13c-13 0 -26 -3 -39 -4c-39 -2 -76 1 -115 5c-17 2 -37 11 -53 16c-36 16 -43 64 -8 85c21 16 49 23 78 25zM-48 705
c-10 -4 -16 -10 -25 -16c-13 -14 -12 -28 2 -40s28 -21 46 -22c46 -7 83 -13 125 -7c5 1 24 4 31 4c-12 39 -26 56 -59 73c-41 19 -79 22 -120 8z" />
    <glyph glyph-name="G" unicode="G" horiz-adv-x="602" 
d="M246 725c7 1 33 5 64 -2c13 -3 22 -4 48 -20c28 -17 48 -32 67 -74c5 -6 5 -11 5 -17c3 -7 -2 -13 -10 -16c-4 -4 -13 1 -16 6c-1 3 -16 39 -28 54c-60 70 -130 61 -188 24c-29 -19 -64 -64 -80 -100c-16 -35 -48 -141 -55 -174c-3 -16 -6 -42 -9 -59
c-7 -37 -13 -111 -12 -218c1 -64 23 -188 63 -234c27 -32 51 -47 93 -50c11 -1 45 4 55 7c46 14 77 29 113 76c162 211 134 400 125 431c-1 4 -37 -4 -63 -10c-43 -11 -84 -21 -125 -37c-32 -13 -61 -27 -94 -38c-12 -4 -27 -1 -17 13c7 7 16 10 27 15c50 17 103 39 157 54
c39 11 77 20 116 28c8 2 15 3 24 5c116 29 160 37 283 75c8 2 15 4 21 5s12 -2 13 -8c4 -5 -27 -26 -35 -32c-6 -3 -15 -6 -25 -3c-11 4 -20 3 -31 -1c-47 -11 -94 -20 -138 -33c-22 -6 -47 -10 -75 -19c-4 -1 -17 -5 -15 -8c7 -31 27 -200 -87 -387c-3 -6 -23 -38 -28 -44
c-36 -51 -79 -87 -130 -101c-25 -7 -56 -10 -91 -7c-63 5 -100 60 -125 121c-28 95 -32 139 -34 178c-3 47 7 138 6 144c4 27 4 54 9 83c6 32 29 145 44 178c18 40 28 76 57 115c30 41 68 68 121 80z" />
    <glyph glyph-name="H" unicode="H" horiz-adv-x="508" 
d="M56 774c5 3 19 4 21 -8c1 -8 0 -11 0 -15c-2 -41 -9 -212 -11 -224c1 -6 0 -12 1 -18c5 2 15 11 17 12c23 13 47 21 71 26c75 15 185 19 280 -51c9 -6 18 -8 18 -10l1 45c3 26 0 56 4 83l1 113c-1 8 1 13 10 19c6 1 8 -2 9 -7c2 -8 2 -15 4 -25c2 -45 -4 -90 -6 -135
l-4 -110c6 1 27 11 35 15c10 5 16 9 23 12c121 58 128 75 137 100c4 6 1 10 16 9c5 -3 11 -10 13 -14c3 -4 0 -9 -3 -14c-3 -4 -9 -11 -18 -18c-20 -16 -43 -33 -70 -48c-34 -15 -69 -35 -102 -51c-14 -7 -32 -13 -32 -13c-2 -8 -1 -31 0 -40c-2 -37 -2 -75 -3 -114
c0 -44 4 -100 5 -273c3 -30 3 -62 3 -92c6 -10 8 -17 -4 -23c-3 0 -5 -3 -10 -2c-6 4 -9 9 -9 12c-6 8 -7 18 -6 26c1 50 2 239 -2 287c1 61 10 212 7 209c-33 -16 -103 -50 -147 -64c-34 -9 -151 -37 -232 -13c-4 1 -10 4 -10 4c-1 -5 -4 -19 -4 -23c-5 -28 -6 -57 -6 -87
c-6 -41 -14 -279 -15 -315c1 -6 -1 -13 4 -19c6 -14 7 -31 3 -46c0 -3 0 -8 -3 -10c-2 -6 -7 -11 -15 -11c-5 0 -13 4 -14 9c-3 5 0 5 -2 10c0 5 2 9 1 14c0 14 8 140 11 180c5 176 17 295 18 311c-11 18 -14 25 -18 41c0 9 1 25 12 55l12 21v24c1 19 1 37 1 56
c3 105 8 144 1 183c1 2 -2 11 7 17zM374 515c-84 45 -228 30 -289 -15c-13 -12 -28 -23 -30 -38c-6 -16 -10 -57 19 -74c29 -15 84 -17 120 -16c33 1 56 8 66 11c25 7 59 17 78 24c14 5 25 9 42 17c20 9 56 25 72 37c-2 3 -7 10 -11 12c-15 16 -48 30 -67 42z" />
    <glyph glyph-name="I" unicode="I" horiz-adv-x="630" 
d="M419 738c34 -17 58 -44 82 -69c22 -24 35 -49 44 -80c13 -45 16 -90 16 -136c0 -28 1 -60 -4 -89c-4 -25 -8 -50 -14 -74c-5 -24 -14 -45 -22 -67s-18 -43 -28 -64c-22 -46 -53 -86 -81 -124c-6 -9 -15 -23 -26 -38c2 -2 3 -6 6 -8c19 -19 39 -38 63 -53
c18 -14 39 -31 59 -44c10 -6 21 -13 30 -16c25 0 33 0 33 -15s-13 -14 -22 -13c-13 1 -30 11 -40 16c-5 4 -14 11 -20 15c-23 17 -44 32 -70 54c-6 5 -28 26 -36 34c-2 3 -12 13 -16 17c-6 -3 -12 -14 -16 -16c-16 -12 -33 -32 -49 -43c-34 -23 -56 -37 -100 -44
c-21 -3 -43 -2 -65 0c-27 3 -49 8 -73 20c-10 5 -21 13 -31 23c-27 27 -42 53 -50 92c-9 46 -2 93 21 134c13 19 22 37 38 55c8 8 18 14 28 22c11 5 23 -2 27 -14c3 -19 -8 -34 -25 -37c-7 -1 -13 -1 -19 -1c-24 -20 -37 -45 -46 -72c-22 -61 -4 -135 55 -177
c25 -18 54 -22 86 -26c84 -10 166 40 204 97l-14 20c-23 31 -67 130 -82 181c-9 31 -17 62 -21 91c-2 16 -3 31 -3 45c0 41 2 81 6 120c4 38 13 77 27 116c11 36 22 76 39 108c10 19 17 37 34 49c24 18 50 23 75 11zM410 717c-26 9 -45 2 -62 -16c-9 -13 -17 -22 -24 -36
c-19 -44 -37 -91 -49 -137c-16 -74 -20 -149 -16 -223c1 -30 7 -56 14 -84c16 -67 44 -128 82 -186c3 -6 13 -16 17 -23c6 6 14 15 16 18c9 13 13 16 23 30c27 38 55 81 76 133c24 61 41 102 53 184c4 26 2 53 3 81c1 36 -4 75 -12 113c-13 49 -30 78 -75 118
c-13 11 -31 23 -46 28z" />
    <glyph glyph-name="IJ" unicode="&#x132;" horiz-adv-x="1238" 
d="M419 738c34 -17 58 -44 82 -69c22 -24 35 -49 44 -80c13 -45 16 -90 16 -136c0 -28 1 -60 -4 -89c-4 -25 -8 -50 -14 -74c-5 -24 -14 -45 -22 -67s-18 -43 -28 -64c-22 -46 -53 -86 -81 -124c-6 -9 -15 -23 -26 -38c2 -2 3 -6 6 -8c19 -19 39 -38 63 -53
c18 -14 39 -31 59 -44c10 -6 21 -13 30 -16c25 0 33 0 33 -15s-13 -14 -22 -13c-13 1 -30 11 -40 16c-5 4 -14 11 -20 15c-23 17 -44 32 -70 54c-6 5 -28 26 -36 34c-2 3 -12 13 -16 17c-6 -3 -12 -14 -16 -16c-16 -12 -33 -32 -49 -43c-34 -23 -56 -37 -100 -44
c-21 -3 -43 -2 -65 0c-27 3 -49 8 -73 20c-10 5 -21 13 -31 23c-27 27 -42 53 -50 92c-9 46 -2 93 21 134c13 19 22 37 38 55c8 8 18 14 28 22c11 5 23 -2 27 -14c3 -19 -8 -34 -25 -37c-7 -1 -13 -1 -19 -1c-24 -20 -37 -45 -46 -72c-22 -61 -4 -135 55 -177
c25 -18 54 -22 86 -26c84 -10 166 40 204 97l-14 20c-23 31 -67 130 -82 181c-9 31 -17 62 -21 91c-2 16 -3 31 -3 45c0 41 2 81 6 120c4 38 13 77 27 116c11 36 22 76 39 108c10 19 17 37 34 49c24 18 50 23 75 11zM410 717c-26 9 -45 2 -62 -16c-9 -13 -17 -22 -24 -36
c-19 -44 -37 -91 -49 -137c-16 -74 -20 -149 -16 -223c1 -30 7 -56 14 -84c16 -67 44 -128 82 -186c3 -6 13 -16 17 -23c6 6 14 15 16 18c9 13 13 16 23 30c27 38 55 81 76 133c24 61 41 102 53 184c4 26 2 53 3 81c1 36 -4 75 -12 113c-13 49 -30 78 -75 118
c-13 11 -31 23 -46 28zM1053 702c32 24 23 -66 27 -104c5 -41 8 -83 6 -177c0 -18 1 -43 -1 -62c72 -4 89 -12 116 -19c20 -7 38 -9 49 -26c8 -8 11 -17 7 -25c-2 -7 -10 -12 -16 -13c-6 0 -8 3 -13 8c-6 6 -9 15 -11 23c-18 14 -40 24 -60 25c-21 3 -47 7 -71 5
c0 -5 -6 -68 -9 -93c-6 -50 -18 -99 -37 -143c-20 -45 -42 -86 -74 -123c-28 -39 -64 -74 -107 -96c-164 -83 -217 33 -225 80c-6 43 -7 78 4 118c14 52 85 135 141 176c74 54 120 67 149 77c38 14 76 17 100 21c8 1 31 2 40 4l1 26c1 33 -2 120 -3 153
c-5 50 -14 101 -15 152c0 1 -4 9 2 13zM1067 337c-14 1 -35 -6 -45 -7c-31 -2 -57 -8 -86 -17c-57 -15 -159 -66 -244 -171c-7 -9 -19 -32 -24 -43c-11 -28 -14 -51 -16 -81c-1 -24 0 -49 10 -75c19 -51 75 -83 140 -59c42 13 82 33 112 66c29 34 56 64 79 99
c61 92 76 278 74 288z" />
    <glyph glyph-name="Iacute" unicode="&#xcd;" horiz-adv-x="630" 
d="M441 905c7 2 13 6 16 -4c4 -6 7 -12 4 -19c0 -6 -7 -13 -16 -16c-23 -7 -45 -22 -64 -38c-7 -3 -10 -10 -13 -9c-7 -3 -14 -2 -17 2c-8 13 61 64 90 84zM419 738c34 -17 58 -44 82 -69c22 -24 35 -49 44 -80c13 -45 16 -90 16 -136c0 -28 1 -60 -4 -89
c-4 -25 -8 -50 -14 -74c-5 -24 -14 -45 -22 -67s-18 -43 -28 -64c-22 -46 -53 -86 -81 -124c-6 -9 -15 -23 -26 -38c2 -2 3 -6 6 -8c19 -19 39 -38 63 -53c18 -14 39 -31 59 -44c10 -6 21 -13 30 -16c25 0 33 0 33 -15s-13 -14 -22 -13c-13 1 -30 11 -40 16
c-5 4 -14 11 -20 15c-23 17 -44 32 -70 54c-6 5 -28 26 -36 34c-2 3 -12 13 -16 17c-6 -3 -12 -14 -16 -16c-16 -12 -33 -32 -49 -43c-34 -23 -56 -37 -100 -44c-21 -3 -43 -2 -65 0c-27 3 -49 8 -73 20c-10 5 -21 13 -31 23c-27 27 -42 53 -50 92c-9 46 -2 93 21 134
c13 19 22 37 38 55c8 8 18 14 28 22c11 5 23 -2 27 -14c3 -19 -8 -34 -25 -37c-7 -1 -13 -1 -19 -1c-24 -20 -37 -45 -46 -72c-22 -61 -4 -135 55 -177c25 -18 54 -22 86 -26c84 -10 166 40 204 97l-14 20c-23 31 -67 130 -82 181c-9 31 -17 62 -21 91c-2 16 -3 31 -3 45
c0 41 2 81 6 120c4 38 13 77 27 116c11 36 22 76 39 108c10 19 17 37 34 49c24 18 50 23 75 11zM410 717c-26 9 -45 2 -62 -16c-9 -13 -17 -22 -24 -36c-19 -44 -37 -91 -49 -137c-16 -74 -20 -149 -16 -223c1 -30 7 -56 14 -84c16 -67 44 -128 82 -186c3 -6 13 -16 17 -23
c6 6 14 15 16 18c9 13 13 16 23 30c27 38 55 81 76 133c24 61 41 102 53 184c4 26 2 53 3 81c1 36 -4 75 -12 113c-13 49 -30 78 -75 118c-13 11 -31 23 -46 28z" />
    <glyph glyph-name="Icircumflex" unicode="&#xce;" horiz-adv-x="630" 
d="M435 884c24 -20 45 -44 61 -72c1 -2 3 -6 2 -9c0 -2 -1 -6 -3 -7c-3 -4 -9 -2 -11 -1c-2 4 -4 7 -7 11c-9 11 -17 23 -26 33c-6 9 -14 16 -26 18c-11 -4 -15 -13 -22 -20c-12 -11 -22 -22 -33 -33c-3 -4 -9 -7 -13 -11c-5 -2 -9 -1 -11 2c-4 3 -3 8 -1 11l9 9
c23 20 45 39 61 66c5 6 13 7 20 3zM419 738c34 -17 58 -44 82 -69c22 -24 35 -49 44 -80c13 -45 16 -90 16 -136c0 -28 1 -60 -4 -89c-4 -25 -8 -50 -14 -74c-5 -24 -14 -45 -22 -67s-18 -43 -28 -64c-22 -46 -53 -86 -81 -124c-6 -9 -15 -23 -26 -38c2 -2 3 -6 6 -8
c19 -19 39 -38 63 -53c18 -14 39 -31 59 -44c10 -6 21 -13 30 -16c25 0 33 0 33 -15s-13 -14 -22 -13c-13 1 -30 11 -40 16c-5 4 -14 11 -20 15c-23 17 -44 32 -70 54c-6 5 -28 26 -36 34c-2 3 -12 13 -16 17c-6 -3 -12 -14 -16 -16c-16 -12 -33 -32 -49 -43
c-34 -23 -56 -37 -100 -44c-21 -3 -43 -2 -65 0c-27 3 -49 8 -73 20c-10 5 -21 13 -31 23c-27 27 -42 53 -50 92c-9 46 -2 93 21 134c13 19 22 37 38 55c8 8 18 14 28 22c11 5 23 -2 27 -14c3 -19 -8 -34 -25 -37c-7 -1 -13 -1 -19 -1c-24 -20 -37 -45 -46 -72
c-22 -61 -4 -135 55 -177c25 -18 54 -22 86 -26c84 -10 166 40 204 97l-14 20c-23 31 -67 130 -82 181c-9 31 -17 62 -21 91c-2 16 -3 31 -3 45c0 41 2 81 6 120c4 38 13 77 27 116c11 36 22 76 39 108c10 19 17 37 34 49c24 18 50 23 75 11zM410 717c-26 9 -45 2 -62 -16
c-9 -13 -17 -22 -24 -36c-19 -44 -37 -91 -49 -137c-16 -74 -20 -149 -16 -223c1 -30 7 -56 14 -84c16 -67 44 -128 82 -186c3 -6 13 -16 17 -23c6 6 14 15 16 18c9 13 13 16 23 30c27 38 55 81 76 133c24 61 41 102 53 184c4 26 2 53 3 81c1 36 -4 75 -12 113
c-13 49 -30 78 -75 118c-13 11 -31 23 -46 28z" />
    <glyph glyph-name="Idieresis" unicode="&#xcf;" horiz-adv-x="630" 
d="M483 861c6 -4 11 -10 10 -21c-2 -20 -29 -18 -32 -15c-1 2 -7 6 -1 18c0 4 2 5 2 9c8 7 13 11 21 9zM368 858c6 -4 11 -10 10 -21c-2 -20 -29 -18 -32 -15c-1 2 -7 6 -1 18c0 4 2 5 2 9c8 7 13 11 21 9zM419 738c34 -17 58 -44 82 -69c22 -24 35 -49 44 -80
c13 -45 16 -90 16 -136c0 -28 1 -60 -4 -89c-4 -25 -8 -50 -14 -74c-5 -24 -14 -45 -22 -67s-18 -43 -28 -64c-22 -46 -53 -86 -81 -124c-6 -9 -15 -23 -26 -38c2 -2 3 -6 6 -8c19 -19 39 -38 63 -53c18 -14 39 -31 59 -44c10 -6 21 -13 30 -16c25 0 33 0 33 -15
s-13 -14 -22 -13c-13 1 -30 11 -40 16c-5 4 -14 11 -20 15c-23 17 -44 32 -70 54c-6 5 -28 26 -36 34c-2 3 -12 13 -16 17c-6 -3 -12 -14 -16 -16c-16 -12 -33 -32 -49 -43c-34 -23 -56 -37 -100 -44c-21 -3 -43 -2 -65 0c-27 3 -49 8 -73 20c-10 5 -21 13 -31 23
c-27 27 -42 53 -50 92c-9 46 -2 93 21 134c13 19 22 37 38 55c8 8 18 14 28 22c11 5 23 -2 27 -14c3 -19 -8 -34 -25 -37c-7 -1 -13 -1 -19 -1c-24 -20 -37 -45 -46 -72c-22 -61 -4 -135 55 -177c25 -18 54 -22 86 -26c84 -10 166 40 204 97l-14 20c-23 31 -67 130 -82 181
c-9 31 -17 62 -21 91c-2 16 -3 31 -3 45c0 41 2 81 6 120c4 38 13 77 27 116c11 36 22 76 39 108c10 19 17 37 34 49c24 18 50 23 75 11zM410 717c-26 9 -45 2 -62 -16c-9 -13 -17 -22 -24 -36c-19 -44 -37 -91 -49 -137c-16 -74 -20 -149 -16 -223c1 -30 7 -56 14 -84
c16 -67 44 -128 82 -186c3 -6 13 -16 17 -23c6 6 14 15 16 18c9 13 13 16 23 30c27 38 55 81 76 133c24 61 41 102 53 184c4 26 2 53 3 81c1 36 -4 75 -12 113c-13 49 -30 78 -75 118c-13 11 -31 23 -46 28z" />
    <glyph glyph-name="Igrave" unicode="&#xcc;" horiz-adv-x="630" 
d="M354 870c6 3 15 0 22 -7c17 -17 40 -30 63 -40c6 -5 13 -4 14 -7c6 -5 8 -12 6 -16c-8 -13 -85 25 -116 42c-5 5 -11 9 -4 16c4 6 8 12 15 12zM419 738c34 -17 58 -44 82 -69c22 -24 35 -49 44 -80c13 -45 16 -90 16 -136c0 -28 1 -60 -4 -89c-4 -25 -8 -50 -14 -74
c-5 -24 -14 -45 -22 -67s-18 -43 -28 -64c-22 -46 -53 -86 -81 -124c-6 -9 -15 -23 -26 -38c2 -2 3 -6 6 -8c19 -19 39 -38 63 -53c18 -14 39 -31 59 -44c10 -6 21 -13 30 -16c25 0 33 0 33 -15s-13 -14 -22 -13c-13 1 -30 11 -40 16c-5 4 -14 11 -20 15
c-23 17 -44 32 -70 54c-6 5 -28 26 -36 34c-2 3 -12 13 -16 17c-6 -3 -12 -14 -16 -16c-16 -12 -33 -32 -49 -43c-34 -23 -56 -37 -100 -44c-21 -3 -43 -2 -65 0c-27 3 -49 8 -73 20c-10 5 -21 13 -31 23c-27 27 -42 53 -50 92c-9 46 -2 93 21 134c13 19 22 37 38 55
c8 8 18 14 28 22c11 5 23 -2 27 -14c3 -19 -8 -34 -25 -37c-7 -1 -13 -1 -19 -1c-24 -20 -37 -45 -46 -72c-22 -61 -4 -135 55 -177c25 -18 54 -22 86 -26c84 -10 166 40 204 97l-14 20c-23 31 -67 130 -82 181c-9 31 -17 62 -21 91c-2 16 -3 31 -3 45c0 41 2 81 6 120
c4 38 13 77 27 116c11 36 22 76 39 108c10 19 17 37 34 49c24 18 50 23 75 11zM410 717c-26 9 -45 2 -62 -16c-9 -13 -17 -22 -24 -36c-19 -44 -37 -91 -49 -137c-16 -74 -20 -149 -16 -223c1 -30 7 -56 14 -84c16 -67 44 -128 82 -186c3 -6 13 -16 17 -23c6 6 14 15 16 18
c9 13 13 16 23 30c27 38 55 81 76 133c24 61 41 102 53 184c4 26 2 53 3 81c1 36 -4 75 -12 113c-13 49 -30 78 -75 118c-13 11 -31 23 -46 28z" />
    <glyph glyph-name="J" unicode="J" horiz-adv-x="608" 
d="M423 702c32 24 23 -66 27 -104c5 -41 8 -83 6 -177c0 -18 1 -43 -1 -62c72 -4 89 -12 116 -19c20 -7 38 -9 49 -26c8 -8 11 -17 7 -25c-2 -7 -10 -12 -16 -13c-6 0 -8 3 -13 8c-6 6 -9 15 -11 23c-18 14 -40 24 -60 25c-21 3 -47 7 -71 5c0 -5 -6 -68 -9 -93
c-6 -50 -18 -99 -37 -143c-20 -45 -42 -86 -74 -123c-28 -39 -64 -74 -107 -96c-164 -83 -217 33 -225 80c-6 43 -7 78 4 118c14 52 85 135 141 176c74 54 120 67 149 77c38 14 76 17 100 21c8 1 31 2 40 4l1 26c1 33 -2 120 -3 153c-5 50 -14 101 -15 152c0 1 -4 9 2 13z
M437 337c-14 1 -35 -6 -45 -7c-31 -2 -57 -8 -86 -17c-57 -15 -159 -66 -244 -171c-7 -9 -19 -32 -24 -43c-11 -28 -14 -51 -16 -81c-1 -24 0 -49 10 -75c19 -51 75 -83 140 -59c42 13 82 33 112 66c29 34 56 64 79 99c61 92 76 278 74 288z" />
    <glyph glyph-name="K" unicode="K" horiz-adv-x="829" 
d="M172 763c5 0 5 -8 7 -14c1 -11 3 -23 5 -105c1 -37 -2 -72 0 -108c2 -31 1 -122 5 -128c17 -1 39 4 57 9l117 37c25 12 47 24 68 35c40 20 105 90 129 124c5 9 35 43 40 41c7 -3 7 -10 5 -15l-5 -13c-29 -42 -97 -115 -143 -144c-35 -22 -64 -34 -98 -48
c-25 -10 -52 -17 -78 -28c-33 -12 -41 -11 -72 -17c53 -50 26 -18 78 -85c31 -46 63 -96 81 -134c23 -44 125 -237 314 -189c43 11 69 37 73 41c52 53 61 71 76 106c14 39 24 53 29 40c4 -11 -12 -47 -24 -71c-18 -33 -72 -97 -118 -122c-24 -13 -72 -22 -92 -22
c-45 0 -123 24 -165 62c-25 22 -48 41 -65 67c-35 49 -77 122 -104 175c-25 41 -54 77 -90 108c-5 5 -10 10 -17 13c-2 -3 -3 -9 -3 -11c-1 -15 -5 -28 -5 -44c-3 -45 -10 -90 -15 -137c-3 -23 -6 -48 -11 -73c-10 -59 -32 -166 -26 -243c-1 -6 2 -13 0 -20
c-3 -7 -7 -11 -12 -12c-6 0 -15 6 -17 10c-4 7 -3 12 -3 19c4 46 26 218 31 243c10 52 18 102 24 154c1 6 0 13 2 21c1 21 10 89 10 97c-2 1 -25 -6 -34 -6c-33 0 -66 -3 -99 4c-10 0 -18 3 -25 6c-9 7 -12 18 -4 29c4 6 23 16 33 18c38 8 54 12 89 7c15 -2 33 -14 43 -19
v18c1 42 -1 90 -2 134c-2 31 3 136 0 171c-2 13 6 19 11 19zM141 404c-33 17 -65 9 -98 0c29 -9 67 -8 95 -2c1 0 1 2 3 2z" />
    <glyph glyph-name="L" unicode="L" 
d="M180 769c6 -8 6 -23 5 -34c-5 -37 -9 -75 -16 -111c-13 -65 -17 -190 -25 -255c-7 -71 -17 -221 -25 -291c0 -14 -4 -33 -4 -49h15c24 1 49 4 76 4c2 1 17 0 20 0c34 0 56 -4 89 -7c31 -2 65 -5 96 -3c18 2 95 -5 123 21c14 -10 14 -15 7 -32c-8 -9 -17 -9 -29 -9
c-19 1 -42 -1 -59 0c-14 -1 -36 -2 -50 -2c-29 0 -125 8 -140 10c-29 4 -55 5 -84 2c-18 1 -37 -5 -68 -10c-13 -44 -27 -88 -33 -131c-5 -23 -11 -31 -27 -34c-25 -1 -43 17 -57 49c-10 22 -6 45 2 69c9 16 17 29 31 38c31 21 52 28 65 31c4 28 7 55 12 86c2 14 4 28 5 45
c3 35 8 153 12 189c4 35 9 68 11 101c3 26 10 114 14 137c1 18 15 99 15 119c1 8 2 16 2 25v35c4 11 12 7 17 7zM87 -6c-1 0 -14 -1 -20 -2c-19 -6 -30 -16 -41 -29c-20 -26 -24 -47 -3 -76c4 -3 6 -4 7 -8c13 -6 23 2 30 23c5 20 11 30 16 53c2 10 5 23 11 39z" />
    <glyph glyph-name="Ldot" unicode="&#x13f;" 
d="M180 769c6 -8 6 -23 5 -34c-5 -37 -9 -75 -16 -111c-13 -65 -17 -190 -25 -255c-7 -71 -17 -221 -25 -291c0 -14 -4 -33 -4 -49h15c24 1 49 4 76 4c2 1 17 0 20 0c34 0 56 -4 89 -7c31 -2 65 -5 96 -3c18 2 95 -5 123 21c14 -10 14 -15 7 -32c-8 -9 -17 -9 -29 -9
c-19 1 -42 -1 -59 0c-14 -1 -36 -2 -50 -2c-29 0 -125 8 -140 10c-29 4 -55 5 -84 2c-18 1 -37 -5 -68 -10c-13 -44 -27 -88 -33 -131c-5 -23 -11 -31 -27 -34c-25 -1 -43 17 -57 49c-10 22 -6 45 2 69c9 16 17 29 31 38c31 21 52 28 65 31c4 28 7 55 12 86c2 14 4 28 5 45
c3 35 8 153 12 189c4 35 9 68 11 101c3 26 10 114 14 137c1 18 15 99 15 119c1 8 2 16 2 25v35c4 11 12 7 17 7zM1 330c21 -3 20 -30 17 -33c-3 -1 -7 -8 -18 -2c-4 0 -6 2 -10 2c-9 8 -13 13 -10 21c4 7 10 12 21 12zM87 -6c-1 0 -14 -1 -20 -2c-19 -6 -30 -16 -41 -29
c-20 -26 -24 -47 -3 -76c4 -3 6 -4 7 -8c13 -6 23 2 30 23c5 20 11 30 16 53c2 10 5 23 11 39z" />
    <glyph glyph-name="M" unicode="M" horiz-adv-x="1426" 
d="M95 690c15 -18 25 -39 31 -63c18 -63 25 -128 25 -195v-161c0 -56 -1 -112 -3 -166c0 -9 -3 -27 2 -38c3 10 10 38 12 43c11 53 27 92 42 144c18 57 40 111 70 161c11 19 22 41 33 57c28 38 55 75 84 110c19 23 41 40 62 54c13 9 27 13 41 13c10 0 41 -3 31 -118
c-5 -52 -13 -105 -18 -157c-7 -54 -11 -109 -15 -161c-4 -41 -8 -82 -11 -123v-42s2 -1 3 -4c10 21 19 41 25 63c20 70 81 197 100 234c12 24 37 59 50 79c21 34 36 46 56 73c11 14 22 26 72 75c20 22 90 68 123 70c31 2 49 -15 53 -41c1 -18 3 -39 1 -59
c0 -23 -3 -48 -5 -72c-7 -74 -18 -146 -18 -220c-1 -22 3 -41 4 -60c1 -17 2 -36 4 -53c8 -52 20 -102 43 -150c7 -16 15 -30 25 -43c29 -43 70 -71 121 -78c44 -5 85 6 120 37c27 23 55 45 76 74c20 23 37 48 53 75c13 28 32 60 39 83c12 37 31 39 22 13
c-5 -15 -32 -92 -65 -137c-15 -22 -30 -41 -47 -62c-27 -27 -54 -52 -83 -74c-50 -35 -105 -43 -162 -22c-35 15 -66 41 -89 74c-18 28 -33 56 -45 86c-8 18 -12 36 -16 54c-6 24 -8 49 -11 72c-3 26 -7 50 -7 76v49c0 11 10 143 16 200c0 6 0 13 1 19c4 35 3 68 1 103
c0 4 -1 8 -1 11c-5 18 -15 23 -34 19c-25 -3 -45 -15 -66 -28c-42 -24 -119 -112 -161 -174s-43 -62 -79 -136c-16 -33 -28 -59 -39 -89l-44 -128c-3 -9 -5 -19 -8 -28c-9 -22 -15 -44 -23 -65l-6 -11c-7 -9 -19 -8 -23 2c-2 5 -4 12 -4 20c0 77 8 153 16 231
c7 61 11 124 17 186c6 45 9 92 16 138c2 25 4 49 -2 71c0 4 -3 10 -6 13c-6 6 -10 9 -16 8c-14 -2 -34 -15 -52 -32c-24 -24 -100 -123 -136 -186c-39 -81 -61 -137 -78 -193c-16 -50 -26 -102 -39 -156c-6 -28 -13 -57 -13 -88c0 -7 -4 -14 -5 -20c-2 -5 -9 -7 -14 -7
c-5 2 -9 4 -11 9l-1 7c-2 47 -3 92 -3 138c0 16 1 32 1 48c-1 33 0 64 2 97c1 17 1 37 1 57v129c-1 46 -4 96 -13 143c-5 29 -14 55 -24 81c-7 17 -17 29 -33 34c-12 6 -23 6 -34 -5c-3 -4 -9 -10 -14 -10c-3 -2 -8 -2 -10 0s-2 6 -2 10c0 1 2 5 4 7c22 33 64 37 91 5z" />
    <glyph glyph-name="N" unicode="N" horiz-adv-x="883" 
d="M491 691c20 0 35 -9 44 -28c10 -17 14 -34 17 -55c7 -38 3 -185 -10 -279c-6 -44 -8 -85 -13 -129c-1 -11 -1 -24 -3 -36c-1 -64 -5 -129 -4 -193c3 -24 4 -45 9 -68c3 -15 9 -30 17 -41c14 -20 32 -28 56 -28c3 0 6 0 9 1c21 7 39 16 56 31c17 19 37 34 55 53
c11 11 89 114 97 126c7 9 12 17 19 26c13 18 23 38 31 58c5 10 21 47 34 40c10 -5 6 -13 0 -22c-5 -8 -9 -18 -14 -27c-7 -14 -76 -127 -131 -190c-15 -17 -31 -31 -47 -48c-7 -6 -12 -14 -20 -20c-19 -17 -41 -34 -64 -45c-25 -13 -66 -7 -89 19c-12 15 -23 32 -28 52
c-8 31 -11 64 -10 97v96c2 60 5 121 13 180c4 37 6 76 13 113c3 27 4 54 6 78c1 27 5 52 5 77c0 22 -4 44 -5 66c-2 10 -10 76 -50 76c-14 0 -28 -5 -41 -11c-16 -11 -31 -21 -45 -32c-23 -21 -42 -43 -61 -68c-33 -41 -57 -87 -78 -136c-37 -88 -67 -173 -88 -356
c-2 -21 -9 -45 -13 -67c-1 -3 -2 -5 -4 -8c-4 -7 -17 -7 -21 3c-3 2 -4 5 -4 8c-2 24 -3 48 7 154c2 24 3 46 4 70c3 42 6 84 10 126c1 17 1 35 3 52c1 23 4 46 4 70c1 22 5 96 -10 153l-1 7c-12 35 -46 41 -70 31c-14 -4 -25 -14 -37 -24c-8 -8 -17 -19 -25 -22
c-5 -2 -10 0 -13 7c-1 5 0 11 7 15c13 6 22 16 31 23c15 11 33 18 50 24c27 6 51 -6 65 -30c9 -12 14 -28 18 -44c2 -11 3 -21 3 -34c3 -42 3 -86 -1 -130c-2 -18 -2 -37 -2 -58c-5 -63 -15 -170 -18 -235v-32c1 0 -1 -13 0 -13c5 23 7 38 11 52c6 32 21 107 31 140
c22 68 56 155 78 192c23 38 58 93 110 140c11 10 24 19 36 28c20 16 45 25 71 25z" />
    <glyph glyph-name="Ntilde" unicode="&#xd1;" horiz-adv-x="883" 
d="M531 851c5 0 8 -4 8 -8c2 -2 2 -2 2 -4c-4 -23 -10 -45 -26 -65c-9 -11 -20 -16 -37 -16c-13 0 -26 5 -38 15l-30 28c-8 8 -19 15 -30 17c-25 5 -45 2 -62 -17c-5 -7 -10 -15 -15 -23c-3 -7 -8 -11 -11 -7c-5 3 -5 10 -4 15c12 35 52 60 88 53c7 -1 13 -3 18 -6
c11 -8 22 -17 32 -25c8 -7 16 -15 25 -22c21 -13 44 -8 55 13c6 9 8 21 12 31c2 5 2 11 5 16c1 2 5 5 8 5zM491 691c20 0 35 -9 44 -28c10 -17 14 -34 17 -55c7 -38 3 -185 -10 -279c-6 -44 -8 -85 -13 -129c-1 -11 -1 -24 -3 -36c-1 -64 -5 -129 -4 -193c3 -24 4 -45 9 -68
c3 -15 9 -30 17 -41c14 -20 32 -28 56 -28c3 0 6 0 9 1c21 7 39 16 56 31c17 19 37 34 55 53c11 11 89 114 97 126c7 9 12 17 19 26c13 18 23 38 31 58c5 10 21 47 34 40c10 -5 6 -13 0 -22c-5 -8 -9 -18 -14 -27c-7 -14 -76 -127 -131 -190c-15 -17 -31 -31 -47 -48
c-7 -6 -12 -14 -20 -20c-19 -17 -41 -34 -64 -45c-25 -13 -66 -7 -89 19c-12 15 -23 32 -28 52c-8 31 -11 64 -10 97v96c2 60 5 121 13 180c4 37 6 76 13 113c3 27 4 54 6 78c1 27 5 52 5 77c0 22 -4 44 -5 66c-2 10 -10 76 -50 76c-14 0 -28 -5 -41 -11
c-16 -11 -31 -21 -45 -32c-23 -21 -42 -43 -61 -68c-33 -41 -57 -87 -78 -136c-37 -88 -67 -173 -88 -356c-2 -21 -9 -45 -13 -67c-1 -3 -2 -5 -4 -8c-4 -7 -17 -7 -21 3c-3 2 -4 5 -4 8c-2 24 -3 48 7 154c2 24 3 46 4 70c3 42 6 84 10 126c1 17 1 35 3 52c1 23 4 46 4 70
c1 22 5 96 -10 153l-1 7c-12 35 -46 41 -70 31c-14 -4 -25 -14 -37 -24c-8 -8 -17 -19 -25 -22c-5 -2 -10 0 -13 7c-1 5 0 11 7 15c13 6 22 16 31 23c15 11 33 18 50 24c27 6 51 -6 65 -30c9 -12 14 -28 18 -44c2 -11 3 -21 3 -34c3 -42 3 -86 -1 -130c-2 -18 -2 -37 -2 -58
c-5 -63 -15 -170 -18 -235v-32c1 0 -1 -13 0 -13c5 23 7 38 11 52c6 32 21 107 31 140c22 68 56 155 78 192c23 38 58 93 110 140c11 10 24 19 36 28c20 16 45 25 71 25z" />
    <glyph glyph-name="O" unicode="O" horiz-adv-x="615" 
d="M301 750c18 1 36 0 53 -2c14 -2 29 -5 40 -12c9 -5 19 -7 28 -4c11 7 20 1 27 -8c4 -6 8 -12 12 -17c2 -6 8 -12 10 -18c2 -10 5 -17 10 -25c30 -48 49 -101 64 -155c8 -28 21 -133 11 -217c-4 -38 -11 -72 -21 -106c-5 -20 -9 -41 -17 -60c-17 -42 -33 -85 -59 -125
c-24 -35 -92 -164 -254 -141c-13 2 -24 7 -38 15c-24 11 -45 29 -62 49c-12 12 -19 24 -28 40s-17 32 -24 50c-12 29 -20 60 -24 92c-16 119 12 207 14 220c4 22 3 23 -9 33c-19 16 -29 37 -31 62c-2 32 4 64 11 92c32 133 188 212 208 220c34 13 56 16 79 17zM324 733
c-41 1 -84 -8 -119 -29c-46 -24 -86 -55 -117 -98c-2 -2 -3 -5 -6 -7c-42 -51 -62 -108 -58 -172c0 -20 6 -36 26 -49c4 5 20 114 88 197c30 41 57 61 88 79c2 1 5 2 10 2c3 1 7 0 9 -4c3 -3 2 -9 -3 -12c-6 -4 -14 -7 -22 -13c-71 -55 -120 -128 -144 -224l-5 -27
c-1 -7 3 -11 18 -11c62 0 126 35 159 58c55 44 92 75 125 113c32 34 54 72 66 114c10 25 3 35 -23 39c-1 0 -1 0 -2 1c-10 0 -20 6 -21 17c-3 9 -9 15 -16 17c-19 4 -37 8 -53 9zM464 649c-3 -10 -12 -28 -16 -37c-23 -41 -48 -75 -80 -108c-26 -28 -52 -55 -80 -78
c-31 -27 -66 -49 -104 -65c-18 -9 -40 -16 -65 -21c-14 -3 -40 -6 -54 1c-2 1 -1 0 -5 -14c-3 -9 -4 -20 -5 -29c-6 -35 -11 -89 -3 -205c5 -38 16 -72 34 -106c13 -21 26 -43 45 -61c20 -19 42 -35 71 -42c25 -6 50 -7 75 -2c16 4 35 7 48 15c31 14 56 38 80 61
c35 41 67 101 87 159c30 91 43 173 44 204c4 33 0 145 -11 189c-7 29 -17 60 -34 95c-5 10 -10 23 -16 30c-3 6 -10 17 -11 14z" />
    <glyph glyph-name="Oacute" unicode="&#xd3;" horiz-adv-x="615" 
d="M344 880c7 2 13 6 16 -4c4 -6 7 -12 4 -19c0 -6 -7 -13 -16 -16c-23 -7 -45 -22 -64 -38c-7 -3 -10 -10 -13 -9c-7 -3 -14 -2 -17 2c-8 13 61 64 90 84zM301 750c18 1 36 0 53 -2c14 -2 29 -5 40 -12c9 -5 19 -7 28 -4c11 7 20 1 27 -8c4 -6 8 -12 12 -17
c2 -6 8 -12 10 -18c2 -10 5 -17 10 -25c30 -48 49 -101 64 -155c8 -28 21 -133 11 -217c-4 -38 -11 -72 -21 -106c-5 -20 -9 -41 -17 -60c-17 -42 -33 -85 -59 -125c-24 -35 -92 -164 -254 -141c-13 2 -24 7 -38 15c-24 11 -45 29 -62 49c-12 12 -19 24 -28 40
s-17 32 -24 50c-12 29 -20 60 -24 92c-16 119 12 207 14 220c4 22 3 23 -9 33c-19 16 -29 37 -31 62c-2 32 4 64 11 92c32 133 188 212 208 220c34 13 56 16 79 17zM324 733c-41 1 -84 -8 -119 -29c-46 -24 -86 -55 -117 -98c-2 -2 -3 -5 -6 -7c-42 -51 -62 -108 -58 -172
c0 -20 6 -36 26 -49c4 5 20 114 88 197c30 41 57 61 88 79c2 1 5 2 10 2c3 1 7 0 9 -4c3 -3 2 -9 -3 -12c-6 -4 -14 -7 -22 -13c-71 -55 -120 -128 -144 -224l-5 -27c-1 -7 3 -11 18 -11c62 0 126 35 159 58c55 44 92 75 125 113c32 34 54 72 66 114c10 25 3 35 -23 39
c-1 0 -1 0 -2 1c-10 0 -20 6 -21 17c-3 9 -9 15 -16 17c-19 4 -37 8 -53 9zM464 649c-3 -10 -12 -28 -16 -37c-23 -41 -48 -75 -80 -108c-26 -28 -52 -55 -80 -78c-31 -27 -66 -49 -104 -65c-18 -9 -40 -16 -65 -21c-14 -3 -40 -6 -54 1c-2 1 -1 0 -5 -14
c-3 -9 -4 -20 -5 -29c-6 -35 -11 -89 -3 -205c5 -38 16 -72 34 -106c13 -21 26 -43 45 -61c20 -19 42 -35 71 -42c25 -6 50 -7 75 -2c16 4 35 7 48 15c31 14 56 38 80 61c35 41 67 101 87 159c30 91 43 173 44 204c4 33 0 145 -11 189c-7 29 -17 60 -34 95
c-5 10 -10 23 -16 30c-3 6 -10 17 -11 14z" />
    <glyph glyph-name="Ocircumflex" unicode="&#xd4;" horiz-adv-x="615" 
d="M323 941c24 -20 45 -44 61 -72c1 -2 3 -6 2 -9c0 -2 -1 -6 -3 -7c-3 -4 -9 -2 -11 -1c-2 4 -4 7 -7 11c-9 11 -17 23 -26 33c-6 9 -14 16 -26 18c-11 -4 -15 -13 -22 -20c-12 -11 -22 -22 -33 -33c-3 -4 -9 -7 -13 -11c-5 -2 -9 -1 -11 2c-4 3 -3 8 -1 11l9 9
c23 20 45 39 61 66c5 6 13 7 20 3zM301 750c18 1 36 0 53 -2c14 -2 29 -5 40 -12c9 -5 19 -7 28 -4c11 7 20 1 27 -8c4 -6 8 -12 12 -17c2 -6 8 -12 10 -18c2 -10 5 -17 10 -25c30 -48 49 -101 64 -155c8 -28 21 -133 11 -217c-4 -38 -11 -72 -21 -106
c-5 -20 -9 -41 -17 -60c-17 -42 -33 -85 -59 -125c-24 -35 -92 -164 -254 -141c-13 2 -24 7 -38 15c-24 11 -45 29 -62 49c-12 12 -19 24 -28 40s-17 32 -24 50c-12 29 -20 60 -24 92c-16 119 12 207 14 220c4 22 3 23 -9 33c-19 16 -29 37 -31 62c-2 32 4 64 11 92
c32 133 188 212 208 220c34 13 56 16 79 17zM324 733c-41 1 -84 -8 -119 -29c-46 -24 -86 -55 -117 -98c-2 -2 -3 -5 -6 -7c-42 -51 -62 -108 -58 -172c0 -20 6 -36 26 -49c4 5 20 114 88 197c30 41 57 61 88 79c2 1 5 2 10 2c3 1 7 0 9 -4c3 -3 2 -9 -3 -12
c-6 -4 -14 -7 -22 -13c-71 -55 -120 -128 -144 -224l-5 -27c-1 -7 3 -11 18 -11c62 0 126 35 159 58c55 44 92 75 125 113c32 34 54 72 66 114c10 25 3 35 -23 39c-1 0 -1 0 -2 1c-10 0 -20 6 -21 17c-3 9 -9 15 -16 17c-19 4 -37 8 -53 9zM464 649c-3 -10 -12 -28 -16 -37
c-23 -41 -48 -75 -80 -108c-26 -28 -52 -55 -80 -78c-31 -27 -66 -49 -104 -65c-18 -9 -40 -16 -65 -21c-14 -3 -40 -6 -54 1c-2 1 -1 0 -5 -14c-3 -9 -4 -20 -5 -29c-6 -35 -11 -89 -3 -205c5 -38 16 -72 34 -106c13 -21 26 -43 45 -61c20 -19 42 -35 71 -42
c25 -6 50 -7 75 -2c16 4 35 7 48 15c31 14 56 38 80 61c35 41 67 101 87 159c30 91 43 173 44 204c4 33 0 145 -11 189c-7 29 -17 60 -34 95c-5 10 -10 23 -16 30c-3 6 -10 17 -11 14z" />
    <glyph glyph-name="Odieresis" unicode="&#xd6;" horiz-adv-x="615" 
d="M371 877c6 -4 11 -10 10 -21c-2 -20 -29 -18 -32 -15c-1 2 -7 6 -1 18c0 4 2 5 2 9c8 7 13 11 21 9zM256 874c6 -4 11 -10 10 -21c-2 -20 -29 -18 -32 -15c-1 2 -7 6 -1 18c0 4 2 5 2 9c8 7 13 11 21 9zM301 750c18 1 36 0 53 -2c14 -2 29 -5 40 -12c9 -5 19 -7 28 -4
c11 7 20 1 27 -8c4 -6 8 -12 12 -17c2 -6 8 -12 10 -18c2 -10 5 -17 10 -25c30 -48 49 -101 64 -155c8 -28 21 -133 11 -217c-4 -38 -11 -72 -21 -106c-5 -20 -9 -41 -17 -60c-17 -42 -33 -85 -59 -125c-24 -35 -92 -164 -254 -141c-13 2 -24 7 -38 15c-24 11 -45 29 -62 49
c-12 12 -19 24 -28 40s-17 32 -24 50c-12 29 -20 60 -24 92c-16 119 12 207 14 220c4 22 3 23 -9 33c-19 16 -29 37 -31 62c-2 32 4 64 11 92c32 133 188 212 208 220c34 13 56 16 79 17zM324 733c-41 1 -84 -8 -119 -29c-46 -24 -86 -55 -117 -98c-2 -2 -3 -5 -6 -7
c-42 -51 -62 -108 -58 -172c0 -20 6 -36 26 -49c4 5 20 114 88 197c30 41 57 61 88 79c2 1 5 2 10 2c3 1 7 0 9 -4c3 -3 2 -9 -3 -12c-6 -4 -14 -7 -22 -13c-71 -55 -120 -128 -144 -224l-5 -27c-1 -7 3 -11 18 -11c62 0 126 35 159 58c55 44 92 75 125 113
c32 34 54 72 66 114c10 25 3 35 -23 39c-1 0 -1 0 -2 1c-10 0 -20 6 -21 17c-3 9 -9 15 -16 17c-19 4 -37 8 -53 9zM464 649c-3 -10 -12 -28 -16 -37c-23 -41 -48 -75 -80 -108c-26 -28 -52 -55 -80 -78c-31 -27 -66 -49 -104 -65c-18 -9 -40 -16 -65 -21
c-14 -3 -40 -6 -54 1c-2 1 -1 0 -5 -14c-3 -9 -4 -20 -5 -29c-6 -35 -11 -89 -3 -205c5 -38 16 -72 34 -106c13 -21 26 -43 45 -61c20 -19 42 -35 71 -42c25 -6 50 -7 75 -2c16 4 35 7 48 15c31 14 56 38 80 61c35 41 67 101 87 159c30 91 43 173 44 204c4 33 0 145 -11 189
c-7 29 -17 60 -34 95c-5 10 -10 23 -16 30c-3 6 -10 17 -11 14z" />
    <glyph glyph-name="Ograve" unicode="&#xd2;" horiz-adv-x="615" 
d="M265 885c6 3 15 0 22 -7c17 -17 40 -30 63 -40c6 -5 13 -4 14 -7c6 -5 8 -12 6 -16c-8 -13 -85 25 -116 42c-5 5 -11 9 -4 16c4 6 8 12 15 12zM301 750c18 1 36 0 53 -2c14 -2 29 -5 40 -12c9 -5 19 -7 28 -4c11 7 20 1 27 -8c4 -6 8 -12 12 -17c2 -6 8 -12 10 -18
c2 -10 5 -17 10 -25c30 -48 49 -101 64 -155c8 -28 21 -133 11 -217c-4 -38 -11 -72 -21 -106c-5 -20 -9 -41 -17 -60c-17 -42 -33 -85 -59 -125c-24 -35 -92 -164 -254 -141c-13 2 -24 7 -38 15c-24 11 -45 29 -62 49c-12 12 -19 24 -28 40s-17 32 -24 50
c-12 29 -20 60 -24 92c-16 119 12 207 14 220c4 22 3 23 -9 33c-19 16 -29 37 -31 62c-2 32 4 64 11 92c32 133 188 212 208 220c34 13 56 16 79 17zM324 733c-41 1 -84 -8 -119 -29c-46 -24 -86 -55 -117 -98c-2 -2 -3 -5 -6 -7c-42 -51 -62 -108 -58 -172
c0 -20 6 -36 26 -49c4 5 20 114 88 197c30 41 57 61 88 79c2 1 5 2 10 2c3 1 7 0 9 -4c3 -3 2 -9 -3 -12c-6 -4 -14 -7 -22 -13c-71 -55 -120 -128 -144 -224l-5 -27c-1 -7 3 -11 18 -11c62 0 126 35 159 58c55 44 92 75 125 113c32 34 54 72 66 114c10 25 3 35 -23 39
c-1 0 -1 0 -2 1c-10 0 -20 6 -21 17c-3 9 -9 15 -16 17c-19 4 -37 8 -53 9zM464 649c-3 -10 -12 -28 -16 -37c-23 -41 -48 -75 -80 -108c-26 -28 -52 -55 -80 -78c-31 -27 -66 -49 -104 -65c-18 -9 -40 -16 -65 -21c-14 -3 -40 -6 -54 1c-2 1 -1 0 -5 -14
c-3 -9 -4 -20 -5 -29c-6 -35 -11 -89 -3 -205c5 -38 16 -72 34 -106c13 -21 26 -43 45 -61c20 -19 42 -35 71 -42c25 -6 50 -7 75 -2c16 4 35 7 48 15c31 14 56 38 80 61c35 41 67 101 87 159c30 91 43 173 44 204c4 33 0 145 -11 189c-7 29 -17 60 -34 95
c-5 10 -10 23 -16 30c-3 6 -10 17 -11 14z" />
    <glyph glyph-name="Oslash" unicode="&#xd8;" horiz-adv-x="615" 
d="M301 755c18 1 36 0 53 -2c14 -2 29 -5 40 -12c9 -5 19 -7 28 -4c11 7 20 1 27 -8c4 -6 8 -11 11 -16c5 11 8 23 12 35c5 5 10 7 15 4l5 -9c-4 -8 -7 -17 -9 -26c-3 -8 -7 -18 -11 -27c2 -8 5 -14 9 -21c30 -48 49 -101 64 -155c8 -28 21 -133 11 -217
c-4 -38 -11 -72 -21 -106c-5 -20 -9 -41 -17 -60c-17 -42 -33 -85 -59 -125c-24 -35 -92 -164 -254 -141c-13 2 -24 7 -38 15c-24 11 -44 28 -61 48c-2 -2 -4 -3 -7 -4c0 -3 -2 -1 -4 -3c-4 2 -8 1 -8 7c2 6 3 11 6 15c-6 8 -10 16 -16 26c-9 16 -17 32 -24 50
c-12 29 -20 60 -24 92c-16 119 12 207 14 220c4 22 3 23 -9 33c-19 16 -29 37 -31 62c-2 32 4 64 11 92c32 133 188 212 208 220c34 13 56 16 79 17zM324 738c-41 1 -84 -8 -119 -29c-46 -24 -86 -55 -117 -98c-2 -2 -3 -5 -6 -7c-42 -51 -62 -108 -58 -172
c0 -20 6 -36 26 -49c4 5 20 114 88 197c30 41 57 61 88 79c2 1 5 2 10 2c3 1 7 0 9 -4c3 -3 2 -9 -3 -12c-6 -4 -14 -7 -22 -13c-71 -55 -120 -128 -144 -224l-5 -27c-1 -7 3 -11 18 -11c62 0 126 35 159 58c55 44 92 75 125 113c8 8 15 17 21 25l49 112c-2 9 -11 14 -27 16
c-1 0 -1 0 -2 1c-10 0 -20 6 -21 17c-3 9 -9 15 -16 17c-19 4 -37 8 -53 9zM464 654c-3 -10 -12 -28 -16 -37c-9 -17 -19 -33 -30 -48c-39 -90 -87 -201 -88 -205l-3 -2s-3 -3 -6 -11c-6 -12 -11 -25 -17 -36l-126 -260l-14 -27c-18 -26 -25 -49 -45 -82l-1 -1
c4 -5 8 -10 13 -14c20 -19 42 -35 71 -42c25 -6 50 -7 75 -2c16 4 35 7 48 15c31 14 56 38 80 61c35 41 67 101 87 159c30 91 43 173 44 204c4 33 0 145 -11 189c-7 29 -17 60 -34 95c-5 10 -10 23 -16 30c-3 6 -10 17 -11 14zM371 512l-3 -3c-26 -28 -52 -55 -80 -78
c-31 -27 -66 -49 -104 -65c-18 -9 -40 -16 -65 -21c-14 -3 -40 -6 -54 1c-2 1 -1 0 -5 -14c-3 -9 -4 -20 -5 -29c-6 -35 -11 -89 -3 -205c5 -38 16 -72 34 -106c6 -10 12 -20 19 -30c9 15 20 32 30 50c8 10 14 23 21 34c8 18 145 298 152 321z" />
    <glyph glyph-name="Otilde" unicode="&#xd5;" horiz-adv-x="615" 
d="M422 886c5 0 8 -4 8 -8c2 -2 2 -2 2 -4c-4 -23 -10 -45 -26 -65c-9 -11 -20 -16 -37 -16c-13 0 -26 5 -38 15l-30 28c-8 8 -19 15 -30 17c-25 5 -45 2 -62 -17c-5 -7 -10 -15 -15 -23c-3 -7 -8 -11 -11 -7c-5 3 -5 10 -4 15c12 35 52 60 88 53c7 -1 13 -3 18 -6
c11 -8 22 -17 32 -25c8 -7 16 -15 25 -22c21 -13 44 -8 55 13c6 9 8 21 12 31c2 5 2 11 5 16c1 2 5 5 8 5zM301 750c18 1 36 0 53 -2c14 -2 29 -5 40 -12c9 -5 19 -7 28 -4c11 7 20 1 27 -8c4 -6 8 -12 12 -17c2 -6 8 -12 10 -18c2 -10 5 -17 10 -25c30 -48 49 -101 64 -155
c8 -28 21 -133 11 -217c-4 -38 -11 -72 -21 -106c-5 -20 -9 -41 -17 -60c-17 -42 -33 -85 -59 -125c-24 -35 -92 -164 -254 -141c-13 2 -24 7 -38 15c-24 11 -45 29 -62 49c-12 12 -19 24 -28 40s-17 32 -24 50c-12 29 -20 60 -24 92c-16 119 12 207 14 220c4 22 3 23 -9 33
c-19 16 -29 37 -31 62c-2 32 4 64 11 92c32 133 188 212 208 220c34 13 56 16 79 17zM324 733c-41 1 -84 -8 -119 -29c-46 -24 -86 -55 -117 -98c-2 -2 -3 -5 -6 -7c-42 -51 -62 -108 -58 -172c0 -20 6 -36 26 -49c4 5 20 114 88 197c30 41 57 61 88 79c2 1 5 2 10 2
c3 1 7 0 9 -4c3 -3 2 -9 -3 -12c-6 -4 -14 -7 -22 -13c-71 -55 -120 -128 -144 -224l-5 -27c-1 -7 3 -11 18 -11c62 0 126 35 159 58c55 44 92 75 125 113c32 34 54 72 66 114c10 25 3 35 -23 39c-1 0 -1 0 -2 1c-10 0 -20 6 -21 17c-3 9 -9 15 -16 17c-19 4 -37 8 -53 9z
M464 649c-3 -10 -12 -28 -16 -37c-23 -41 -48 -75 -80 -108c-26 -28 -52 -55 -80 -78c-31 -27 -66 -49 -104 -65c-18 -9 -40 -16 -65 -21c-14 -3 -40 -6 -54 1c-2 1 -1 0 -5 -14c-3 -9 -4 -20 -5 -29c-6 -35 -11 -89 -3 -205c5 -38 16 -72 34 -106c13 -21 26 -43 45 -61
c20 -19 42 -35 71 -42c25 -6 50 -7 75 -2c16 4 35 7 48 15c31 14 56 38 80 61c35 41 67 101 87 159c30 91 43 173 44 204c4 33 0 145 -11 189c-7 29 -17 60 -34 95c-5 10 -10 23 -16 30c-3 6 -10 17 -11 14z" />
    <glyph glyph-name="OE" unicode="&#x152;" horiz-adv-x="1158" 
d="M301 750c18 1 36 0 53 -2c14 -2 29 -5 40 -12c9 -5 19 -7 28 -4c11 7 20 1 27 -8c4 -6 8 -12 12 -17c2 -6 8 -12 10 -18c2 -10 5 -17 10 -25c30 -48 49 -101 64 -155c8 -28 21 -133 11 -217c-4 -38 -11 -72 -21 -106c-5 -20 -9 -41 -17 -60c-17 -42 -33 -85 -59 -125
c-24 -35 -92 -164 -254 -141c-13 2 -24 7 -38 15c-24 11 -45 29 -62 49c-12 12 -19 24 -28 40s-17 32 -24 50c-12 29 -20 60 -24 92c-16 119 12 207 14 220c4 22 3 23 -9 33c-19 16 -29 37 -31 62c-2 32 4 64 11 92c32 133 188 212 208 220c34 13 56 16 79 17zM324 733
c-41 1 -84 -8 -119 -29c-46 -24 -86 -55 -117 -98c-2 -2 -3 -5 -6 -7c-42 -51 -62 -108 -58 -172c0 -20 6 -36 26 -49c4 5 20 114 88 197c30 41 57 61 88 79c2 1 5 2 10 2c3 1 7 0 9 -4c3 -3 2 -9 -3 -12c-6 -4 -14 -7 -22 -13c-71 -55 -120 -128 -144 -224l-5 -27
c-1 -7 3 -11 18 -11c62 0 126 35 159 58c55 44 92 75 125 113c32 34 54 72 66 114c10 25 3 35 -23 39c-1 0 -1 0 -2 1c-10 0 -20 6 -21 17c-3 9 -9 15 -16 17c-19 4 -37 8 -53 9zM917 685c36 -13 75 -57 91 -97c5 -13 5 -26 7 -39c0 -3 0 -8 -1 -11c-1 -5 -5 -8 -9 -8
s-9 2 -10 3c-3 3 -4 8 -3 13c-5 53 -45 104 -85 124c-53 23 -137 -2 -195 -76c-9 -12 -16 -25 -22 -36c-30 -60 -46 -158 -44 -186c0 -13 3 -22 3 -35c10 -40 44 -60 80 -54c19 4 62 28 82 42c42 28 92 62 132 83c11 9 23 13 35 20c7 1 15 -1 18 -8c7 -8 6 -20 -3 -25
c-5 -2 -9 -4 -13 -7c-37 -14 -84 -42 -117 -69c-57 -45 -83 -73 -98 -92c-29 -35 -52 -74 -79 -116c-25 -43 -46 -91 -60 -145c-8 -28 -9 -61 0 -90c5 -14 11 -22 20 -30c27 -20 50 -14 78 -10c67 11 214 71 301 149c46 41 109 119 132 157c4 7 12 19 15 29
c6 9 14 20 16 -10c-17 -35 -37 -67 -57 -95c-56 -77 -159 -154 -200 -176c-62 -33 -210 -96 -268 -80c-41 11 -69 69 -68 112c1 32 13 69 25 102c9 26 23 55 40 85c11 20 21 37 32 55c16 25 31 48 50 71c6 10 34 29 48 50c-18 -10 -49 -24 -60 -27c-14 -3 -70 -7 -88 35
c-31 71 -17 151 2 200l10 28c21 55 47 115 133 163c33 18 82 20 130 1zM464 649c-3 -10 -12 -28 -16 -37c-23 -41 -48 -75 -80 -108c-26 -28 -52 -55 -80 -78c-31 -27 -66 -49 -104 -65c-18 -9 -40 -16 -65 -21c-14 -3 -40 -6 -54 1c-2 1 -1 0 -5 -14c-3 -9 -4 -20 -5 -29
c-6 -35 -11 -89 -3 -205c5 -38 16 -72 34 -106c13 -21 26 -43 45 -61c20 -19 42 -35 71 -42c25 -6 50 -7 75 -2c16 4 35 7 48 15c31 14 56 38 80 61c35 41 67 101 87 159c30 91 43 173 44 204c4 33 0 145 -11 189c-7 29 -17 60 -34 95c-5 10 -10 23 -16 30
c-3 6 -10 17 -11 14z" />
    <glyph glyph-name="P" unicode="P" 
d="M614 795c54 0 84 -32 95 -87c17 -72 2 -140 -35 -206c-57 -83 -131 -143 -210 -185c-65 -36 -108 -55 -210 -76c-4 0 -2 -37 -4 -53c-1 -73 0 -150 -4 -224c-2 -23 -1 -47 -5 -78c1 -7 -2 -14 -7 -14c-5 1 -14 6 -11 19c1 4 1 14 2 19c0 30 2 59 3 89c3 63 6 124 3 183
c0 14 1 40 1 58c-12 0 -105 0 -140 10c-41 9 -74 28 -100 63c-37 37 -28 111 14 141c30 21 34 6 0 -22c-23 -31 -26 -69 -3 -100c17 -27 56 -50 89 -59c29 -7 67 -11 99 -11c38 -2 43 3 43 3c-1 85 4 219 3 303c0 50 1 101 -1 155c1 10 0 26 11 34c10 -3 9 -17 8 -29
c2 -102 -2 -238 -1 -347c7 22 25 62 32 83c19 58 44 109 74 159c27 44 58 85 96 116c48 39 99 64 158 56zM591 777c-74 -5 -136 -55 -181 -121c-75 -96 -124 -224 -152 -325c-3 -14 -2 -35 -5 -67c47 0 155 32 278 118c50 34 94 82 123 123c39 62 51 123 34 196
c-16 57 -44 81 -97 76z" />
    <glyph glyph-name="Thorn" unicode="&#xde;" 
d="M247 827c10 -3 8 -17 8 -29c2 -132 -2 -438 -1 -547c7 22 25 62 32 83c19 58 44 109 74 159c27 44 58 85 96 116c48 39 99 64 158 56c54 0 84 -32 95 -87c17 -72 2 -140 -35 -206c-57 -83 -131 -143 -210 -185c-65 -36 -108 -55 -210 -76c-4 0 -4 -37 -4 -53
c-1 -53 0 -40 -4 -114c-2 -23 -1 -47 -5 -78c1 -7 -2 -14 -7 -14c-5 1 -14 6 -11 19c1 4 1 14 2 19c0 30 2 59 3 89c3 63 6 34 3 73c-1 14 1 40 1 58c-12 0 -105 0 -140 10c-41 9 -74 28 -100 63c-37 37 -28 111 14 141c30 21 34 6 0 -22c-23 -31 -26 -69 -3 -100
c17 -27 56 -50 89 -59c29 -7 67 -11 99 -11c38 -2 43 3 43 3c-1 85 4 389 3 473c0 50 1 101 -1 185c0 10 0 26 11 34zM591 647c-74 -5 -136 -55 -181 -121c-75 -96 -124 -224 -152 -325c-3 -14 -2 -35 -5 -67c47 0 155 32 278 118c50 34 94 82 123 123c39 62 51 123 34 196
c-16 57 -44 81 -97 76z" />
    <glyph glyph-name="Q" unicode="Q" horiz-adv-x="793" 
d="M414 806c18 1 36 0 53 -2c14 -2 29 -5 40 -12c9 -5 19 -7 28 -4c11 7 20 1 27 -8c4 -6 8 -12 12 -17c2 -6 8 -12 10 -18c2 -10 5 -17 10 -25c30 -48 49 -101 64 -155c8 -28 21 -133 11 -217c-4 -38 -11 -72 -21 -106c-5 -20 -9 -41 -17 -60c-17 -42 -33 -88 -59 -128
c-1 -2 -3 -5 -5 -7l4 -11c29 -51 64 -97 102 -135c20 -20 46 -46 77 -67c30 -21 62 -37 97 -43c11 -2 22 -3 33 -4c72 -2 136 25 177 79c17 23 26 42 31 67v3c0 1 1 1 1 2l1 1v1c2 7 10 20 22 13v-1c11 -12 10 -29 -1 -43c-9 -11 -17 -22 -24 -35c-27 -47 -69 -80 -123 -99
c-39 -12 -77 -14 -117 -7l-10 2c-42 11 -79 30 -118 59c-42 34 -83 77 -125 131c-12 14 -24 32 -36 54c-2 3 -4 8 -7 12v1c-19 -25 -40 -49 -68 -67c-2 -2 -5 -4 -8 -5c-28 -28 -93 -48 -157 -39c-13 2 -24 7 -38 15c-24 11 -45 29 -62 49c-12 12 -19 24 -28 40
s-17 32 -24 50c-12 29 -20 60 -24 92c-16 119 13 207 14 220c1 22 1 24 -9 33c-19 17 -29 37 -31 62c-2 32 4 64 11 92c32 133 188 212 208 220c34 13 56 16 79 17zM437 789c-41 1 -84 -8 -119 -29c-46 -24 -86 -55 -117 -98c-2 -2 -3 -5 -6 -7c-42 -51 -62 -108 -58 -172
c0 -20 6 -36 26 -49c4 5 26 92 48 124c3 5 3 8 6 12c14 25 17 35 34 61c30 41 57 61 88 79c2 1 5 2 10 2c3 1 7 0 9 -4c3 -3 2 -9 -3 -12c-6 -4 -14 -7 -22 -13c-30 -20 -57 -39 -73 -70c-31 -48 -57 -99 -71 -154c-1 -6 -5 -21 -5 -27c0 -3 3 -11 18 -11
c62 0 127 39 159 58c55 44 92 75 125 113c32 34 54 72 66 114c10 25 3 35 -23 39c-1 0 -1 0 -2 1c-10 0 -20 6 -21 17c-3 9 -9 15 -16 17c-19 4 -37 8 -53 9zM577 705c-3 -10 -12 -28 -16 -37c-23 -41 -48 -75 -80 -108c-26 -28 -52 -55 -80 -78c-31 -27 -66 -46 -104 -62
c-18 -9 -40 -18 -65 -21c-14 -2 -29 -2 -44 -2c-9 0 -11 1 -15 -14c-3 -9 -4 -20 -5 -29c-6 -35 -7 -69 -10 -102c-2 -19 1 -38 2 -59c3 -14 3 -28 5 -44c5 -38 16 -72 34 -106c13 -21 26 -43 45 -61c20 -19 42 -35 71 -42c25 -6 50 -7 75 -2c16 4 35 7 48 15
c31 14 56 38 80 61c9 10 18 20 26 30c-3 7 -7 12 -11 17c-1 1 -1 1 -1 2c-1 3 -2 5 -4 8l-5 9c-7 14 -13 27 -19 41c-14 40 -32 73 -55 104c-11 12 -24 26 -42 29c-2 0 -3 1 -6 0l-12 2c-5 2 -10 8 -11 12v1c0 3 0 7 3 10c2 3 6 5 10 4c5 1 13 1 20 0h1c28 -8 52 -28 70 -60
c8 -15 16 -31 23 -47c3 -5 5 -11 8 -17c2 -4 4 -8 5 -12l9 -18l8 -18c3 -10 7 -19 12 -26v-1c1 -1 1 -3 2 -4c2 -8 5 -12 8 -15c15 26 42 83 51 108c30 91 42 173 43 204c4 33 -2 145 -13 189c-7 29 -17 60 -34 95c-5 10 -10 23 -16 30c-3 6 -10 17 -11 14z" />
    <glyph glyph-name="R" unicode="R" horiz-adv-x="630" 
d="M511 771c28 -3 49 -21 67 -42c14 -19 22 -36 25 -58c10 -71 -3 -136 -43 -197c-44 -65 -94 -115 -162 -155c-54 -28 -111 -50 -172 -64c-17 -3 -36 -7 -54 -11c11 -14 22 -25 37 -42c17 -22 35 -44 53 -69c32 -40 61 -83 97 -122l19 -24l6 -6c39 -46 86 -80 145 -94
c38 -10 71 -10 111 -10c11 0 26 1 38 4c15 4 29 11 40 19c3 1 8 8 11 9c10 6 20 2 25 -4c6 -9 2 -18 -6 -27c-3 -2 -9 -5 -15 -7c-67 -20 -134 -23 -200 -7c-27 7 -52 16 -73 29c-34 19 -58 41 -83 67c-15 13 -28 26 -40 43c-10 14 -25 30 -36 44c-14 21 -32 43 -50 65
c-29 35 -57 75 -89 110c-15 15 -37 25 -58 22h-45c-1 -7 -2 -14 -2 -22c-3 -42 -7 -82 -10 -125c-4 -54 -4 -107 3 -161v-22c-4 -7 -7 -11 -10 -11c-4 0 -8 5 -11 11c-4 4 -4 11 -4 14c0 50 -3 97 -3 147c0 25 3 50 3 76c4 32 4 58 7 90c0 11 -3 14 -10 21
c-11 7 -23 19 -22 32c6 18 26 17 36 22c-1 3 -1 15 -1 21c0 32 -2 62 -4 90c-2 36 -4 72 -4 108c0 32 -5 65 -16 93c-8 15 -4 25 4 29c11 2 14 -7 17 -22c4 -25 11 -50 11 -75c4 -47 5 -94 5 -136c0 -33 4 -65 4 -97c0 -3 0 -4 1 -11c7 0 12 -1 12 3c7 25 10 50 18 72
c4 15 7 25 14 40c10 25 25 54 40 79c11 21 26 43 43 65c6 10 16 21 28 34c32 40 72 76 115 104c36 26 71 44 115 54c25 8 51 8 73 4zM474 750c-43 -7 -83 -18 -118 -43c-62 -36 -115 -86 -159 -140c-14 -18 -25 -36 -35 -54c-25 -39 -43 -82 -61 -129
c-7 -25 -13 -47 -18 -72c4 -2 8 -2 12 -5c17 -7 27 -20 42 -34c3 -4 14 -5 21 -4c14 0 29 2 43 4c43 7 83 21 122 32c25 9 43 19 65 32c60 32 107 79 143 134c14 17 25 35 32 57c12 28 18 60 18 93c4 32 -3 61 -18 89c-3 5 -7 11 -11 15c-25 21 -46 29 -78 25zM75 277l-2 -3
c4 -4 10 -5 17 -5l-1 4c-3 4 -10 4 -14 4z" />
    <glyph glyph-name="S" unicode="S" horiz-adv-x="477" 
d="M224 770c28 2 55 -4 83 -13c9 -1 16 -7 22 -10c31 -18 59 -58 77 -97c19 -44 18 -89 10 -134c-4 -17 -6 -31 -12 -44c-6 -20 -15 -37 -26 -54c-10 -13 -23 -13 -24 -4c-2 9 4 20 9 28c25 32 35 73 37 109c1 45 -8 85 -31 123c-37 54 -93 80 -151 77
c-37 1 -74 -14 -104 -33c-45 -25 -78 -58 -103 -105c-13 -29 -21 -61 -27 -92c-3 -26 2 -52 9 -75c14 -47 43 -74 80 -105c25 -17 54 -38 81 -55c25 -12 48 -31 71 -46c5 0 15 -12 18 -10c25 7 172 72 247 77c16 3 33 1 48 -1c20 -2 29 -12 27 -35c1 -2 -3 -5 -3 -7
c-21 -5 -29 17 -47 26c-60 1 -186 -45 -245 -73l-11 -5c6 -8 16 -14 19 -20c18 -21 34 -48 46 -73c3 -10 8 -21 10 -32c9 -59 -4 -110 -49 -153c-31 -29 -67 -50 -106 -63c-33 -12 -64 -14 -96 -2c-44 17 -61 62 -59 96c3 32 15 63 29 90c4 10 10 18 17 29
c13 23 32 40 51 56c9 7 15 15 26 23c21 15 44 33 67 50c5 4 7 4 5 6c-4 4 -16 11 -20 13c-27 16 -55 38 -86 56c-27 19 -64 39 -93 70c-36 43 -59 84 -58 142c-1 20 1 38 6 56c6 33 18 66 37 93c20 35 65 73 104 94c16 11 35 17 52 21c21 5 43 5 63 6zM236 200
c-3 3 -54 -34 -101 -75c-42 -39 -72 -80 -83 -139c-3 -11 -5 -25 -4 -39c5 -32 29 -56 61 -61c16 -1 49 -1 67 6c137 52 209 177 60 308z" />
    <glyph glyph-name="T" unicode="T" horiz-adv-x="409" 
d="M47 728c60 19 120 25 151 -35c6 -8 7 -21 13 -31l6 -25c3 -5 85 9 108 9l80 11c16 1 33 4 48 6c11 1 23 4 34 5c18 1 34 4 51 6c18 2 34 8 106 22h9l13 -2c13 -10 8 -22 6 -25c-2 -5 -10 -8 -33 -6l-18 1l-12 -1l-383 -48c-3 1 -5 0 -7 -1l1 -4c-1 -4 -2 -85 -3 -104
l-1 -42c-4 -27 -13 -218 -22 -307v-7c-2 -27 -5 -56 -4 -83c1 -32 -5 -95 -2 -125v-28c0 -11 -2 -20 1 -31v-28c0 -7 0 -12 -2 -18c-2 -4 -7 -7 -12 -7c-4 -1 -4 5 -5 8c-1 6 -4 14 -3 22c-1 19 -1 39 1 56l2 161c3 28 3 54 5 79l4 71c4 16 8 32 20 347c1 3 1 7 0 11
c1 10 0 20 -2 28l-146 -2c-12 1 -74 6 -91 9c-18 2 -28 8 -33 19l-1 2c-8 14 14 31 34 45c30 18 57 30 87 42zM107 722c-5 0 -12 -2 -16 -1c-40 -8 -78 -25 -113 -47c-8 -5 -17 -11 -22 -19c-1 -2 -4 -5 -3 -7c1 -3 8 -9 24 -11c8 -3 19 -2 26 -3l77 -4c15 -1 28 1 42 1
l72 2c0 1 0 1 1 1c0 17 -13 39 -19 53c-10 20 -41 34 -69 35z" />
    <glyph glyph-name="U" unicode="U" horiz-adv-x="535" 
d="M481 721c8 -2 8 -5 11 -8c2 -5 -2 -20 -3 -30c-6 -54 -11 -108 -17 -163c-8 -44 -13 -88 -32 -204c-5 -25 -5 -55 -5 -83c0 -6 1 -12 0 -18c-2 -41 -4 -81 -2 -124c1 -18 5 -38 8 -58c16 -61 41 -116 81 -163c22 -28 51 -47 83 -61c12 -5 28 -7 43 -7c10 1 21 1 34 4
c5 1 12 4 19 8l20 18c7 6 5 -37 -28 -49c-7 -3 -16 -5 -23 -6c-7 -2 -11 -2 -18 -2c-27 1 -54 6 -78 18c-19 12 -40 25 -56 45c-12 15 -27 31 -39 48c-21 33 -35 66 -47 103l-4 13c-6 18 -8 31 -11 48c-5 23 -7 50 -8 73c-1 8 1 16 0 24c1 23 0 46 1 69c0 14 2 29 2 42
c1 18 4 50 4 52c0 13 -24 -83 -52 -143l-25 -51c-10 -21 -46 -61 -60 -71c-24 -25 -49 -38 -84 -42c-6 -1 -13 0 -18 0c-19 0 -59 17 -76 32l-13 12c-14 11 -21 29 -29 45c-43 91 4 362 8 396c3 28 3 57 1 88c-4 8 -3 18 -2 27c0 4 2 8 4 9c4 5 11 5 15 0c3 -4 4 -7 5 -13
c0 -6 1 -14 2 -23c0 -66 -28 -250 -30 -378c0 -28 7 -56 11 -82c5 -21 30 -84 123 -88c28 2 39 12 55 23c75 51 119 174 139 245c20 103 37 144 59 309c4 33 8 65 13 93c0 6 1 13 5 19c3 4 10 5 14 4z" />
    <glyph glyph-name="Uacute" unicode="&#xda;" horiz-adv-x="535" 
d="M324 830c7 2 13 6 16 -4c4 -6 7 -12 4 -19c0 -6 -7 -13 -16 -16c-23 -7 -45 -22 -64 -38c-7 -3 -10 -10 -13 -9c-7 -3 -14 -2 -17 2c-8 13 61 64 90 84zM481 721c8 -2 8 -5 11 -8c2 -5 -2 -20 -3 -30c-6 -54 -11 -108 -17 -163c-8 -44 -13 -88 -32 -204
c-5 -25 -5 -55 -5 -83c0 -6 1 -12 0 -18c-2 -41 -4 -81 -2 -124c1 -18 5 -38 8 -58c16 -61 41 -116 81 -163c22 -28 51 -47 83 -61c12 -5 28 -7 43 -7c10 1 21 1 34 4c5 1 12 4 19 8l20 18c7 6 5 -37 -28 -49c-7 -3 -16 -5 -23 -6c-7 -2 -11 -2 -18 -2c-27 1 -54 6 -78 18
c-19 12 -40 25 -56 45c-12 15 -27 31 -39 48c-21 33 -35 66 -47 103l-4 13c-6 18 -8 31 -11 48c-5 23 -7 50 -8 73c-1 8 1 16 0 24c1 23 0 46 1 69c0 14 2 29 2 42c1 18 4 50 4 52c0 13 -24 -83 -52 -143l-25 -51c-10 -21 -46 -61 -60 -71c-24 -25 -49 -38 -84 -42
c-6 -1 -13 0 -18 0c-19 0 -59 17 -76 32l-13 12c-14 11 -21 29 -29 45c-43 91 4 362 8 396c3 28 3 57 1 88c-4 8 -3 18 -2 27c0 4 2 8 4 9c4 5 11 5 15 0c3 -4 4 -7 5 -13c0 -6 1 -14 2 -23c0 -66 -28 -250 -30 -378c0 -28 7 -56 11 -82c5 -21 30 -84 123 -88
c28 2 39 12 55 23c75 51 119 174 139 245c20 103 37 144 59 309c4 33 8 65 13 93c0 6 1 13 5 19c3 4 10 5 14 4z" />
    <glyph glyph-name="Ucircumflex" unicode="&#xdb;" horiz-adv-x="535" 
d="M312 814c24 -20 45 -44 61 -72c1 -2 3 -6 2 -9c0 -2 -1 -6 -3 -7c-3 -4 -9 -2 -11 -1c-2 4 -4 7 -7 11c-9 11 -17 23 -26 33c-6 9 -14 16 -26 18c-11 -4 -15 -13 -22 -20c-12 -11 -22 -22 -33 -33c-3 -4 -9 -7 -13 -11c-5 -2 -9 -1 -11 2c-4 3 -3 8 -1 11l9 9
c23 20 45 39 61 66c5 6 13 7 20 3zM481 721c8 -2 8 -5 11 -8c2 -5 -2 -20 -3 -30c-6 -54 -11 -108 -17 -163c-8 -44 -13 -88 -32 -204c-5 -25 -5 -55 -5 -83c0 -6 1 -12 0 -18c-2 -41 -4 -81 -2 -124c1 -18 5 -38 8 -58c16 -61 41 -116 81 -163c22 -28 51 -47 83 -61
c12 -5 28 -7 43 -7c10 1 21 1 34 4c5 1 12 4 19 8l20 18c7 6 5 -37 -28 -49c-7 -3 -16 -5 -23 -6c-7 -2 -11 -2 -18 -2c-27 1 -54 6 -78 18c-19 12 -40 25 -56 45c-12 15 -27 31 -39 48c-21 33 -35 66 -47 103l-4 13c-6 18 -8 31 -11 48c-5 23 -7 50 -8 73c-1 8 1 16 0 24
c1 23 0 46 1 69c0 14 2 29 2 42c1 18 4 50 4 52c0 13 -24 -83 -52 -143l-25 -51c-10 -21 -46 -61 -60 -71c-24 -25 -49 -38 -84 -42c-6 -1 -13 0 -18 0c-19 0 -59 17 -76 32l-13 12c-14 11 -21 29 -29 45c-43 91 4 362 8 396c3 28 3 57 1 88c-4 8 -3 18 -2 27c0 4 2 8 4 9
c4 5 11 5 15 0c3 -4 4 -7 5 -13c0 -6 1 -14 2 -23c0 -66 -28 -250 -30 -378c0 -28 7 -56 11 -82c5 -21 30 -84 123 -88c28 2 39 12 55 23c75 51 119 174 139 245c20 103 37 144 59 309c4 33 8 65 13 93c0 6 1 13 5 19c3 4 10 5 14 4z" />
    <glyph glyph-name="Udieresis" unicode="&#xdc;" horiz-adv-x="535" 
d="M371 806c6 -4 11 -10 10 -21c-2 -20 -29 -18 -32 -15c-1 2 -7 6 -1 18c0 4 2 5 2 9c8 7 13 11 21 9zM256 803c6 -4 11 -10 10 -21c-2 -20 -29 -18 -32 -15c-1 2 -7 6 -1 18c0 4 2 5 2 9c8 7 13 11 21 9zM481 721c8 -2 8 -5 11 -8c2 -5 -2 -20 -3 -30
c-6 -54 -11 -108 -17 -163c-8 -44 -13 -88 -32 -204c-5 -25 -5 -55 -5 -83c0 -6 1 -12 0 -18c-2 -41 -4 -81 -2 -124c1 -18 5 -38 8 -58c16 -61 41 -116 81 -163c22 -28 51 -47 83 -61c12 -5 28 -7 43 -7c10 1 21 1 34 4c5 1 12 4 19 8l20 18c7 6 5 -37 -28 -49
c-7 -3 -16 -5 -23 -6c-7 -2 -11 -2 -18 -2c-27 1 -54 6 -78 18c-19 12 -40 25 -56 45c-12 15 -27 31 -39 48c-21 33 -35 66 -47 103l-4 13c-6 18 -8 31 -11 48c-5 23 -7 50 -8 73c-1 8 1 16 0 24c1 23 0 46 1 69c0 14 2 29 2 42c1 18 4 50 4 52c0 13 -24 -83 -52 -143
l-25 -51c-10 -21 -46 -61 -60 -71c-24 -25 -49 -38 -84 -42c-6 -1 -13 0 -18 0c-19 0 -59 17 -76 32l-13 12c-14 11 -21 29 -29 45c-43 91 4 362 8 396c3 28 3 57 1 88c-4 8 -3 18 -2 27c0 4 2 8 4 9c4 5 11 5 15 0c3 -4 4 -7 5 -13c0 -6 1 -14 2 -23
c0 -66 -28 -250 -30 -378c0 -28 7 -56 11 -82c5 -21 30 -84 123 -88c28 2 39 12 55 23c75 51 119 174 139 245c20 103 37 144 59 309c4 33 8 65 13 93c0 6 1 13 5 19c3 4 10 5 14 4z" />
    <glyph glyph-name="Ugrave" unicode="&#xd9;" horiz-adv-x="535" 
d="M235 814c6 3 15 0 22 -7c17 -17 40 -30 63 -40c6 -5 13 -4 14 -7c6 -5 8 -12 6 -16c-8 -13 -85 25 -116 42c-5 5 -11 9 -4 16c4 6 8 12 15 12zM481 721c8 -2 8 -5 11 -8c2 -5 -2 -20 -3 -30c-6 -54 -11 -108 -17 -163c-8 -44 -13 -88 -32 -204c-5 -25 -5 -55 -5 -83
c0 -6 1 -12 0 -18c-2 -41 -4 -81 -2 -124c1 -18 5 -38 8 -58c16 -61 41 -116 81 -163c22 -28 51 -47 83 -61c12 -5 28 -7 43 -7c10 1 21 1 34 4c5 1 12 4 19 8l20 18c7 6 5 -37 -28 -49c-7 -3 -16 -5 -23 -6c-7 -2 -11 -2 -18 -2c-27 1 -54 6 -78 18c-19 12 -40 25 -56 45
c-12 15 -27 31 -39 48c-21 33 -35 66 -47 103l-4 13c-6 18 -8 31 -11 48c-5 23 -7 50 -8 73c-1 8 1 16 0 24c1 23 0 46 1 69c0 14 2 29 2 42c1 18 4 50 4 52c0 13 -24 -83 -52 -143l-25 -51c-10 -21 -46 -61 -60 -71c-24 -25 -49 -38 -84 -42c-6 -1 -13 0 -18 0
c-19 0 -59 17 -76 32l-13 12c-14 11 -21 29 -29 45c-43 91 4 362 8 396c3 28 3 57 1 88c-4 8 -3 18 -2 27c0 4 2 8 4 9c4 5 11 5 15 0c3 -4 4 -7 5 -13c0 -6 1 -14 2 -23c0 -66 -28 -250 -30 -378c0 -28 7 -56 11 -82c5 -21 30 -84 123 -88c28 2 39 12 55 23
c75 51 119 174 139 245c20 103 37 144 59 309c4 33 8 65 13 93c0 6 1 13 5 19c3 4 10 5 14 4z" />
    <glyph glyph-name="V" unicode="V" 
d="M152 809c31 4 57 0 85 -15c45 -25 59 -68 49 -115c-4 -23 -14 -49 -23 -68c-29 -61 -47 -88 -123 -165c-18 -19 -35 -34 -56 -50c7 -14 13 -29 21 -44c32 -56 59 -110 91 -163c27 -47 58 -96 84 -144c13 -22 30 -44 43 -67c3 -4 6 -7 9 -13c9 35 19 66 33 99
c14 34 28 56 41 85c19 33 34 63 50 97c13 25 24 53 34 78c17 56 42 112 53 172c7 25 10 47 11 73c1 20 0 41 -2 61c0 5 -3 11 -5 14c1 8 3 14 12 16c6 0 11 0 17 -9l-1 -8c5 -32 3 -67 -1 -97c-8 -81 -44 -178 -76 -259c-25 -64 -64 -124 -92 -184c-12 -26 -22 -47 -32 -73
c-13 -33 -23 -67 -19 -104c0 -6 -3 -15 -12 -18c-9 -1 -14 4 -16 10c-22 35 -40 67 -59 103l-87 152c-16 32 -34 61 -53 90c-16 30 -28 59 -45 88c-5 9 -9 18 -17 33c-26 -19 -51 -36 -78 -54c-23 -16 -49 -29 -78 -40c-15 -4 -23 -2 -23 4c1 11 9 14 18 13
c52 18 94 53 153 94c-8 23 -20 46 -26 69c-8 29 -15 60 -19 93c-4 39 0 79 8 118c14 70 68 120 131 128zM186 791c-71 6 -122 -44 -143 -103c-10 -39 -16 -75 -11 -118c5 -54 13 -94 44 -157c37 27 119 110 159 180c9 16 18 38 24 58c9 38 15 55 3 91c-10 27 -46 45 -76 49z
" />
    <glyph glyph-name="W" unicode="W" horiz-adv-x="893" 
d="M417 757c38 2 73 1 108 -10c26 -8 48 -15 69 -24c21 -8 36 -18 53 -31c13 -10 24 -17 33 -26c13 -13 25 -21 25 -21c5 1 37 7 44 9c26 6 48 16 71 25c14 3 28 12 36 25c3 4 8 9 13 12c6 4 17 1 20 -5c5 -6 6 -19 -1 -23c-3 -4 -8 -5 -11 -7c-35 -18 -71 -35 -108 -44
c-15 -4 -50 -9 -49 -9c2 -5 14 -19 17 -23c26 -42 37 -63 49 -114c11 -37 29 -124 2 -245c-13 -55 -81 -198 -153 -243c-78 -56 -225 -129 -300 139c-5 18 -5 37 -9 56c0 5 -3 31 -7 8c0 -1 -19 -65 -30 -93c-2 -7 -3 -16 -7 -26c-9 -29 -17 -60 -42 -120
c-9 -29 -25 -57 -38 -85c-8 -20 -23 -39 -39 -56c-9 -11 -21 -18 -36 -23c-16 -5 -34 -3 -48 4c-7 4 -30 23 -34 30c-17 29 -30 63 -33 97c-23 259 18 292 29 553c0 6 4 10 3 16c-1 9 24 28 24 -11c0 -22 -3 -47 -6 -69c-2 -18 -20 -141 -25 -175c-3 -22 -3 -37 -5 -58
c-2 -17 -8 -97 -8 -126c1 -40 2 -80 11 -121c4 -21 8 -41 15 -60c7 -21 16 -34 31 -44c9 -6 16 -10 26 -12c5 0 12 0 17 1c18 9 30 19 41 35c14 19 26 40 35 63c9 22 17 46 29 68c12 26 21 55 32 82c1 7 4 11 5 19c9 39 22 75 33 116c6 23 9 46 15 67c4 13 6 53 8 67
c2 7 9 13 16 10c6 0 14 -3 14 -29c-4 -32 -4 -60 -3 -91c-1 -39 4 -76 15 -111c10 -36 25 -68 44 -95c17 -21 39 -43 61 -52c53 -22 106 9 115 15c72 48 122 111 140 151c83 183 80 355 -31 479c0 0 -16 -4 -25 -5c-27 -4 -46 -5 -75 -6c-24 -1 -125 -3 -179 16
c-25 9 -44 21 -55 42c-20 27 -9 65 17 76c11 7 27 10 41 12zM414 738c-10 -2 -24 -4 -32 -14c-14 -18 -15 -35 0 -53c14 -10 22 -13 30 -17c52 -29 168 -23 190 -23l42 3l35 5c-20 21 -44 35 -52 41c-33 24 -75 43 -107 48c-20 5 -33 8 -46 9c-19 3 -40 5 -60 1z" />
    <glyph glyph-name="Wacute" unicode="&#x1e82;" horiz-adv-x="893" 
d="M344 860c7 2 13 6 16 -4c4 -6 7 -12 4 -19c0 -6 -7 -13 -16 -16c-23 -7 -45 -22 -64 -38c-7 -3 -10 -10 -13 -9c-7 -3 -14 -2 -17 2c-8 13 61 64 90 84zM417 757c38 2 73 1 108 -10c26 -8 48 -15 69 -24c21 -8 36 -18 53 -31c13 -10 24 -17 33 -26c13 -13 25 -21 25 -21
c5 1 37 7 44 9c26 6 48 16 71 25c14 3 28 12 36 25c3 4 8 9 13 12c6 4 17 1 20 -5c5 -6 6 -19 -1 -23c-3 -4 -8 -5 -11 -7c-35 -18 -71 -35 -108 -44c-15 -4 -50 -9 -49 -9c2 -5 14 -19 17 -23c26 -42 37 -63 49 -114c11 -37 29 -124 2 -245c-13 -55 -81 -198 -153 -243
c-78 -56 -225 -129 -300 139c-5 18 -5 37 -9 56c0 5 -3 31 -7 8c0 -1 -19 -65 -30 -93c-2 -7 -3 -16 -7 -26c-9 -29 -17 -60 -42 -120c-9 -29 -25 -57 -38 -85c-8 -20 -23 -39 -39 -56c-9 -11 -21 -18 -36 -23c-16 -5 -34 -3 -48 4c-7 4 -30 23 -34 30c-17 29 -30 63 -33 97
c-23 259 18 292 29 553c0 6 4 10 3 16c-1 9 24 28 24 -11c0 -22 -3 -47 -6 -69c-2 -18 -20 -141 -25 -175c-3 -22 -3 -37 -5 -58c-2 -17 -8 -97 -8 -126c1 -40 2 -80 11 -121c4 -21 8 -41 15 -60c7 -21 16 -34 31 -44c9 -6 16 -10 26 -12c5 0 12 0 17 1c18 9 30 19 41 35
c14 19 26 40 35 63c9 22 17 46 29 68c12 26 21 55 32 82c1 7 4 11 5 19c9 39 22 75 33 116c6 23 9 46 15 67c4 13 6 53 8 67c2 7 9 13 16 10c6 0 14 -3 14 -29c-4 -32 -4 -60 -3 -91c-1 -39 4 -76 15 -111c10 -36 25 -68 44 -95c17 -21 39 -43 61 -52c53 -22 106 9 115 15
c72 48 122 111 140 151c83 183 80 355 -31 479c0 0 -16 -4 -25 -5c-27 -4 -46 -5 -75 -6c-24 -1 -125 -3 -179 16c-25 9 -44 21 -55 42c-20 27 -9 65 17 76c11 7 27 10 41 12zM414 738c-10 -2 -24 -4 -32 -14c-14 -18 -15 -35 0 -53c14 -10 22 -13 30 -17
c52 -29 168 -23 190 -23l42 3l35 5c-20 21 -44 35 -52 41c-33 24 -75 43 -107 48c-20 5 -33 8 -46 9c-19 3 -40 5 -60 1z" />
    <glyph glyph-name="Wcircumflex" unicode="&#x174;" horiz-adv-x="893" 
d="M323 941c24 -20 45 -44 61 -72c1 -2 3 -6 2 -9c0 -2 -1 -6 -3 -7c-3 -4 -9 -2 -11 -1c-2 4 -4 7 -7 11c-9 11 -17 23 -26 33c-6 9 -14 16 -26 18c-11 -4 -15 -13 -22 -20c-12 -11 -22 -22 -33 -33c-3 -4 -9 -7 -13 -11c-5 -2 -9 -1 -11 2c-4 3 -3 8 -1 11l9 9
c23 20 45 39 61 66c5 6 13 7 20 3zM417 757c38 2 73 1 108 -10c26 -8 48 -15 69 -24c21 -8 36 -18 53 -31c13 -10 24 -17 33 -26c13 -13 25 -21 25 -21c5 1 37 7 44 9c26 6 48 16 71 25c14 3 28 12 36 25c3 4 8 9 13 12c6 4 17 1 20 -5c5 -6 6 -19 -1 -23
c-3 -4 -8 -5 -11 -7c-35 -18 -71 -35 -108 -44c-15 -4 -50 -9 -49 -9c2 -5 14 -19 17 -23c26 -42 37 -63 49 -114c11 -37 29 -124 2 -245c-13 -55 -81 -198 -153 -243c-78 -56 -225 -129 -300 139c-5 18 -5 37 -9 56c0 5 -3 31 -7 8c0 -1 -19 -65 -30 -93
c-2 -7 -3 -16 -7 -26c-9 -29 -17 -60 -42 -120c-9 -29 -25 -57 -38 -85c-8 -20 -23 -39 -39 -56c-9 -11 -21 -18 -36 -23c-16 -5 -34 -3 -48 4c-7 4 -30 23 -34 30c-17 29 -30 63 -33 97c-23 259 18 292 29 553c0 6 4 10 3 16c-1 9 24 28 24 -11c0 -22 -3 -47 -6 -69
c-2 -18 -20 -141 -25 -175c-3 -22 -3 -37 -5 -58c-2 -17 -8 -97 -8 -126c1 -40 2 -80 11 -121c4 -21 8 -41 15 -60c7 -21 16 -34 31 -44c9 -6 16 -10 26 -12c5 0 12 0 17 1c18 9 30 19 41 35c14 19 26 40 35 63c9 22 17 46 29 68c12 26 21 55 32 82c1 7 4 11 5 19
c9 39 22 75 33 116c6 23 9 46 15 67c4 13 6 53 8 67c2 7 9 13 16 10c6 0 14 -3 14 -29c-4 -32 -4 -60 -3 -91c-1 -39 4 -76 15 -111c10 -36 25 -68 44 -95c17 -21 39 -43 61 -52c53 -22 106 9 115 15c72 48 122 111 140 151c83 183 80 355 -31 479c0 0 -16 -4 -25 -5
c-27 -4 -46 -5 -75 -6c-24 -1 -125 -3 -179 16c-25 9 -44 21 -55 42c-20 27 -9 65 17 76c11 7 27 10 41 12zM414 738c-10 -2 -24 -4 -32 -14c-14 -18 -15 -35 0 -53c14 -10 22 -13 30 -17c52 -29 168 -23 190 -23l42 3l35 5c-20 21 -44 35 -52 41c-33 24 -75 43 -107 48
c-20 5 -33 8 -46 9c-19 3 -40 5 -60 1z" />
    <glyph glyph-name="Wdieresis" unicode="&#x1e84;" horiz-adv-x="893" 
d="M371 856c6 -4 11 -10 10 -21c-2 -20 -29 -18 -32 -15c-1 2 -7 6 -1 18c0 4 2 5 2 9c8 7 13 11 21 9zM256 853c6 -4 11 -10 10 -21c-2 -20 -29 -18 -32 -15c-1 2 -7 6 -1 18c0 4 2 5 2 9c8 7 13 11 21 9zM417 757c38 2 73 1 108 -10c26 -8 48 -15 69 -24
c21 -8 36 -18 53 -31c13 -10 24 -17 33 -26c13 -13 25 -21 25 -21c5 1 37 7 44 9c26 6 48 16 71 25c14 3 28 12 36 25c3 4 8 9 13 12c6 4 17 1 20 -5c5 -6 6 -19 -1 -23c-3 -4 -8 -5 -11 -7c-35 -18 -71 -35 -108 -44c-15 -4 -50 -9 -49 -9c2 -5 14 -19 17 -23
c26 -42 37 -63 49 -114c11 -37 29 -124 2 -245c-13 -55 -81 -198 -153 -243c-78 -56 -225 -129 -300 139c-5 18 -5 37 -9 56c0 5 -3 31 -7 8c0 -1 -19 -65 -30 -93c-2 -7 -3 -16 -7 -26c-9 -29 -17 -60 -42 -120c-9 -29 -25 -57 -38 -85c-8 -20 -23 -39 -39 -56
c-9 -11 -21 -18 -36 -23c-16 -5 -34 -3 -48 4c-7 4 -30 23 -34 30c-17 29 -30 63 -33 97c-23 259 18 292 29 553c0 6 4 10 3 16c-1 9 24 28 24 -11c0 -22 -3 -47 -6 -69c-2 -18 -20 -141 -25 -175c-3 -22 -3 -37 -5 -58c-2 -17 -8 -97 -8 -126c1 -40 2 -80 11 -121
c4 -21 8 -41 15 -60c7 -21 16 -34 31 -44c9 -6 16 -10 26 -12c5 0 12 0 17 1c18 9 30 19 41 35c14 19 26 40 35 63c9 22 17 46 29 68c12 26 21 55 32 82c1 7 4 11 5 19c9 39 22 75 33 116c6 23 9 46 15 67c4 13 6 53 8 67c2 7 9 13 16 10c6 0 14 -3 14 -29
c-4 -32 -4 -60 -3 -91c-1 -39 4 -76 15 -111c10 -36 25 -68 44 -95c17 -21 39 -43 61 -52c53 -22 106 9 115 15c72 48 122 111 140 151c83 183 80 355 -31 479c0 0 -16 -4 -25 -5c-27 -4 -46 -5 -75 -6c-24 -1 -125 -3 -179 16c-25 9 -44 21 -55 42c-20 27 -9 65 17 76
c11 7 27 10 41 12zM414 738c-10 -2 -24 -4 -32 -14c-14 -18 -15 -35 0 -53c14 -10 22 -13 30 -17c52 -29 168 -23 190 -23l42 3l35 5c-20 21 -44 35 -52 41c-33 24 -75 43 -107 48c-20 5 -33 8 -46 9c-19 3 -40 5 -60 1z" />
    <glyph glyph-name="Wgrave" unicode="&#x1e80;" horiz-adv-x="893" 
d="M265 894c6 3 15 0 22 -7c17 -17 40 -30 63 -40c6 -5 13 -4 14 -7c6 -5 8 -12 6 -16c-8 -13 -85 25 -116 42c-5 5 -11 9 -4 16c4 6 8 12 15 12zM417 757c38 2 73 1 108 -10c26 -8 48 -15 69 -24c21 -8 36 -18 53 -31c13 -10 24 -17 33 -26c13 -13 25 -21 25 -21
c5 1 37 7 44 9c26 6 48 16 71 25c14 3 28 12 36 25c3 4 8 9 13 12c6 4 17 1 20 -5c5 -6 6 -19 -1 -23c-3 -4 -8 -5 -11 -7c-35 -18 -71 -35 -108 -44c-15 -4 -50 -9 -49 -9c2 -5 14 -19 17 -23c26 -42 37 -63 49 -114c11 -37 29 -124 2 -245c-13 -55 -81 -198 -153 -243
c-78 -56 -225 -129 -300 139c-5 18 -5 37 -9 56c0 5 -3 31 -7 8c0 -1 -19 -65 -30 -93c-2 -7 -3 -16 -7 -26c-9 -29 -17 -60 -42 -120c-9 -29 -25 -57 -38 -85c-8 -20 -23 -39 -39 -56c-9 -11 -21 -18 -36 -23c-16 -5 -34 -3 -48 4c-7 4 -30 23 -34 30c-17 29 -30 63 -33 97
c-23 259 18 292 29 553c0 6 4 10 3 16c-1 9 24 28 24 -11c0 -22 -3 -47 -6 -69c-2 -18 -20 -141 -25 -175c-3 -22 -3 -37 -5 -58c-2 -17 -8 -97 -8 -126c1 -40 2 -80 11 -121c4 -21 8 -41 15 -60c7 -21 16 -34 31 -44c9 -6 16 -10 26 -12c5 0 12 0 17 1c18 9 30 19 41 35
c14 19 26 40 35 63c9 22 17 46 29 68c12 26 21 55 32 82c1 7 4 11 5 19c9 39 22 75 33 116c6 23 9 46 15 67c4 13 6 53 8 67c2 7 9 13 16 10c6 0 14 -3 14 -29c-4 -32 -4 -60 -3 -91c-1 -39 4 -76 15 -111c10 -36 25 -68 44 -95c17 -21 39 -43 61 -52c53 -22 106 9 115 15
c72 48 122 111 140 151c83 183 80 355 -31 479c0 0 -16 -4 -25 -5c-27 -4 -46 -5 -75 -6c-24 -1 -125 -3 -179 16c-25 9 -44 21 -55 42c-20 27 -9 65 17 76c11 7 27 10 41 12zM414 738c-10 -2 -24 -4 -32 -14c-14 -18 -15 -35 0 -53c14 -10 22 -13 30 -17
c52 -29 168 -23 190 -23l42 3l35 5c-20 21 -44 35 -52 41c-33 24 -75 43 -107 48c-20 5 -33 8 -46 9c-19 3 -40 5 -60 1z" />
    <glyph glyph-name="X" unicode="X" horiz-adv-x="640" 
d="M537 804c3 3 5 -1 7 -5c1 -2 2 -7 1 -9c-1 -11 -3 -21 -5 -31c-14 -53 -27 -104 -42 -158c-13 -48 -27 -96 -48 -142c-5 -10 -9 -20 -11 -29c-10 -27 -23 -50 -36 -74c-5 -8 -10 -14 -14 -21c-31 -62 -32 -45 -5 -111c27 -67 60 -131 99 -191c27 -40 54 -81 88 -115
c28 -30 56 -56 86 -82c25 -20 54 -37 81 -52c15 -9 29 -15 45 -18c17 -6 34 -9 51 -6c3 1 7 -2 8 -4c2 -5 1 -12 -3 -15c-2 -1 -5 -3 -7 -5c-4 -2 -6 -2 -10 -3c-15 -1 -31 0 -46 6c-35 12 -66 32 -98 51c-37 24 -69 55 -101 86c-35 36 -67 75 -94 117c-19 29 -37 57 -53 88
c-26 47 -51 96 -73 148c-2 4 -5 7 -8 12c-2 4 -10 6 -12 4c-4 -3 -9 -5 -12 -10c-18 -19 -36 -39 -53 -58c-29 -33 -59 -65 -94 -88c-12 -8 -24 -17 -35 -27c-24 -20 -51 -35 -79 -47c-12 -4 -23 -11 -36 -12c-6 -1 -12 0 -17 5s-8 12 -5 18c4 11 12 18 21 18c4 0 6 -1 9 -1
c14 -2 26 0 37 6c19 10 38 19 54 32c35 25 67 51 100 81c10 8 18 17 27 29c19 21 38 42 55 64c5 6 10 14 15 21c4 7 6 15 3 25c-3 8 -5 17 -9 24c-20 56 -41 110 -63 164c-10 25 -21 48 -33 71c-8 14 -20 28 -34 35c-5 5 -10 9 -15 13c-2 3 -5 11 -2 14c1 6 5 8 10 10
c6 1 12 -2 18 -5c15 -12 29 -27 39 -45c10 -17 20 -37 27 -56c17 -45 34 -91 50 -135c9 -21 17 -43 28 -62c2 -6 12 -9 16 -3c0 2 1 3 3 4c18 34 36 66 54 100c4 7 8 14 10 23c10 29 22 59 30 89c7 21 12 43 18 65c14 44 24 90 36 136c4 17 9 34 14 50c1 4 2 8 5 9
c2 1 5 2 8 2z" />
    <glyph glyph-name="Y" unicode="Y" horiz-adv-x="626" 
d="M335 751c4 2 8 -1 10 -4c4 -4 7 -11 8 -15c4 -18 7 -35 9 -51c5 -27 8 -54 13 -81c5 -35 13 -70 22 -105c6 -24 11 -47 19 -71c2 -9 10 -30 14 -40c0 -1 29 6 38 8c83 21 107 30 190 24c14 -1 26 -5 37 -12c9 -5 15 -15 10 -26c-1 -3 -4 -7 -7 -8c-4 -1 -6 -1 -8 0
c-3 1 -6 2 -9 5c-18 24 -44 22 -61 24c-9 1 -66 -5 -79 -8c-49 -14 -102 -23 -104 -27c-1 -3 3 -9 3 -11c1 -8 3 -17 5 -25c14 -54 28 -109 34 -163c16 -96 -8 -189 -73 -256c-7 -8 -14 -13 -22 -21c-32 -30 -112 -51 -121 -53c-29 -5 -57 -6 -85 0c-15 3 -28 6 -42 10
c-22 6 -72 43 -80 50c-8 8 -16 15 -23 26c-3 7 -7 14 -11 22c-6 14 -12 29 -12 46c0 74 35 136 55 159l24 30c27 33 59 60 96 85c24 15 48 34 72 46c44 23 63 33 97 46c42 18 40 16 43 17c6 2 11 5 11 6c0 8 -26 97 -35 133c-10 35 -16 69 -23 105l-14 49
c-1 -1 -11 -31 -13 -39c-8 -36 -21 -72 -36 -105c-22 -46 -44 -94 -80 -132c-14 -22 -35 -41 -54 -61c-17 -17 -37 -27 -60 -33c-15 -3 -28 -1 -41 7c-30 19 -37 28 -49 63c-6 19 -7 41 -6 63c1 11 0 21 0 31c-3 76 2 112 3 147c0 4 2 8 3 12c1 3 6 5 11 5c3 0 9 -4 9 -7
c1 -3 2 -6 2 -9c0 -6 0 -11 -1 -17c-9 -47 -5 -134 -5 -181c0 -17 3 -34 10 -51c10 -23 22 -39 46 -42c9 -1 16 -1 22 0c31 1 61 39 76 57c18 19 33 41 47 62c9 13 46 80 49 90c16 37 52 178 53 210c0 3 1 6 2 10c3 3 6 5 11 6zM414 355c0 4 -11 -1 -15 -2l-19 -7l-6 -2
c-6 -3 -14 -7 -23 -10c-7 -2 -43 -18 -50 -21c-95 -53 -150 -90 -215 -164c-21 -25 -33 -57 -46 -87c-8 -29 -15 -61 -3 -92c6 -26 15 -46 32 -63c8 -8 19 -14 28 -22c14 -10 29 -17 46 -23c21 -6 76 -19 122 -5c74 20 134 49 166 117c49 103 27 194 26 207
c-1 18 -3 35 -7 53c-6 22 -11 47 -19 69c-3 13 -8 25 -11 38c-2 4 -6 15 -6 14z" />
    <glyph glyph-name="Yacute" unicode="&#xdd;" horiz-adv-x="626" 
d="M194 850c7 2 13 6 16 -4c4 -6 7 -12 4 -19c0 -6 -7 -13 -16 -16c-23 -7 -45 -22 -64 -38c-7 -3 -10 -10 -13 -9c-7 -3 -14 -2 -17 2c-8 13 61 64 90 84zM335 751c4 2 8 -1 10 -4c4 -4 7 -11 8 -15c4 -18 7 -35 9 -51c5 -27 8 -54 13 -81c5 -35 13 -70 22 -105
c6 -24 11 -47 19 -71c2 -9 10 -30 14 -40c0 -1 29 6 38 8c83 21 107 30 190 24c14 -1 26 -5 37 -12c9 -5 15 -15 10 -26c-1 -3 -4 -7 -7 -8c-4 -1 -6 -1 -8 0c-3 1 -6 2 -9 5c-18 24 -44 22 -61 24c-9 1 -66 -5 -79 -8c-49 -14 -102 -23 -104 -27c-1 -3 3 -9 3 -11
c1 -8 3 -17 5 -25c14 -54 28 -109 34 -163c16 -96 -8 -189 -73 -256c-7 -8 -14 -13 -22 -21c-32 -30 -112 -51 -121 -53c-29 -5 -57 -6 -85 0c-15 3 -28 6 -42 10c-22 6 -72 43 -80 50c-8 8 -16 15 -23 26c-3 7 -7 14 -11 22c-6 14 -12 29 -12 46c0 74 35 136 55 159l24 30
c27 33 59 60 96 85c24 15 48 34 72 46c44 23 63 33 97 46c42 18 40 16 43 17c6 2 11 5 11 6c0 8 -26 97 -35 133c-10 35 -16 69 -23 105l-14 49c-1 -1 -11 -31 -13 -39c-8 -36 -21 -72 -36 -105c-22 -46 -44 -94 -80 -132c-14 -22 -35 -41 -54 -61c-17 -17 -37 -27 -60 -33
c-15 -3 -28 -1 -41 7c-30 19 -37 28 -49 63c-6 19 -7 41 -6 63c1 11 0 21 0 31c-3 76 2 112 3 147c0 4 2 8 3 12c1 3 6 5 11 5c3 0 9 -4 9 -7c1 -3 2 -6 2 -9c0 -6 0 -11 -1 -17c-9 -47 -5 -134 -5 -181c0 -17 3 -34 10 -51c10 -23 22 -39 46 -42c9 -1 16 -1 22 0
c31 1 61 39 76 57c18 19 33 41 47 62c9 13 46 80 49 90c16 37 52 178 53 210c0 3 1 6 2 10c3 3 6 5 11 6zM414 355c0 4 -11 -1 -15 -2l-19 -7l-6 -2c-6 -3 -14 -7 -23 -10c-7 -2 -43 -18 -50 -21c-95 -53 -150 -90 -215 -164c-21 -25 -33 -57 -46 -87c-8 -29 -15 -61 -3 -92
c6 -26 15 -46 32 -63c8 -8 19 -14 28 -22c14 -10 29 -17 46 -23c21 -6 76 -19 122 -5c74 20 134 49 166 117c49 103 27 194 26 207c-1 18 -3 35 -7 53c-6 22 -11 47 -19 69c-3 13 -8 25 -11 38c-2 4 -6 15 -6 14z" />
    <glyph glyph-name="Ycircumflex" unicode="&#x176;" horiz-adv-x="626" 
d="M193 861c24 -20 45 -44 61 -72c1 -2 3 -6 2 -9c0 -2 -1 -6 -3 -7c-3 -4 -9 -2 -11 -1c-2 4 -4 7 -7 11c-9 11 -17 23 -26 33c-6 9 -14 16 -26 18c-11 -4 -15 -13 -22 -20c-12 -11 -22 -22 -33 -33c-3 -4 -9 -7 -13 -11c-5 -2 -9 -1 -11 2c-4 3 -3 8 -1 11l9 9
c23 20 45 39 61 66c5 6 13 7 20 3zM335 751c4 2 8 -1 10 -4c4 -4 7 -11 8 -15c4 -18 7 -35 9 -51c5 -27 8 -54 13 -81c5 -35 13 -70 22 -105c6 -24 11 -47 19 -71c2 -9 10 -30 14 -40c0 -1 29 6 38 8c83 21 107 30 190 24c14 -1 26 -5 37 -12c9 -5 15 -15 10 -26
c-1 -3 -4 -7 -7 -8c-4 -1 -6 -1 -8 0c-3 1 -6 2 -9 5c-18 24 -44 22 -61 24c-9 1 -66 -5 -79 -8c-49 -14 -102 -23 -104 -27c-1 -3 3 -9 3 -11c1 -8 3 -17 5 -25c14 -54 28 -109 34 -163c16 -96 -8 -189 -73 -256c-7 -8 -14 -13 -22 -21c-32 -30 -112 -51 -121 -53
c-29 -5 -57 -6 -85 0c-15 3 -28 6 -42 10c-22 6 -72 43 -80 50c-8 8 -16 15 -23 26c-3 7 -7 14 -11 22c-6 14 -12 29 -12 46c0 74 35 136 55 159l24 30c27 33 59 60 96 85c24 15 48 34 72 46c44 23 63 33 97 46c42 18 40 16 43 17c6 2 11 5 11 6c0 8 -26 97 -35 133
c-10 35 -16 69 -23 105l-14 49c-1 -1 -11 -31 -13 -39c-8 -36 -21 -72 -36 -105c-22 -46 -44 -94 -80 -132c-14 -22 -35 -41 -54 -61c-17 -17 -37 -27 -60 -33c-15 -3 -28 -1 -41 7c-30 19 -37 28 -49 63c-6 19 -7 41 -6 63c1 11 0 21 0 31c-3 76 2 112 3 147c0 4 2 8 3 12
c1 3 6 5 11 5c3 0 9 -4 9 -7c1 -3 2 -6 2 -9c0 -6 0 -11 -1 -17c-9 -47 -5 -134 -5 -181c0 -17 3 -34 10 -51c10 -23 22 -39 46 -42c9 -1 16 -1 22 0c31 1 61 39 76 57c18 19 33 41 47 62c9 13 46 80 49 90c16 37 52 178 53 210c0 3 1 6 2 10c3 3 6 5 11 6zM414 355
c0 4 -11 -1 -15 -2l-19 -7l-6 -2c-6 -3 -14 -7 -23 -10c-7 -2 -43 -18 -50 -21c-95 -53 -150 -90 -215 -164c-21 -25 -33 -57 -46 -87c-8 -29 -15 -61 -3 -92c6 -26 15 -46 32 -63c8 -8 19 -14 28 -22c14 -10 29 -17 46 -23c21 -6 76 -19 122 -5c74 20 134 49 166 117
c49 103 27 194 26 207c-1 18 -3 35 -7 53c-6 22 -11 47 -19 69c-3 13 -8 25 -11 38c-2 4 -6 15 -6 14z" />
    <glyph glyph-name="Ydieresis" unicode="&#x178;" horiz-adv-x="626" 
d="M211 806c6 -4 11 -10 10 -21c-2 -20 -29 -18 -32 -15c-1 2 -7 6 -1 18c0 4 2 5 2 9c8 7 13 11 21 9zM96 803c6 -4 11 -10 10 -21c-2 -20 -29 -18 -32 -15c-1 2 -7 6 -1 18c0 4 2 5 2 9c8 7 13 11 21 9zM335 751c4 2 8 -1 10 -4c4 -4 7 -11 8 -15c4 -18 7 -35 9 -51
c5 -27 8 -54 13 -81c5 -35 13 -70 22 -105c6 -24 11 -47 19 -71c2 -9 10 -30 14 -40c0 -1 29 6 38 8c83 21 107 30 190 24c14 -1 26 -5 37 -12c9 -5 15 -15 10 -26c-1 -3 -4 -7 -7 -8c-4 -1 -6 -1 -8 0c-3 1 -6 2 -9 5c-18 24 -44 22 -61 24c-9 1 -66 -5 -79 -8
c-49 -14 -102 -23 -104 -27c-1 -3 3 -9 3 -11c1 -8 3 -17 5 -25c14 -54 28 -109 34 -163c16 -96 -8 -189 -73 -256c-7 -8 -14 -13 -22 -21c-32 -30 -112 -51 -121 -53c-29 -5 -57 -6 -85 0c-15 3 -28 6 -42 10c-22 6 -72 43 -80 50c-8 8 -16 15 -23 26c-3 7 -7 14 -11 22
c-6 14 -12 29 -12 46c0 74 35 136 55 159l24 30c27 33 59 60 96 85c24 15 48 34 72 46c44 23 63 33 97 46c42 18 40 16 43 17c6 2 11 5 11 6c0 8 -26 97 -35 133c-10 35 -16 69 -23 105l-14 49c-1 -1 -11 -31 -13 -39c-8 -36 -21 -72 -36 -105c-22 -46 -44 -94 -80 -132
c-14 -22 -35 -41 -54 -61c-17 -17 -37 -27 -60 -33c-15 -3 -28 -1 -41 7c-30 19 -37 28 -49 63c-6 19 -7 41 -6 63c1 11 0 21 0 31c-3 76 2 112 3 147c0 4 2 8 3 12c1 3 6 5 11 5c3 0 9 -4 9 -7c1 -3 2 -6 2 -9c0 -6 0 -11 -1 -17c-9 -47 -5 -134 -5 -181
c0 -17 3 -34 10 -51c10 -23 22 -39 46 -42c9 -1 16 -1 22 0c31 1 61 39 76 57c18 19 33 41 47 62c9 13 46 80 49 90c16 37 52 178 53 210c0 3 1 6 2 10c3 3 6 5 11 6zM414 355c0 4 -11 -1 -15 -2l-19 -7l-6 -2c-6 -3 -14 -7 -23 -10c-7 -2 -43 -18 -50 -21
c-95 -53 -150 -90 -215 -164c-21 -25 -33 -57 -46 -87c-8 -29 -15 -61 -3 -92c6 -26 15 -46 32 -63c8 -8 19 -14 28 -22c14 -10 29 -17 46 -23c21 -6 76 -19 122 -5c74 20 134 49 166 117c49 103 27 194 26 207c-1 18 -3 35 -7 53c-6 22 -11 47 -19 69c-3 13 -8 25 -11 38
c-2 4 -6 15 -6 14z" />
    <glyph glyph-name="Ygrave" unicode="&#x1ef2;" horiz-adv-x="626" 
d="M95 814c6 3 15 0 22 -7c17 -17 40 -30 63 -40c6 -5 13 -4 14 -7c6 -5 8 -12 6 -16c-8 -13 -85 25 -116 42c-5 5 -11 9 -4 16c4 6 8 12 15 12zM335 751c4 2 8 -1 10 -4c4 -4 7 -11 8 -15c4 -18 7 -35 9 -51c5 -27 8 -54 13 -81c5 -35 13 -70 22 -105c6 -24 11 -47 19 -71
c2 -9 10 -30 14 -40c0 -1 29 6 38 8c83 21 107 30 190 24c14 -1 26 -5 37 -12c9 -5 15 -15 10 -26c-1 -3 -4 -7 -7 -8c-4 -1 -6 -1 -8 0c-3 1 -6 2 -9 5c-18 24 -44 22 -61 24c-9 1 -66 -5 -79 -8c-49 -14 -102 -23 -104 -27c-1 -3 3 -9 3 -11c1 -8 3 -17 5 -25
c14 -54 28 -109 34 -163c16 -96 -8 -189 -73 -256c-7 -8 -14 -13 -22 -21c-32 -30 -112 -51 -121 -53c-29 -5 -57 -6 -85 0c-15 3 -28 6 -42 10c-22 6 -72 43 -80 50c-8 8 -16 15 -23 26c-3 7 -7 14 -11 22c-6 14 -12 29 -12 46c0 74 35 136 55 159l24 30c27 33 59 60 96 85
c24 15 48 34 72 46c44 23 63 33 97 46c42 18 40 16 43 17c6 2 11 5 11 6c0 8 -26 97 -35 133c-10 35 -16 69 -23 105l-14 49c-1 -1 -11 -31 -13 -39c-8 -36 -21 -72 -36 -105c-22 -46 -44 -94 -80 -132c-14 -22 -35 -41 -54 -61c-17 -17 -37 -27 -60 -33
c-15 -3 -28 -1 -41 7c-30 19 -37 28 -49 63c-6 19 -7 41 -6 63c1 11 0 21 0 31c-3 76 2 112 3 147c0 4 2 8 3 12c1 3 6 5 11 5c3 0 9 -4 9 -7c1 -3 2 -6 2 -9c0 -6 0 -11 -1 -17c-9 -47 -5 -134 -5 -181c0 -17 3 -34 10 -51c10 -23 22 -39 46 -42c9 -1 16 -1 22 0
c31 1 61 39 76 57c18 19 33 41 47 62c9 13 46 80 49 90c16 37 52 178 53 210c0 3 1 6 2 10c3 3 6 5 11 6zM414 355c0 4 -11 -1 -15 -2l-19 -7l-6 -2c-6 -3 -14 -7 -23 -10c-7 -2 -43 -18 -50 -21c-95 -53 -150 -90 -215 -164c-21 -25 -33 -57 -46 -87c-8 -29 -15 -61 -3 -92
c6 -26 15 -46 32 -63c8 -8 19 -14 28 -22c14 -10 29 -17 46 -23c21 -6 76 -19 122 -5c74 20 134 49 166 117c49 103 27 194 26 207c-1 18 -3 35 -7 53c-6 22 -11 47 -19 69c-3 13 -8 25 -11 38c-2 4 -6 15 -6 14z" />
    <glyph glyph-name="Z" unicode="Z" horiz-adv-x="660" 
d="M178 721c37 -16 51 -19 67 -21c102 -20 173 -8 219 7l11 2c6 1 15 -13 14 -25c0 -5 -3 -8 -4 -13c-15 -57 -26 -117 -47 -170c-19 -64 -39 -121 -60 -178c-5 -20 -12 -37 -18 -55c-13 -31 -24 -61 -38 -89c-17 -34 -34 -72 -49 -105c-2 -5 -9 -15 -10 -18l32 -15
c29 -21 61 -39 90 -60c74 -55 158 -80 183 -88c26 -7 50 -11 76 -12c30 -4 59 -4 89 0c11 0 20 3 30 6l33 16c13 9 23 20 28 36c0 4 2 8 3 10c3 6 11 10 15 6c5 -3 9 -6 11 -16c0 -5 0 -12 -6 -20c-4 -7 -9 -16 -17 -18c-15 -15 -33 -25 -49 -30c-17 -7 -33 -10 -49 -12
c-6 -1 -183 -26 -380 118c-26 20 -97 60 -99 60l-19 -26c-23 -34 -48 -62 -73 -89c-6 -8 -41 -29 -50 -33c-23 -12 -87 -34 -111 19c-5 11 -4 22 -4 31c0 23 5 42 13 59c16 35 67 68 99 79c57 28 133 -12 135 -10c14 17 27 45 35 61c22 49 44 99 62 148c14 31 26 66 36 102
c4 9 6 17 10 25c22 58 41 119 52 183c0 5 3 10 3 16c4 15 9 39 11 57c1 5 2 8 -10 7c-19 0 -79 -3 -100 -4l-45 4c-15 1 -50 8 -65 10c-20 3 -39 6 -57 14l-8 7c-4 6 -6 10 -6 16s14 12 17 8zM114 57c-21 -7 -41 -21 -59 -39c-12 -10 -19 -21 -27 -37
c-7 -15 -11 -30 -10 -47c0 -10 5 -18 11 -22c16 -11 34 -14 52 -9c23 9 42 20 61 36c29 27 56 59 79 97c0 0 9 11 10 13c-1 -1 -8 3 -11 4c-26 12 -52 22 -106 4z" />
    <glyph glyph-name="a" unicode="a" horiz-adv-x="427" 
d="M118 241c22 0 19 -1 55 -20c3 3 2 9 9 12c5 0 16 -8 19 -14c-2 -14 -5 -29 -9 -47c-3 -11 -9 -28 -14 -75c-4 -37 0 -75 40 -98c10 -6 21 -11 34 -11c18 -1 37 0 54 8c13 6 27 10 39 21c6 5 14 13 18 17c17 17 32 39 44 61l37 69c7 14 8 14 15 12c-2 -23 -8 -34 -18 -54
c-4 -9 -8 -18 -13 -27c-11 -20 -24 -36 -37 -53c-12 -16 -26 -27 -41 -42c-23 -24 -75 -36 -101 -33c-17 2 -31 7 -43 17c-24 17 -40 41 -46 69c-1 6 -1 11 -1 16c1 24 5 67 10 98c-2 1 -8 -8 -10 -11c-16 -20 -34 -39 -51 -57c-12 -13 -25 -24 -41 -32
c-12 -7 -24 -9 -38 -10c-17 2 -30 10 -36 26c-3 12 -4 26 0 39c3 9 6 19 10 27c15 32 35 58 66 76c23 13 33 16 49 16zM122 218c-38 1 -62 -16 -83 -48c-33 -50 -40 -86 -7 -91c30 -1 52 19 71 40c20 21 33 42 51 64c1 3 6 9 8 13c-9 17 -24 20 -40 22z" />
    <glyph glyph-name="aacute" unicode="&#xe1;" horiz-adv-x="427" 
d="M154 379c7 2 13 6 16 -4c4 -6 7 -12 4 -19c0 -6 -7 -13 -16 -16c-23 -7 -45 -22 -64 -38c-7 -3 -10 -10 -13 -9c-7 -3 -14 -2 -17 2c-8 13 61 64 90 84zM118 241c22 0 19 -1 55 -20c3 3 2 9 9 12c5 0 16 -8 19 -14c-2 -14 -5 -29 -9 -47c-3 -11 -9 -28 -14 -75
c-4 -37 0 -75 40 -98c10 -6 21 -11 34 -11c18 -1 37 0 54 8c13 6 27 10 39 21c6 5 14 13 18 17c17 17 32 39 44 61l37 69c7 14 8 14 15 12c-2 -23 -8 -34 -18 -54c-4 -9 -8 -18 -13 -27c-11 -20 -24 -36 -37 -53c-12 -16 -26 -27 -41 -42c-23 -24 -75 -36 -101 -33
c-17 2 -31 7 -43 17c-24 17 -40 41 -46 69c-1 6 -1 11 -1 16c1 24 5 67 10 98c-2 1 -8 -8 -10 -11c-16 -20 -34 -39 -51 -57c-12 -13 -25 -24 -41 -32c-12 -7 -24 -9 -38 -10c-17 2 -30 10 -36 26c-3 12 -4 26 0 39c3 9 6 19 10 27c15 32 35 58 66 76c23 13 33 16 49 16z
M122 218c-38 1 -62 -16 -83 -48c-33 -50 -40 -86 -7 -91c30 -1 52 19 71 40c20 21 33 42 51 64c1 3 6 9 8 13c-9 17 -24 20 -40 22z" />
    <glyph glyph-name="acircumflex" unicode="&#xe2;" horiz-adv-x="427" 
d="M142 380c24 -20 45 -44 61 -72c1 -2 3 -6 2 -9c0 -2 -1 -6 -3 -7c-3 -4 -9 -2 -11 -1c-2 4 -4 7 -7 11c-9 11 -17 23 -26 33c-6 9 -14 16 -26 18c-11 -4 -15 -13 -22 -20c-12 -11 -22 -22 -33 -33c-3 -4 -9 -7 -13 -11c-5 -2 -9 -1 -11 2c-4 3 -3 8 -1 11l9 9
c23 20 45 39 61 66c5 6 13 7 20 3zM118 241c22 0 19 -1 55 -20c3 3 2 9 9 12c5 0 16 -8 19 -14c-2 -14 -5 -29 -9 -47c-3 -11 -9 -28 -14 -75c-4 -37 0 -75 40 -98c10 -6 21 -11 34 -11c18 -1 37 0 54 8c13 6 27 10 39 21c6 5 14 13 18 17c17 17 32 39 44 61l37 69
c7 14 8 14 15 12c-2 -23 -8 -34 -18 -54c-4 -9 -8 -18 -13 -27c-11 -20 -24 -36 -37 -53c-12 -16 -26 -27 -41 -42c-23 -24 -75 -36 -101 -33c-17 2 -31 7 -43 17c-24 17 -40 41 -46 69c-1 6 -1 11 -1 16c1 24 5 67 10 98c-2 1 -8 -8 -10 -11c-16 -20 -34 -39 -51 -57
c-12 -13 -25 -24 -41 -32c-12 -7 -24 -9 -38 -10c-17 2 -30 10 -36 26c-3 12 -4 26 0 39c3 9 6 19 10 27c15 32 35 58 66 76c23 13 33 16 49 16zM122 218c-38 1 -62 -16 -83 -48c-33 -50 -40 -86 -7 -91c30 -1 52 19 71 40c20 21 33 42 51 64c1 3 6 9 8 13
c-9 17 -24 20 -40 22z" />
    <glyph glyph-name="adieresis" unicode="&#xe4;" horiz-adv-x="427" 
d="M204 355c6 -4 11 -10 10 -21c-2 -20 -29 -18 -32 -15c-1 2 -7 6 -1 18c0 4 2 5 2 9c8 7 13 11 21 9zM89 352c6 -4 11 -10 10 -21c-2 -20 -29 -18 -32 -15c-1 2 -7 6 -1 18c0 4 2 5 2 9c8 7 13 11 21 9zM118 241c22 0 19 -1 55 -20c3 3 2 9 9 12c5 0 16 -8 19 -14
c-2 -14 -5 -29 -9 -47c-3 -11 -9 -28 -14 -75c-4 -37 0 -75 40 -98c10 -6 21 -11 34 -11c18 -1 37 0 54 8c13 6 27 10 39 21c6 5 14 13 18 17c17 17 32 39 44 61l37 69c7 14 8 14 15 12c-2 -23 -8 -34 -18 -54c-4 -9 -8 -18 -13 -27c-11 -20 -24 -36 -37 -53
c-12 -16 -26 -27 -41 -42c-23 -24 -75 -36 -101 -33c-17 2 -31 7 -43 17c-24 17 -40 41 -46 69c-1 6 -1 11 -1 16c1 24 5 67 10 98c-2 1 -8 -8 -10 -11c-16 -20 -34 -39 -51 -57c-12 -13 -25 -24 -41 -32c-12 -7 -24 -9 -38 -10c-17 2 -30 10 -36 26c-3 12 -4 26 0 39
c3 9 6 19 10 27c15 32 35 58 66 76c23 13 33 16 49 16zM122 218c-38 1 -62 -16 -83 -48c-33 -50 -40 -86 -7 -91c30 -1 52 19 71 40c20 21 33 42 51 64c1 3 6 9 8 13c-9 17 -24 20 -40 22z" />
    <glyph glyph-name="agrave" unicode="&#xe0;" horiz-adv-x="427" 
d="M118 370c6 3 15 0 22 -7c17 -17 40 -30 63 -40c6 -5 13 -4 14 -7c6 -5 8 -12 6 -16c-8 -13 -85 25 -116 42c-5 5 -11 9 -4 16c4 6 8 12 15 12zM118 241c22 0 19 -1 55 -20c3 3 2 9 9 12c5 0 16 -8 19 -14c-2 -14 -5 -29 -9 -47c-3 -11 -9 -28 -14 -75
c-4 -37 0 -75 40 -98c10 -6 21 -11 34 -11c18 -1 37 0 54 8c13 6 27 10 39 21c6 5 14 13 18 17c17 17 32 39 44 61l37 69c7 14 8 14 15 12c-2 -23 -8 -34 -18 -54c-4 -9 -8 -18 -13 -27c-11 -20 -24 -36 -37 -53c-12 -16 -26 -27 -41 -42c-23 -24 -75 -36 -101 -33
c-17 2 -31 7 -43 17c-24 17 -40 41 -46 69c-1 6 -1 11 -1 16c1 24 5 67 10 98c-2 1 -8 -8 -10 -11c-16 -20 -34 -39 -51 -57c-12 -13 -25 -24 -41 -32c-12 -7 -24 -9 -38 -10c-17 2 -30 10 -36 26c-3 12 -4 26 0 39c3 9 6 19 10 27c15 32 35 58 66 76c23 13 33 16 49 16z
M122 218c-38 1 -62 -16 -83 -48c-33 -50 -40 -86 -7 -91c30 -1 52 19 71 40c20 21 33 42 51 64c1 3 6 9 8 13c-9 17 -24 20 -40 22z" />
    <glyph glyph-name="aring" unicode="&#xe5;" horiz-adv-x="427" 
d="M144 410c17 3 30 3 41 -7c25 -20 28 -47 20 -79c-5 -15 -24 -32 -46 -23c-7 2 -11 2 -15 3c-23 12 -39 38 -34 63c2 7 5 11 8 16l11 15c4 6 10 10 15 12zM148 393c-10 -10 -23 -19 -24 -34c-2 -19 7 -32 20 -42c29 -12 41 -2 46 18c5 19 1 39 -12 54c-8 7 -21 11 -30 4z
M118 241c22 0 19 -1 55 -20c3 3 2 9 9 12c5 0 16 -8 19 -14c-2 -14 -5 -29 -9 -47c-3 -11 -9 -28 -14 -75c-4 -37 0 -75 40 -98c10 -6 21 -11 34 -11c18 -1 37 0 54 8c13 6 27 10 39 21c6 5 14 13 18 17c17 17 32 39 44 61l37 69c7 14 8 14 15 12c-2 -23 -8 -34 -18 -54
c-4 -9 -8 -18 -13 -27c-11 -20 -24 -36 -37 -53c-12 -16 -26 -27 -41 -42c-23 -24 -75 -36 -101 -33c-17 2 -31 7 -43 17c-24 17 -40 41 -46 69c-1 6 -1 11 -1 16c1 24 5 67 10 98c-2 1 -8 -8 -10 -11c-16 -20 -34 -39 -51 -57c-12 -13 -25 -24 -41 -32
c-12 -7 -24 -9 -38 -10c-17 2 -30 10 -36 26c-3 12 -4 26 0 39c3 9 6 19 10 27c15 32 35 58 66 76c23 13 33 16 49 16zM122 218c-38 1 -62 -16 -83 -48c-33 -50 -40 -86 -7 -91c30 -1 52 19 71 40c20 21 33 42 51 64c1 3 6 9 8 13c-9 17 -24 20 -40 22z" />
    <glyph glyph-name="atilde" unicode="&#xe3;" horiz-adv-x="427" 
d="M263 397c5 0 8 -4 8 -8c2 -2 2 -2 2 -4c-4 -23 -10 -45 -26 -65c-9 -11 -20 -16 -37 -16c-13 0 -26 5 -38 15l-30 28c-8 8 -19 15 -30 17c-25 5 -45 2 -62 -17c-5 -7 -10 -15 -15 -23c-3 -7 -8 -11 -11 -7c-5 3 -5 10 -4 15c12 35 52 60 88 53c7 -1 13 -3 18 -6
c11 -8 22 -17 32 -25c8 -7 16 -15 25 -22c21 -13 44 -8 55 13c6 9 8 21 12 31c2 5 2 11 5 16c1 2 5 5 8 5zM118 241c22 0 19 -1 55 -20c3 3 2 9 9 12c5 0 16 -8 19 -14c-2 -14 -5 -29 -9 -47c-3 -11 -9 -28 -14 -75c-4 -37 0 -75 40 -98c10 -6 21 -11 34 -11
c18 -1 37 0 54 8c13 6 27 10 39 21c6 5 14 13 18 17c17 17 32 39 44 61l37 69c7 14 8 14 15 12c-2 -23 -8 -34 -18 -54c-4 -9 -8 -18 -13 -27c-11 -20 -24 -36 -37 -53c-12 -16 -26 -27 -41 -42c-23 -24 -75 -36 -101 -33c-17 2 -31 7 -43 17c-24 17 -40 41 -46 69
c-1 6 -1 11 -1 16c1 24 5 67 10 98c-2 1 -8 -8 -10 -11c-16 -20 -34 -39 -51 -57c-12 -13 -25 -24 -41 -32c-12 -7 -24 -9 -38 -10c-17 2 -30 10 -36 26c-3 12 -4 26 0 39c3 9 6 19 10 27c15 32 35 58 66 76c23 13 33 16 49 16zM122 218c-38 1 -62 -16 -83 -48
c-33 -50 -40 -86 -7 -91c30 -1 52 19 71 40c20 21 33 42 51 64c1 3 6 9 8 13c-9 17 -24 20 -40 22z" />
    <glyph glyph-name="ae" unicode="&#xe6;" horiz-adv-x="777" 
d="M797 175c6 13 22 13 19 3c-6 -16 -13 -25 -17 -40c-3 -10 -7 -20 -11 -29c-11 -20 -20 -40 -32 -58c-10 -18 -23 -34 -38 -48c-22 -21 -44 -41 -71 -56c-32 -19 -65 -26 -102 -23c-16 1 -31 8 -44 18c-28 23 -45 46 -55 79c-3 11 -7 22 -7 33c-4 20 -4 40 -2 59l-9 -18
c-11 -20 -24 -36 -37 -53c-12 -16 -26 -27 -41 -42c-23 -24 -75 -36 -101 -33c-17 2 -31 7 -43 17c-24 17 -40 41 -46 69c-1 6 -1 11 -1 16c1 24 5 67 10 98c-2 1 -8 -8 -10 -11c-16 -20 -34 -39 -51 -57c-12 -13 -25 -24 -41 -32c-12 -7 -24 -9 -38 -10
c-17 2 -30 10 -36 26c-3 12 -4 26 0 39c3 9 6 19 10 27c15 32 35 58 66 76c23 13 33 16 49 16c22 0 19 -1 55 -20c3 3 2 9 9 12c5 0 16 -8 19 -14c-2 -14 -5 -29 -9 -47c-3 -11 -9 -28 -14 -75c-4 -37 0 -75 40 -98c10 -6 21 -11 34 -11c18 -1 37 0 54 8c13 6 27 10 39 21
c6 5 14 13 18 17c17 17 32 39 44 61l37 69c4 7 6 11 8 12c7 16 18 32 37 52c7 6 13 12 21 15c6 4 14 5 23 8c14 2 32 4 44 -15c6 -19 -4 -41 -14 -61c-11 -17 -25 -39 -39 -49s-17 -15 -40 -24c-10 -3 -19 -3 -26 -5c-3 -5 -2 -12 -2 -18s1 -13 1 -18l7 -32
c1 -6 5 -13 7 -19c13 -30 36 -50 71 -63c3 -1 7 -1 10 -2c11 -2 38 2 52 6c41 11 66 37 96 66c16 14 28 30 40 47c6 9 12 21 17 30c16 26 27 53 40 81zM495 209c-19 -22 -32 -47 -38 -75c-1 -4 -2 -9 1 -13c14 1 27 6 40 13c29 16 45 41 57 71c3 9 6 19 -1 23
c-13 7 -26 3 -34 0s-19 -11 -25 -19zM154 183c1 3 6 9 8 13c-9 17 -24 20 -40 22c-38 1 -62 -16 -83 -48c-33 -50 -40 -86 -7 -91c30 -1 52 19 71 40c20 21 33 42 51 64z" />
    <glyph glyph-name="b" unicode="b" horiz-adv-x="537" 
d="M245 979c55 -6 84 -45 92 -61c16 -27 27 -53 33 -87c5 -23 5 -86 3 -105c-7 -50 -13 -70 -19 -90c-10 -51 -44 -143 -100 -224c-18 -28 -62 -81 -67 -87l-19 -19c-12 -13 -21 -22 -32 -33c-14 -16 -28 -27 -43 -42l-32 -29c-6 -5 -12 -8 -16 -12c-3 0 2 -28 5 -38
c4 -17 25 -121 36 -154c5 -23 14 -47 19 -73l5 -14c4 3 4 19 4 24c2 28 7 50 14 72c8 21 17 39 29 56c13 23 42 51 66 64s40 22 73 22l21 -3c32 -9 36 -17 46 -31c23 -39 -8 -98 -37 -114l13 7c22 13 46 27 67 43c11 9 23 17 75 60l29 25c5 8 14 12 22 19c15 12 25 15 39 29
c3 -1 -6 -21 -18 -33c-9 -12 -56 -47 -75 -64c-49 -37 -58 -47 -77 -60c-13 -10 -62 -39 -82 -45l-59 -24c-32 -12 -48 -19 -57 -23c-24 -6 -32 1 -30 11c4 8 22 13 35 16c23 6 43 13 62 23c22 11 40 25 57 39c14 13 22 29 25 48c4 19 1 37 -16 48c-28 13 -54 13 -82 3
c-23 -11 -41 -24 -58 -39c-33 -32 -39 -52 -47 -72c-3 -10 -11 -29 -14 -51c-2 -13 -3 -84 1 -104c3 -15 10 -35 2 -46l-9 -6c-5 -3 -11 0 -15 10c-3 21 -9 43 -14 66c-4 20 -23 85 -26 93c-5 18 -11 35 -15 53c-6 21 -9 41 -14 64c-7 32 -15 58 -18 81c0 1 -1 2 -1 5v-1
l-1 3l-11 94c-2 23 -12 126 -12 150c1 7 -3 188 42 305l12 29l15 34c10 26 19 48 35 73c8 16 20 37 31 48c19 28 41 52 71 62c10 5 27 6 37 5zM222 957c-10 -4 -21 -9 -28 -16c-17 -15 -30 -31 -44 -48c-18 -28 -29 -45 -46 -78c-18 -40 -30 -65 -40 -95
c-7 -22 -25 -82 -30 -111c-24 -172 1 -364 3 -383c1 -5 0 -11 2 -16c7 7 60 48 71 59c13 13 25 25 37 39c12 12 62 70 74 88c34 39 71 118 92 165c33 89 57 211 30 293l-11 26c-2 7 -7 15 -11 22c-12 16 -24 36 -40 46c-18 10 -37 15 -59 9z" />
    <glyph glyph-name="c" unicode="c" horiz-adv-x="355" 
d="M81 216c12 -4 20 -19 30 -30c4 -8 3 -13 -5 -15c-4 -1 -5 -1 -7 0c-7 4 -12 13 -20 17c-4 1 -10 4 -17 2c-32 -11 -54 -64 -60 -103c-1 -14 2 -29 10 -40c21 -36 55 -52 94 -57c17 -4 35 -2 44 -1c17 3 28 5 38 9c12 3 19 8 29 13c42 19 96 66 123 111c5 7 10 12 13 19
c9 9 14 25 21 38c4 4 4 3 7 3c5 0 6 -9 4 -17c-1 -3 -1 -4 -3 -8c-8 -11 -15 -29 -23 -39l-17 -24c-16 -27 -58 -61 -79 -77c-19 -15 -39 -26 -62 -34c-16 -6 -33 -11 -53 -13c-7 -1 -18 -3 -25 -3c-50 2 -91 23 -124 61c-2 3 -4 8 -7 13c-15 28 -13 48 -10 75
c4 27 17 52 33 72c10 12 24 20 38 26c8 4 19 4 28 2z" />
    <glyph glyph-name="ccedilla" unicode="&#xe7;" horiz-adv-x="355" 
d="M86 210c12 -4 20 -19 30 -30c4 -8 3 -13 -5 -15c-4 -1 -5 -1 -7 0c-7 4 -12 13 -20 17c-4 1 -10 4 -17 2c-32 -11 -54 -64 -60 -103c-1 -14 2 -29 10 -40c21 -36 55 -52 94 -57c17 -4 35 -2 44 -1c17 3 28 5 38 9c12 3 19 8 29 13c42 19 96 66 123 111c5 7 10 12 13 19
c9 9 14 25 21 38c4 4 4 3 7 3c5 0 6 -9 4 -17c-1 -3 -1 -4 -3 -8c-8 -11 -15 -29 -23 -39l-17 -24c-16 -27 -58 -61 -79 -77c-19 -15 -39 -26 -62 -34c-16 -6 -33 -11 -53 -13l-15 -3c-3 -14 -6 -31 -6 -45c8 -3 17 -6 23 -9c14 -8 31 -14 39 -31c23 -37 12 -77 -28 -94
c-26 -11 -51 -14 -80 -14c-17 3 -31 3 -48 6c-9 0 -14 5 -14 14c-3 8 3 14 11 17c43 -20 83 -17 122 3c23 8 26 28 18 45c-12 26 -32 34 -55 26c-5 -3 -11 -6 -22 -9c0 9 -3 14 -3 20c6 23 11 46 17 68c1 1 2 3 2 4c-43 5 -80 26 -110 60c-2 3 -4 8 -7 13
c-15 28 -13 48 -10 75c4 27 17 52 33 72c10 12 24 20 38 26c8 4 19 4 28 2z" />
    <glyph glyph-name="d" unicode="d" horiz-adv-x="722" 
d="M321 864c18 -5 39 -23 47 -38c16 -23 33 -87 35 -99c1 -9 4 -27 5 -61v-25c-1 -1 0 -3 0 -4c0 -25 -1 -49 -3 -73c-1 -26 -12 -107 -41 -214c-3 -10 -7 -20 -10 -28c0 -1 0 -2 -1 -3c-12 -35 -24 -54 -40 -82c-21 -37 -47 -75 -74 -104c9 -21 16 -40 27 -62
c94 -195 242 -260 344 -182c19 11 28 22 40 36c5 7 22 23 40 67c14 34 16 51 25 82c5 19 8 70 23 57c8 -5 1 -22 -2 -35c-14 -63 -30 -134 -72 -183c-36 -42 -72 -72 -142 -77c-15 -1 -36 3 -48 6c-64 16 -103 52 -172 127c-28 30 -53 92 -70 128c-3 10 -6 16 -8 21
c0 0 -1 1 -1 2c-2 -5 -17 -16 -25 -22c0 0 0 -1 -1 -1l-3 -3c-21 -15 -53 -50 -92 -67c-20 -8 -49 -19 -71 -11c-32 10 -40 38 -39 55c2 23 5 45 17 67v1c-1 1 11 21 12 23l17 25l49 55c6 8 15 15 24 23c4 1 8 4 13 -1c18 -7 8 -21 -1 -27c-33 -10 -54 -40 -73 -66
c-20 -29 -33 -58 -35 -95c0 -3 0 -16 6 -23l9 -8c9 -4 19 -6 32 -5c32 9 54 22 80 41c20 12 39 27 53 41l14 14c4 4 7 6 6 10l-4 23c-3 24 -12 50 -14 71c-50 250 -26 386 -21 403c7 46 20 81 28 101c2 6 5 13 14 31c11 21 18 37 35 55c12 16 34 33 55 34c2 1 9 1 13 0z
M311 842c-3 0 -9 -1 -10 -2c-23 -8 -31 -19 -41 -32c-8 -12 -19 -32 -24 -39l-1 -3c-5 -12 -12 -28 -17 -43c-8 -17 -27 -76 -30 -114c-12 -194 23 -320 35 -405v-2c4 -14 6 -26 8 -38v-7c0 1 27 30 30 36l41 62c20 29 31 61 41 92c7 20 19 83 25 102c6 22 9 44 12 64
c7 54 12 127 10 157v2l-1 10v2c-1 15 -13 153 -78 158z" />
    <glyph glyph-name="eth" unicode="&#xf0;" 
d="M305 663c9 2 16 -5 19 -8c11 -16 19 -34 27 -50c27 -45 55 -101 81 -161l49 21c7 3 15 7 22 11c16 7 30 15 43 22c4 4 8 5 14 5c4 -1 3 -3 4 -8c-3 -1 -2 -3 -3 -3c-5 -6 -9 -10 -16 -13c-22 -13 -38 -15 -55 -25c-7 -4 -13 -5 -19 -7l-34 -15c34 -80 63 -165 80 -235
c12 -48 9 -93 2 -148c-15 -80 -102 -147 -187 -142c-73 4 -142 35 -201 81c-27 23 -47 46 -61 82c-27 68 -20 139 46 173c23 16 54 22 86 23c61 2 123 -11 178 -47c46 -31 90 -65 121 -107c2 23 0 46 -5 74c-19 71 -45 156 -79 237l-50 -22c-7 -3 -16 -4 -23 -7
c-5 -2 -8 -4 -8 -5h-2c-2 -2 -5 -1 -6 -2c-8 -3 -16 -4 -23 -6c-4 -2 -11 -2 -16 -4c-2 1 -3 3 -4 6c0 5 0 8 4 12c15 2 27 3 39 10l9 4c7 0 42 13 75 27c-31 74 -68 146 -111 200c-4 7 -10 24 4 27zM240 245c-38 3 -58 4 -85 -6c-72 -27 -97 -81 -66 -154
c19 -46 50 -74 93 -105c50 -31 104 -50 167 -47c69 0 127 43 134 125c4 15 -7 34 -15 49c-19 36 -50 67 -97 93c-34 21 -79 41 -131 45z" />
    <glyph glyph-name="e" unicode="e" horiz-adv-x="340" 
d="M96 251c14 2 32 4 44 -15c6 -19 -4 -41 -14 -61c-11 -17 -25 -39 -39 -49s-17 -15 -40 -24c-10 -3 -19 -3 -26 -5c-3 -5 -2 -12 -2 -18s1 -13 1 -18l7 -32c1 -6 5 -13 7 -19c13 -30 36 -50 71 -63c3 -1 7 -1 10 -2c11 -2 38 2 52 6c41 11 66 37 96 66c16 14 28 30 40 47
c6 9 12 21 17 30c16 26 27 53 40 81c6 13 22 13 19 3c-6 -16 -13 -25 -17 -40c-3 -10 -7 -20 -11 -29c-11 -20 -20 -40 -32 -58c-10 -18 -23 -34 -38 -48c-22 -21 -44 -41 -71 -56c-32 -19 -65 -26 -102 -23c-16 1 -31 8 -44 18c-28 23 -45 46 -55 79c-3 11 -7 22 -7 33
c-5 25 -4 49 0 73l3 19c6 27 16 49 47 82c7 6 13 12 21 15c6 4 14 5 23 8zM117 228c-13 7 -26 3 -34 0s-19 -11 -25 -19c-19 -22 -32 -47 -38 -75c-1 -4 -2 -9 1 -13c14 1 27 6 40 13c29 16 45 41 57 71c3 9 6 19 -1 23z" />
    <glyph glyph-name="eacute" unicode="&#xe9;" horiz-adv-x="340" 
d="M122 402c7 2 13 6 16 -4c4 -6 7 -12 4 -19c0 -6 -7 -13 -16 -16c-23 -7 -45 -22 -64 -38c-7 -3 -10 -10 -13 -9c-7 -3 -14 -2 -17 2c-8 13 61 64 90 84zM96 251c14 2 32 4 44 -15c6 -19 -4 -41 -14 -61c-11 -17 -25 -39 -39 -49s-17 -15 -40 -24c-10 -3 -19 -3 -26 -5
c-3 -5 -2 -12 -2 -18s1 -13 1 -18l7 -32c1 -6 5 -13 7 -19c13 -30 36 -50 71 -63c3 -1 7 -1 10 -2c11 -2 38 2 52 6c41 11 66 37 96 66c16 14 28 30 40 47c6 9 12 21 17 30c16 26 27 53 40 81c6 13 22 13 19 3c-6 -16 -13 -25 -17 -40c-3 -10 -7 -20 -11 -29
c-11 -20 -20 -40 -32 -58c-10 -18 -23 -34 -38 -48c-22 -21 -44 -41 -71 -56c-32 -19 -65 -26 -102 -23c-16 1 -31 8 -44 18c-28 23 -45 46 -55 79c-3 11 -7 22 -7 33c-5 25 -4 49 0 73l3 19c6 27 16 49 47 82c7 6 13 12 21 15c6 4 14 5 23 8zM117 228c-13 7 -26 3 -34 0
s-19 -11 -25 -19c-19 -22 -32 -47 -38 -75c-1 -4 -2 -9 1 -13c14 1 27 6 40 13c29 16 45 41 57 71c3 9 6 19 -1 23z" />
    <glyph glyph-name="ecircumflex" unicode="&#xea;" horiz-adv-x="340" 
d="M117 385c24 -20 45 -44 61 -72c1 -2 3 -6 2 -9c0 -2 -1 -6 -3 -7c-3 -4 -9 -2 -11 -1c-2 4 -4 7 -7 11c-9 11 -17 23 -26 33c-6 9 -14 16 -26 18c-11 -4 -15 -13 -22 -20c-12 -11 -22 -22 -33 -33c-3 -4 -9 -7 -13 -11c-5 -2 -9 -1 -11 2c-4 3 -3 8 -1 11l9 9
c23 20 45 39 61 66c5 6 13 7 20 3zM96 251c14 2 32 4 44 -15c6 -19 -4 -41 -14 -61c-11 -17 -25 -39 -39 -49s-17 -15 -40 -24c-10 -3 -19 -3 -26 -5c-3 -5 -2 -12 -2 -18s1 -13 1 -18l7 -32c1 -6 5 -13 7 -19c13 -30 36 -50 71 -63c3 -1 7 -1 10 -2c11 -2 38 2 52 6
c41 11 66 37 96 66c16 14 28 30 40 47c6 9 12 21 17 30c16 26 27 53 40 81c6 13 22 13 19 3c-6 -16 -13 -25 -17 -40c-3 -10 -7 -20 -11 -29c-11 -20 -20 -40 -32 -58c-10 -18 -23 -34 -38 -48c-22 -21 -44 -41 -71 -56c-32 -19 -65 -26 -102 -23c-16 1 -31 8 -44 18
c-28 23 -45 46 -55 79c-3 11 -7 22 -7 33c-5 25 -4 49 0 73l3 19c6 27 16 49 47 82c7 6 13 12 21 15c6 4 14 5 23 8zM117 228c-13 7 -26 3 -34 0s-19 -11 -25 -19c-19 -22 -32 -47 -38 -75c-1 -4 -2 -9 1 -13c14 1 27 6 40 13c29 16 45 41 57 71c3 9 6 19 -1 23z" />
    <glyph glyph-name="edieresis" unicode="&#xeb;" horiz-adv-x="340" 
d="M142 358c6 -4 11 -10 10 -21c-2 -20 -29 -18 -32 -15c-1 2 -7 6 -1 18c0 4 2 5 2 9c8 7 13 11 21 9zM27 355c6 -4 11 -10 10 -21c-2 -20 -29 -18 -32 -15c-1 2 -7 6 -1 18c0 4 2 5 2 9c8 7 13 11 21 9zM96 251c14 2 32 4 44 -15c6 -19 -4 -41 -14 -61
c-11 -17 -25 -39 -39 -49s-17 -15 -40 -24c-10 -3 -19 -3 -26 -5c-3 -5 -2 -12 -2 -18s1 -13 1 -18l7 -32c1 -6 5 -13 7 -19c13 -30 36 -50 71 -63c3 -1 7 -1 10 -2c11 -2 38 2 52 6c41 11 66 37 96 66c16 14 28 30 40 47c6 9 12 21 17 30c16 26 27 53 40 81
c6 13 22 13 19 3c-6 -16 -13 -25 -17 -40c-3 -10 -7 -20 -11 -29c-11 -20 -20 -40 -32 -58c-10 -18 -23 -34 -38 -48c-22 -21 -44 -41 -71 -56c-32 -19 -65 -26 -102 -23c-16 1 -31 8 -44 18c-28 23 -45 46 -55 79c-3 11 -7 22 -7 33c-5 25 -4 49 0 73l3 19
c6 27 16 49 47 82c7 6 13 12 21 15c6 4 14 5 23 8zM117 228c-13 7 -26 3 -34 0s-19 -11 -25 -19c-19 -22 -32 -47 -38 -75c-1 -4 -2 -9 1 -13c14 1 27 6 40 13c29 16 45 41 57 71c3 9 6 19 -1 23z" />
    <glyph glyph-name="egrave" unicode="&#xe8;" horiz-adv-x="340" 
d="M33 375c6 3 15 0 22 -7c17 -17 40 -30 63 -40c6 -5 13 -4 14 -7c6 -5 8 -12 6 -16c-8 -13 -85 25 -116 42c-5 5 -11 9 -4 16c4 6 8 12 15 12zM96 251c14 2 32 4 44 -15c6 -19 -4 -41 -14 -61c-11 -17 -25 -39 -39 -49s-17 -15 -40 -24c-10 -3 -19 -3 -26 -5
c-3 -5 -2 -12 -2 -18s1 -13 1 -18l7 -32c1 -6 5 -13 7 -19c13 -30 36 -50 71 -63c3 -1 7 -1 10 -2c11 -2 38 2 52 6c41 11 66 37 96 66c16 14 28 30 40 47c6 9 12 21 17 30c16 26 27 53 40 81c6 13 22 13 19 3c-6 -16 -13 -25 -17 -40c-3 -10 -7 -20 -11 -29
c-11 -20 -20 -40 -32 -58c-10 -18 -23 -34 -38 -48c-22 -21 -44 -41 -71 -56c-32 -19 -65 -26 -102 -23c-16 1 -31 8 -44 18c-28 23 -45 46 -55 79c-3 11 -7 22 -7 33c-5 25 -4 49 0 73l3 19c6 27 16 49 47 82c7 6 13 12 21 15c6 4 14 5 23 8zM117 228c-13 7 -26 3 -34 0
s-19 -11 -25 -19c-19 -22 -32 -47 -38 -75c-1 -4 -2 -9 1 -13c14 1 27 6 40 13c29 16 45 41 57 71c3 9 6 19 -1 23z" />
    <glyph glyph-name="f" unicode="f" horiz-adv-x="425" 
d="M240 837l6 -1c20 -2 36 -24 37 -24c1 -1 20 -27 25 -45c0 -1 1 -1 1 -2c2 -5 16 -59 11 -93c0 -12 -2 -23 -5 -35l-10 -49c-1 -6 -2 -12 -4 -17l-10 -33l-17 -44l-3 -8c-1 -3 -10 -24 -14 -32c-4 -9 -8 -19 -13 -29l-11 -19l-17 -29c-6 -15 -60 -90 -70 -100l-16 -16
l-14 -16c-12 -13 -38 -37 -41 -41l-19 -20c-7 -7 -17 -23 -25 -29v-2c0 -8 1 -6 1 -6l8 1l28 2h1l30 1h17c9 -1 33 4 55 8c3 1 9 2 11 2l53 13c14 3 26 9 38 13l70 30c20 9 72 50 89 65c3 2 6 6 8 8c5 9 18 11 24 1l3 -6l1 -5l-2 -7c-6 -9 -14 -4 -23 -14
c-21 -16 -46 -29 -65 -42c-36 -26 -85 -43 -126 -57l-23 -7l-31 -6c-7 -2 -24 -4 -38 -9c4 -2 28 -6 33 -8c15 -4 28 -14 40 -25c5 -4 11 -11 16 -17c3 -5 11 -14 15 -21l12 -22c9 -16 16 -34 20 -51c3 -7 5 -15 7 -22l3 -9c1 -6 3 -14 15 -61l1 -5c2 -10 7 -50 8 -55
c1 -9 2 -43 2 -49c0 -12 1 -24 0 -36l-3 -51c0 -4 -6 -28 -8 -33c-1 -5 -3 -16 -12 -30l-13 -15c-10 -8 -26 -14 -33 -16c-10 -3 -19 -2 -29 0c-21 6 -41 17 -58 31c-34 22 -80 99 -85 109l-5 8c-20 32 -31 70 -41 108c-1 6 -13 69 -13 72l-6 42c-2 6 -3 33 -4 39l-5 40
l-1 10c-1 9 -2 22 -2 34c0 9 -2 18 -3 79c0 5 -1 8 -1 12c-1 7 0 14 0 21c-1 8 8 152 8 156v3l14 122c1 8 3 16 6 25c1 8 2 16 4 25l9 44c2 10 16 51 17 55l27 60c2 3 11 22 14 26c4 12 48 67 50 68c4 4 36 37 81 36zM222 814c-20 -4 -38 -12 -51 -26c-2 -3 -18 -19 -21 -23
c-14 -23 -30 -43 -40 -70c-12 -28 -24 -57 -33 -87c-13 -39 -38 -188 -46 -286c0 -15 -1 -32 -1 -48c0 -46 -3 -60 -3 -74c0 -4 0 -18 1 -18c14 11 30 32 45 43c9 10 11 13 25 26c9 9 37 43 44 50c8 9 15 20 24 29c15 19 31 40 43 63c9 17 17 34 26 52c13 27 30 68 36 87
c4 14 11 26 15 42c6 21 19 83 20 113c1 20 -3 41 -7 60c-4 18 -10 32 -22 44c-21 21 -38 23 -55 23zM166 120l-29 6c-49 3 -68 4 -102 -1c0 -18 0 -45 2 -61c1 -11 3 -22 3 -34c1 -12 3 -23 5 -34c5 -32 14 -102 17 -115c8 -27 14 -55 28 -81c20 -36 40 -72 64 -105
c2 -2 3 -5 4 -7c19 -23 41 -41 68 -51c14 -4 24 -1 28 0c29 7 44 22 51 48c2 13 6 25 7 37c2 19 2 37 2 56l-1 47c-2 20 -4 40 -7 60c-8 30 -11 61 -21 92c-10 25 -18 51 -32 74c-9 15 -21 27 -33 39c-11 12 -34 24 -54 30z" />
    <glyph glyph-name="g" unicode="g" horiz-adv-x="551" 
d="M142 265c14 3 28 3 42 -7c2 -2 3 -5 1 -9c-18 -6 -31 -3 -51 -5c-1 -1 -8 -1 -13 -2c-29 -6 -50 -25 -69 -46c-7 -8 -13 -18 -18 -28c-8 -18 -15 -35 -20 -53c-6 -17 -5 -25 0 -36c6 -9 18 -12 28 -11c19 2 38 6 55 18c31 20 41 32 52 44c16 14 26 34 37 54
c8 16 11 35 11 56c3 5 4 9 13 9c6 -1 10 -3 13 -8c8 -27 17 -53 24 -79c6 -17 10 -34 15 -52c4 -13 7 -24 11 -36c1 -3 3 -7 5 -11c51 32 101 61 154 81c27 11 55 19 84 26c17 3 34 8 54 7c4 -1 8 -3 11 -10c0 -11 -5 -17 -39 -13c-6 -1 -13 0 -19 -2
c-30 -6 -61 -14 -89 -26c-39 -17 -79 -35 -115 -60c-6 -5 -13 -8 -20 -13c-6 -3 -10 -5 -13 -8c-3 0 -1 -7 -1 -8c7 -29 15 -58 23 -87c2 -8 3 -16 5 -23c3 -21 15 -81 17 -91c7 -44 8 -89 3 -135c-3 -24 -9 -48 -18 -70c-7 -19 -20 -36 -36 -48c-13 -11 -27 -17 -44 -18
c-22 -1 -43 4 -64 12c-23 11 -46 20 -65 37c-6 5 -16 12 -22 19c-2 1 -2 4 -4 5c-19 19 -32 47 -37 70c-5 32 -1 65 6 96c6 22 15 43 28 65c13 17 23 37 40 55c3 4 6 8 9 10c15 14 28 27 43 40c7 7 15 14 23 20c4 3 39 35 56 48c4 4 9 7 14 11c-12 48 -32 99 -51 145
c0 1 -14 -32 -19 -41c-4 -7 -8 -13 -12 -19c-29 -37 -64 -67 -108 -84c-13 -6 -26 -8 -37 -8c-21 3 -34 12 -40 34c-3 8 -4 18 -1 29c2 19 14 39 22 58c11 24 24 39 43 58c8 8 15 13 22 18c5 4 13 7 19 10c13 6 28 9 42 12zM265 33c-10 -7 -26 -20 -35 -27
c-18 -15 -34 -32 -51 -46c-29 -24 -53 -52 -75 -81c-9 -11 -15 -23 -21 -34c-15 -27 -22 -55 -25 -85c-3 -31 3 -60 20 -86c12 -20 28 -38 46 -53c18 -14 125 -73 166 9c10 16 35 59 28 138c-3 100 -34 201 -42 229c-4 14 -7 27 -11 36z" />
    <glyph glyph-name="h" unicode="h" horiz-adv-x="603" 
d="M148 794c19 4 43 -2 58 -12c17 -11 28 -25 39 -41c8 -12 18 -38 19 -58c1 -14 2 -30 1 -43c-2 -29 -7 -59 -16 -88c-5 -17 -28 -87 -43 -117c-18 -33 -25 -49 -77 -136c-8 -14 -17 -26 -26 -38c-7 -9 -16 -22 -23 -30l-40 -56c4 -49 17 -113 23 -160c2 -19 6 2 6 2
c9 25 20 81 30 107c3 7 8 19 12 27c3 5 10 14 12 18c21 33 38 45 70 63c9 3 21 8 40 5c9 -1 19 -7 25 -16c7 -12 12 -21 17 -32c8 -19 14 -42 20 -61c5 -32 23 -81 33 -112c5 -20 13 -36 29 -56c29 -27 65 -31 94 -11c32 22 66 53 92 90c10 14 42 63 54 78c8 11 12 25 19 37
c3 8 5 19 12 15c3 0 9 0 9 -5c-4 -31 -80 -136 -101 -159c-45 -48 -76 -86 -127 -90c-11 -1 -25 2 -38 7c-39 15 -61 84 -64 92c-6 16 -25 95 -28 109c-8 28 -17 57 -34 84c-9 10 -16 20 -41 12c-33 -17 -58 -44 -76 -76c-17 -28 -32 -87 -39 -116l-10 -36
c-5 -12 -5 -24 -6 -35c0 -25 -4 -46 -1 -70c0 -3 0 -5 -1 -7c-7 -14 -19 -6 -22 0c-4 13 -4 16 -4 18c-2 30 1 60 1 89l-2 19l-13 107c-2 19 -5 31 -9 50l-6 28c-1 7 -4 18 -6 28c-3 17 -24 151 -31 191c-3 17 -6 37 -8 56c-7 86 9 146 17 166c11 28 34 68 50 88
c20 26 43 41 63 55c13 9 32 17 47 20zM175 774c-43 9 -79 -26 -101 -44c-10 -8 -19 -21 -25 -30c-12 -18 -23 -32 -29 -50c-33 -73 -41 -136 -20 -264c6 -21 20 -103 24 -131c3 -25 6 -35 8 -50c0 0 2 -14 2 -11c0 0 0 2 6 10c26 41 59 81 71 100c13 20 22 36 34 55
c62 103 92 215 101 286c1 7 3 36 -3 58c-5 17 -14 31 -23 43c-16 17 -26 26 -45 28z" />
    <glyph glyph-name="i" unicode="i" horiz-adv-x="304" 
d="M37 342c16 -2 15 -23 13 -25c-2 -1 -5 -6 -14 -2c-3 0 -4 2 -7 2c-7 6 -10 10 -8 16c3 5 8 9 16 9zM32 252c9 -4 5 -12 6 -21c1 -30 0 -55 4 -85c0 -23 5 -91 9 -107c6 -24 26 -50 47 -51c20 -1 45 4 61 16c31 24 49 40 73 67c23 26 84 100 89 101c11 3 12 -5 7 -18
c-5 -6 -10 -13 -14 -16c-28 -26 -36 -46 -45 -56c-35 -39 -65 -73 -105 -101c-13 -7 -27 -13 -41 -14c-61 -6 -82 33 -92 70c-5 16 -11 85 -10 136c-3 18 -6 67 2 77c4 3 8 3 9 2z" />
    <glyph glyph-name="iacute" unicode="&#xed;" horiz-adv-x="328" 
d="M109 499c7 2 13 6 16 -4c4 -6 7 -12 4 -19c0 -6 -7 -13 -16 -16c-23 -7 -45 -22 -64 -38c-7 -3 -10 -10 -13 -9c-7 -3 -14 -2 -17 2c-8 13 61 64 90 84zM61 342c16 -2 15 -23 13 -25c-2 -1 -5 -6 -14 -2c-3 0 -4 2 -7 2c-7 6 -10 10 -8 16c3 5 8 9 16 9zM56 252
c9 -4 5 -12 6 -21c1 -30 0 -55 4 -85c0 -23 5 -91 9 -107c6 -24 26 -50 47 -51c20 -1 45 4 61 16c31 24 49 40 73 67c23 26 84 100 89 101c11 3 12 -5 7 -18c-5 -6 -10 -13 -14 -16c-28 -26 -36 -46 -45 -56c-35 -39 -65 -73 -105 -101c-13 -7 -27 -13 -41 -14
c-61 -6 -82 33 -92 70c-5 16 -11 85 -10 136c-3 18 -6 67 2 77c4 3 8 3 9 2z" />
    <glyph glyph-name="icircumflex" unicode="&#xee;" horiz-adv-x="333" 
d="M109 508c24 -20 45 -44 61 -72c1 -2 3 -6 2 -9c0 -2 -1 -6 -3 -7c-3 -4 -9 -2 -11 -1c-2 4 -4 7 -7 11c-9 11 -17 23 -26 33c-6 9 -14 16 -26 18c-11 -4 -15 -13 -22 -20c-12 -11 -22 -22 -33 -33c-3 -4 -9 -7 -13 -11c-5 -2 -9 -1 -11 2c-4 3 -3 8 -1 11l9 9
c23 20 45 39 61 66c5 6 13 7 20 3zM106 342c16 -2 15 -23 13 -25c-2 -1 -5 -6 -14 -2c-3 0 -4 2 -7 2c-7 6 -10 10 -8 16c3 5 8 9 16 9zM101 252c9 -4 5 -12 6 -21c1 -30 0 -55 4 -85c0 -23 5 -91 9 -107c6 -24 26 -50 47 -51c20 -1 45 4 61 16c31 24 49 40 73 67
c23 26 84 100 89 101c11 3 12 -5 7 -18c-5 -6 -10 -13 -14 -16c-28 -26 -36 -46 -45 -56c-35 -39 -65 -73 -105 -101c-13 -7 -27 -13 -41 -14c-61 -6 -82 33 -92 70c-5 16 -11 85 -10 136c-3 18 -6 67 2 77c4 3 8 3 9 2z" />
    <glyph glyph-name="idieresis" unicode="&#xef;" horiz-adv-x="308" 
d="M158 487c6 -4 11 -10 10 -21c-2 -20 -29 -18 -32 -15c-1 2 -7 6 -1 18c0 4 2 5 2 9c8 7 13 11 21 9zM43 484c6 -4 11 -10 10 -21c-2 -20 -29 -18 -32 -15c-1 2 -7 6 -1 18c0 4 2 5 2 9c8 7 13 11 21 9zM91 342c16 -2 15 -23 13 -25c-2 -1 -5 -6 -14 -2c-3 0 -4 2 -7 2
c-7 6 -10 10 -8 16c3 5 8 9 16 9zM86 252c9 -4 5 -12 6 -21c1 -30 0 -55 4 -85c0 -23 5 -91 9 -107c6 -24 26 -50 47 -51c20 -1 45 4 61 16c31 24 49 40 73 67c23 26 84 100 89 101c11 3 12 -5 7 -18c-5 -6 -10 -13 -14 -16c-28 -26 -36 -46 -45 -56
c-35 -39 -65 -73 -105 -101c-13 -7 -27 -13 -41 -14c-61 -6 -82 33 -92 70c-5 16 -11 85 -10 136c-3 18 -6 67 2 77c4 3 8 3 9 2z" />
    <glyph glyph-name="igrave" unicode="&#xec;" horiz-adv-x="351" 
d="M36 499c6 3 15 0 22 -7c17 -17 40 -30 63 -40c6 -5 13 -4 14 -7c6 -5 8 -12 6 -16c-8 -13 -85 25 -116 42c-5 5 -11 9 -4 16c4 6 8 12 15 12zM84 342c16 -2 15 -23 13 -25c-2 -1 -5 -6 -14 -2c-3 0 -4 2 -7 2c-7 6 -10 10 -8 16c3 5 8 9 16 9zM79 252c9 -4 5 -12 6 -21
c1 -30 0 -55 4 -85c0 -23 5 -91 9 -107c6 -24 26 -50 47 -51c20 -1 45 4 61 16c31 24 49 40 73 67c23 26 84 100 89 101c11 3 12 -5 7 -18c-5 -6 -10 -13 -14 -16c-28 -26 -36 -46 -45 -56c-35 -39 -65 -73 -105 -101c-13 -7 -27 -13 -41 -14c-61 -6 -82 33 -92 70
c-5 16 -11 85 -10 136c-3 18 -6 67 2 77c4 3 8 3 9 2z" />
    <glyph glyph-name="ij" unicode="&#x133;" horiz-adv-x="639" 
d="M29 317c-7 6 -10 10 -8 16c3 5 8 9 16 9c16 -2 15 -23 13 -25c-2 -1 -5 -6 -14 -2c-3 0 -4 2 -7 2zM304 307c-10 0 -14 4 -14 13c4 5 11 7 19 9c5 -1 7 -1 12 -6v-5c-4 -7 -8 -11 -17 -11zM673 175c5 -5 -4 -12 -10 -14h-8c-9 0 -17 1 -27 0c-56 -8 -74 -19 -128 -37
c-9 -3 -29 -14 -50 -25c-20 -9 -36 -21 -53 -31c-7 -4 -15 -10 -22 -15c0 -2 1 -5 1 -5c6 -27 10 -47 18 -72c3 -12 3 -23 8 -36c4 -17 7 -38 10 -54c0 -3 1 -4 1 -6c5 -19 9 -37 11 -58c1 -18 1 -38 4 -57c0 -4 4 -47 4 -60c-2 -11 0 -23 0 -34c0 -12 -9 -100 -18 -132
c-7 -23 -38 -77 -58 -101c-6 -10 -17 -18 -27 -28c-12 -12 -23 -22 -43 -31c-5 -3 -17 -4 -29 -7c-18 -1 -37 7 -50 19c-8 8 -18 15 -22 25c-5 8 -12 16 -17 23c-4 6 -5 10 -6 14c-9 18 -15 33 -20 50c-6 22 -31 97 -28 181c1 21 8 43 12 63c5 26 26 70 30 81
c7 18 15 29 25 46c17 21 29 44 45 64c17 20 31 39 53 57l6 6c6 7 17 16 26 23c13 14 25 25 41 39c-2 7 -9 23 -11 30c-5 19 -8 26 -14 45l-3 11c-4 -4 -7 -9 -10 -11c-28 -26 -36 -46 -45 -56c-35 -39 -65 -73 -105 -101c-13 -7 -27 -13 -41 -14c-61 -6 -82 33 -92 70
c-5 16 -11 85 -10 136c-3 18 -6 67 2 77c4 3 8 3 9 2c9 -4 5 -12 6 -21c1 -30 0 -55 4 -85c0 -23 5 -91 9 -107c6 -24 26 -50 47 -51c20 -1 45 4 61 16c31 24 49 40 73 67c21 24 74 88 87 99l-5 16c-2 12 -3 24 -6 37c1 6 5 6 9 9c8 2 14 -1 16 -8c0 -13 2 -25 4 -38l13 -56
l19 -52c2 -9 7 -3 12 0c11 6 21 12 29 18c9 6 20 10 30 16c13 7 29 16 45 22c34 13 68 25 104 33c17 4 29 8 42 9c10 3 20 2 32 0c4 0 6 -1 10 -1zM394 -106c-5 23 -20 105 -33 138c0 1 -2 8 -4 12c-9 -7 -9 -11 -23 -20c-25 -23 -85 -82 -102 -105
c-21 -29 -69 -117 -74 -129c-2 -6 -4 -12 -6 -16c-1 -4 -3 -8 -4 -12c-1 -5 -3 -12 -5 -16c-5 -24 -11 -48 -11 -70c0 -6 4 -62 5 -78c1 -10 3 -20 6 -31c4 -16 10 -32 24 -80l14 -33c8 -16 18 -30 32 -43c9 -8 19 -15 30 -19l18 -1c9 2 14 5 20 8c11 5 25 12 33 22
c11 9 19 18 27 28c18 21 31 43 43 66c9 14 11 30 17 44c4 19 5 40 8 62c1 9 4 50 4 58c0 29 -4 117 -6 126c0 4 -1 9 -3 14c-1 9 -2 18 -2 25c-1 17 -6 34 -8 50z" />
    <glyph glyph-name="j" unicode="j" horiz-adv-x="345" 
d="M15 329c5 -1 7 -1 12 -6v-5c-4 -7 -8 -11 -17 -11c-10 0 -14 4 -14 13c4 5 11 7 19 9zM23 232c8 2 14 -1 16 -8c0 -13 2 -25 4 -38l13 -56l19 -52c2 -9 7 -3 12 0c11 6 21 12 29 18c9 6 20 10 30 16c13 7 29 16 45 22c34 13 68 25 104 33c17 4 29 8 42 9c10 3 20 2 32 0
c4 0 6 -1 10 -1c5 -5 -4 -12 -10 -14h-8c-9 0 -17 1 -27 0c-56 -8 -74 -19 -128 -37c-9 -3 -29 -14 -50 -25c-20 -9 -36 -21 -53 -31c-7 -4 -15 -10 -22 -15c0 -2 1 -5 1 -5c6 -27 10 -47 18 -72c3 -12 3 -23 8 -36c4 -17 7 -38 10 -54c0 -3 1 -4 1 -6c5 -19 9 -37 11 -58
c1 -18 1 -38 4 -57c0 -4 4 -47 4 -60c-2 -11 0 -23 0 -34c0 -12 -9 -100 -18 -132c-7 -23 -38 -77 -58 -101c-6 -10 -17 -18 -27 -28c-12 -12 -23 -22 -43 -31c-5 -3 -17 -4 -29 -7c-18 -1 -37 7 -50 19c-8 8 -18 15 -22 25c-5 8 -12 16 -17 23c-4 6 -5 10 -6 14
c-9 18 -15 33 -20 50c-6 22 -31 97 -28 181c1 21 8 43 12 63c5 26 26 70 30 81c7 18 15 29 25 46c17 21 29 44 45 64c17 20 31 39 53 57l6 6c6 7 17 16 26 23c13 14 25 25 41 39c-2 7 -9 23 -11 30c-5 19 -8 26 -14 45c-5 17 -8 33 -13 48c-2 12 -3 24 -6 37c1 6 5 6 9 9z
M63 44c-9 -7 -9 -11 -23 -20c-25 -23 -85 -82 -102 -105c-21 -29 -69 -117 -74 -129c-2 -6 -4 -12 -6 -16c-1 -4 -3 -8 -4 -12c-1 -5 -3 -12 -5 -16c-5 -24 -11 -48 -11 -70c0 -6 4 -62 5 -78c1 -10 3 -20 6 -31c4 -16 10 -32 24 -80l14 -33c8 -16 18 -30 32 -43
c9 -8 19 -15 30 -19l18 -1c9 2 14 5 20 8c11 5 25 12 33 22c11 9 19 18 27 28c18 21 31 43 43 66c9 14 11 30 17 44c4 19 5 40 8 62c1 9 4 50 4 58c0 29 -4 117 -6 126c0 4 -1 9 -3 14c-1 9 -2 18 -2 25c-1 17 -6 34 -8 50c-5 23 -20 105 -33 138c0 1 -2 8 -4 12z" />
    <glyph glyph-name="k" unicode="k" horiz-adv-x="494" 
d="M146 884c17 -13 26 -33 35 -51c39 -82 -5 -321 -10 -353c-6 -29 -15 -59 -23 -88c-2 -12 -7 -23 -10 -33c-3 -13 -44 -108 -58 -135c-16 -24 -32 -47 -50 -69c5 -30 10 -63 16 -93c-1 -2 1 -8 2 -11l9 35c1 6 7 27 9 33c-4 7 -10 10 -13 21c3 5 7 9 10 10c3 2 9 3 14 4
s9 4 9 5c8 48 61 94 80 109c14 12 18 14 25 19c8 6 18 11 27 16c31 14 63 29 97 24c42 -7 56 -40 36 -70c-10 -12 -24 -27 -40 -39c-62 -39 -85 -53 -151 -71c-6 -2 -20 -6 -27 -9c10 -10 10 -8 21 -16c4 -3 109 -72 125 -80c28 -15 29 -27 77 -26c10 0 24 5 31 13l8 12
c1 6 2 16 2 22c1 6 -4 34 -4 39c1 17 11 19 19 16c8 -5 9 -13 10 -18c3 -20 6 -54 -10 -80c-15 -18 -36 -28 -56 -28c-3 0 -9 2 -14 2c-30 3 -78 34 -118 58c-4 3 -12 8 -18 11c-12 8 -22 14 -33 21c-3 1 -6 4 -7 5c-17 12 -36 23 -54 34c-4 2 -12 8 -18 4
c-8 -3 -13 -27 -15 -49c-1 -29 -6 -139 -4 -166c1 -12 1 -25 2 -36c1 -13 3 -24 1 -36c-7 -9 -18 -14 -24 -2c-10 40 -12 79 -25 207l-3 24c-2 15 -15 85 -18 96c-1 9 -14 60 -16 77c-3 24 -28 176 -27 222v22c-10 215 87 470 181 398zM125 871c-25 11 -45 -7 -59 -32
c-13 -21 -22 -40 -32 -59c-3 -10 -6 -20 -11 -30c-6 -17 -10 -29 -14 -46c-3 -13 -29 -93 -26 -265c2 -28 8 -57 10 -85c4 -26 21 -130 27 -158c1 -3 4 -19 5 -14c4 1 30 38 40 57c37 69 82 213 85 236c4 18 20 125 22 145c3 71 8 89 3 155c-1 22 -7 45 -19 64
c-8 12 -19 24 -31 32zM306 307c-22 0 -43 -5 -61 -14c-14 -7 -31 -13 -44 -23c-16 -9 -30 -20 -44 -34c-13 -11 -25 -28 -38 -44c-6 -11 -13 -21 -15 -36c20 3 39 6 57 12c13 3 24 6 36 11c28 12 67 28 111 62c13 10 23 24 26 41c0 4 6 25 -28 25z" />
    <glyph glyph-name="l" unicode="l" horiz-adv-x="236" 
d="M136 907c8 -1 18 2 29 -2c23 -8 40 -28 53 -54c13 -24 22 -49 27 -73c2 -25 9 -49 10 -75c6 -58 -15 -188 -18 -201c-2 -13 -6 -27 -10 -39c-7 -31 -20 -61 -34 -93c-13 -29 -27 -58 -47 -84c-21 -29 -46 -64 -74 -89c-12 -11 -23 -23 -37 -32l18 -93
c8 -33 16 -66 25 -98c7 0 11 -10 15 -12c6 -12 9 -27 6 -39c-1 -5 -6 -9 -12 -12c-6 0 -11 3 -13 5c-3 4 -7 7 -8 10c-5 22 -5 46 -11 68c-10 31 -16 65 -24 97l-15 78l-2 13c-7 46 -13 92 -14 120c-2 17 -6 102 -7 122c-1 12 0 64 1 78c3 47 8 96 13 144
c9 89 44 164 66 203c9 16 17 24 29 38c7 7 18 16 34 20zM140 886c-18 -4 -32 -22 -43 -37c-66 -87 -97 -330 -77 -584c2 -21 6 -58 11 -81c10 5 20 15 51 48c24 27 49 62 65 90c17 28 31 56 42 87c5 11 9 21 13 35c8 24 33 128 35 231c0 28 -3 56 -8 84
c-6 38 -31 120 -63 126c-14 4 -18 1 -26 1z" />
    <glyph glyph-name="ldot" unicode="&#x140;" horiz-adv-x="236" 
d="M136 907c8 -1 18 2 29 -2c23 -8 40 -28 53 -54c13 -24 22 -49 27 -73c2 -25 9 -49 10 -75c6 -58 -15 -188 -18 -201c-2 -13 -6 -27 -10 -39c-7 -31 -20 -61 -34 -93c-13 -29 -27 -58 -47 -84c-21 -29 -46 -64 -74 -89c-12 -11 -23 -23 -37 -32l18 -93
c8 -33 16 -66 25 -98c7 0 11 -10 15 -12c6 -12 9 -27 6 -39c-1 -5 -6 -9 -12 -12c-6 0 -11 3 -13 5c-3 4 -7 7 -8 10c-5 22 -5 46 -11 68c-10 31 -16 65 -24 97l-15 78l-2 13c-7 46 -13 92 -14 120c-2 17 -6 102 -7 122c-1 12 0 64 1 78c3 47 8 96 13 144
c9 89 44 164 66 203c9 16 17 24 29 38c7 7 18 16 34 20zM140 886c-18 -4 -32 -22 -43 -37c-66 -87 -97 -330 -77 -584c2 -21 6 -58 11 -81c10 5 20 15 51 48c24 27 49 62 65 90c17 28 31 56 42 87c5 11 9 21 13 35c8 24 33 128 35 231c0 28 -3 56 -8 84
c-6 38 -31 120 -63 126c-14 4 -18 1 -26 1zM-58 330c21 -3 20 -30 17 -33c-3 -1 -7 -8 -18 -2c-4 0 -6 2 -10 2c-9 8 -13 13 -10 21c4 7 10 12 21 12z" />
    <glyph glyph-name="m" unicode="m" horiz-adv-x="882" 
d="M23 304c2 -2 4 -2 3 -3c6 -8 6 -17 7 -27c2 -27 4 -55 19 -167c0 -11 2 -24 3 -36c0 -33 8 3 14 14c6 13 35 60 50 74c25 26 44 43 80 50c13 3 29 2 40 -9c18 -18 24 -41 27 -66c2 -22 5 -41 3 -62c0 -2 -1 -22 0 -24l7 16c7 11 27 57 39 73c14 24 56 69 103 57
c18 -4 25 -23 38 -58c7 -27 18 -52 31 -77c5 -9 11 -17 15 -26c6 -6 11 -14 15 -21c24 -34 56 -57 91 -77c13 -7 26 -11 40 -14l37 -7c46 -5 86 9 120 42c33 31 55 70 71 112c8 16 11 34 16 50l4 6l3 2l3 -1l3 -4l1 -2c-5 -48 -25 -91 -51 -131c-16 -25 -72 -98 -167 -91
l-20 2c-18 0 -34 7 -51 13c-11 6 -22 10 -34 18c-25 12 -42 33 -62 51c-26 28 -43 59 -60 90c-8 15 -11 30 -17 46c-7 16 -13 46 -33 57c-16 7 -32 1 -45 -9c-21 -15 -37 -35 -50 -58c-12 -21 -21 -46 -30 -68c-6 -18 -10 -31 -13 -48c0 -4 -2 -6 -2 -9c-5 -7 -9 -8 -16 -4
c0 0 -2 1 -2 2c-3 8 -4 16 -2 24c1 55 0 74 0 93c0 28 -2 55 -15 79c-5 9 -12 15 -24 16c-52 0 -94 -57 -110 -81c-8 -13 -16 -27 -23 -40s-11 -28 -15 -42c-3 -12 -5 -27 -8 -40c-2 -3 -4 -4 -8 -5c-5 -2 -10 1 -12 7c2 20 3 39 1 57l-1 14c2 24 -12 134 -13 149
c-2 23 -4 48 -7 68c-2 7 -2 13 -1 21c2 5 5 5 8 4z" />
    <glyph glyph-name="n" unicode="n" horiz-adv-x="542" 
d="M27 253c5 -7 6 -16 6 -24c0 -26 1 -51 2 -74c1 -22 1 -44 2 -65c0 -4 1 -17 2 -20c5 9 12 28 16 35c9 18 21 34 35 47c9 8 53 50 93 41c10 -4 15 -7 19 -19c1 -4 2 -6 2 -18v-56c0 -28 1 -56 5 -84c4 -22 9 -44 19 -63c8 -18 34 -48 87 -50c67 -2 115 56 171 137
c67 98 66 132 78 137c7 2 12 -5 4 -22c-9 -18 -27 -65 -71 -134c-18 -28 -51 -65 -76 -87c-13 -12 -44 -49 -96 -49c-25 0 -67 10 -91 31c-16 14 -27 34 -35 53c-3 7 -4 15 -6 23c-2 9 -6 77 -5 99v9c-1 18 -3 36 -3 55c-1 6 -2 12 -6 18c-21 14 -50 -8 -74 -29
c-22 -20 -38 -41 -48 -69c-7 -18 -15 -38 -21 -57c-5 -3 -7 -5 -11 -5c-2 0 -4 0 -6 2c-3 4 -3 9 -3 14c2 19 2 39 3 58c0 3 1 7 1 11c1 19 0 37 -1 57c-2 22 -4 86 -4 90c2 5 5 8 12 8z" />
    <glyph glyph-name="ntilde" unicode="&#xf1;" horiz-adv-x="542" 
d="M265 406c5 0 8 -4 8 -8c2 -2 2 -2 2 -4c-4 -23 -10 -45 -26 -65c-9 -11 -20 -16 -37 -16c-13 0 -26 5 -38 15l-30 28c-8 8 -19 15 -30 17c-25 5 -45 2 -62 -17c-5 -7 -10 -15 -15 -23c-3 -7 -8 -11 -11 -7c-5 3 -5 10 -4 15c12 35 52 60 88 53c7 -1 13 -3 18 -6
c11 -8 22 -17 32 -25c8 -7 16 -15 25 -22c21 -13 44 -8 55 13c6 9 8 21 12 31c2 5 2 11 5 16c1 2 5 5 8 5zM27 253c5 -7 6 -16 6 -24c0 -26 1 -51 2 -74c1 -22 1 -44 2 -65c0 -4 1 -17 2 -20c5 9 12 28 16 35c9 18 21 34 35 47c9 8 53 50 93 41c10 -4 15 -7 19 -19
c1 -4 2 -6 2 -18v-56c0 -28 1 -56 5 -84c4 -22 9 -44 19 -63c8 -18 34 -48 87 -50c67 -2 115 56 171 137c67 98 66 132 78 137c7 2 12 -5 4 -22c-9 -18 -27 -65 -71 -134c-18 -28 -51 -65 -76 -87c-13 -12 -44 -49 -96 -49c-25 0 -67 10 -91 31c-16 14 -27 34 -35 53
c-3 7 -4 15 -6 23c-2 9 -6 77 -5 99v9c-1 18 -3 36 -3 55c-1 6 -2 12 -6 18c-21 14 -50 -8 -74 -29c-22 -20 -38 -41 -48 -69c-7 -18 -15 -38 -21 -57c-5 -3 -7 -5 -11 -5c-2 0 -4 0 -6 2c-3 4 -3 9 -3 14c2 19 2 39 3 58c0 3 1 7 1 11c1 19 0 37 -1 57c-2 22 -4 86 -4 90
c2 5 5 8 12 8z" />
    <glyph glyph-name="o" unicode="o" horiz-adv-x="317" 
d="M45 190c13 1 32 0 44 -6c4 -2 12 -5 26 -16c24 -19 32 -53 30 -81c6 0 11 0 16 1c14 2 41 6 69 19l17 8c13 7 26 15 41 24c16 10 25 16 40 29c6 5 21 25 26 14c-2 -9 -7 -18 -18 -29c-14 -13 -48 -39 -88 -58c-16 -8 -29 -14 -47 -19c-10 -3 -25 -6 -35 -7
c-7 -1 -18 -1 -25 -2c0 -5 -4 -12 -4 -15c-8 -19 -14 -36 -26 -48c-17 -17 -35 -22 -56 -22c-9 0 -15 2 -23 4c-26 12 -30 34 -28 59c1 15 8 31 11 46c-6 4 -8 5 -12 7c-12 6 -22 17 -24 32c-5 42 43 59 66 60zM29 168c-25 -7 -31 -22 -31 -32c3 -10 10 -16 19 -21
c0 0 7 -5 7 -4c12 17 20 37 32 54c-8 4 -14 6 -27 3zM83 158c-1 -5 1 -10 -4 -14c-6 -4 -10 -5 -15 -5c-18 -18 -14 -20 -26 -37c23 -15 51 -22 85 -17c0 13 0 24 -2 32c-5 19 -23 37 -38 41zM30 84c-7 -16 -11 -35 -10 -53c0 -10 5 -18 14 -23c7 -4 15 -7 20 -7
c19 -1 32 1 46 17c15 17 20 33 22 47c-33 -2 -41 1 -55 4c-12 3 -23 6 -37 15z" />
    <glyph glyph-name="oacute" unicode="&#xf3;" horiz-adv-x="317" 
d="M98 330c7 2 13 6 16 -4c4 -6 7 -12 4 -19c0 -6 -7 -13 -16 -16c-23 -7 -45 -22 -64 -38c-7 -3 -10 -10 -13 -9c-7 -3 -14 -2 -17 2c-8 13 61 64 90 84zM45 190c13 1 32 0 44 -6c4 -2 12 -5 26 -16c24 -19 32 -53 30 -81c6 0 11 0 16 1c14 2 41 6 69 19l17 8
c13 7 26 15 41 24c16 10 25 16 40 29c6 5 21 25 26 14c-2 -9 -7 -18 -18 -29c-14 -13 -48 -39 -88 -58c-16 -8 -29 -14 -47 -19c-10 -3 -25 -6 -35 -7c-7 -1 -18 -1 -25 -2c0 -5 -4 -12 -4 -15c-8 -19 -14 -36 -26 -48c-17 -17 -35 -22 -56 -22c-9 0 -15 2 -23 4
c-26 12 -30 34 -28 59c1 15 8 31 11 46c-6 4 -8 5 -12 7c-12 6 -22 17 -24 32c-5 42 43 59 66 60zM29 168c-25 -7 -31 -22 -31 -32c3 -10 10 -16 19 -21c0 0 7 -5 7 -4c12 17 20 37 32 54c-8 4 -14 6 -27 3zM83 158c-1 -5 1 -10 -4 -14c-6 -4 -10 -5 -15 -5
c-18 -18 -14 -20 -26 -37c23 -15 51 -22 85 -17c0 13 0 24 -2 32c-5 19 -23 37 -38 41zM30 84c-7 -16 -11 -35 -10 -53c0 -10 5 -18 14 -23c7 -4 15 -7 20 -7c19 -1 32 1 46 17c15 17 20 33 22 47c-33 -2 -41 1 -55 4c-12 3 -23 6 -37 15z" />
    <glyph glyph-name="ocircumflex" unicode="&#xf4;" horiz-adv-x="317" 
d="M90 348c24 -20 45 -44 61 -72c1 -2 3 -6 2 -9c0 -2 -1 -6 -3 -7c-3 -4 -9 -2 -11 -1c-2 4 -4 7 -7 11c-9 11 -17 23 -26 33c-6 9 -14 16 -26 18c-11 -4 -15 -13 -22 -20c-12 -11 -22 -22 -33 -33c-3 -4 -9 -7 -13 -11c-5 -2 -9 -1 -11 2c-4 3 -3 8 -1 11l9 9
c23 20 45 39 61 66c5 6 13 7 20 3zM45 190c13 1 32 0 44 -6c4 -2 12 -5 26 -16c24 -19 32 -53 30 -81c6 0 11 0 16 1c14 2 41 6 69 19l17 8c13 7 26 15 41 24c16 10 25 16 40 29c6 5 21 25 26 14c-2 -9 -7 -18 -18 -29c-14 -13 -48 -39 -88 -58c-16 -8 -29 -14 -47 -19
c-10 -3 -25 -6 -35 -7c-7 -1 -18 -1 -25 -2c0 -5 -4 -12 -4 -15c-8 -19 -14 -36 -26 -48c-17 -17 -35 -22 -56 -22c-9 0 -15 2 -23 4c-26 12 -30 34 -28 59c1 15 8 31 11 46c-6 4 -8 5 -12 7c-12 6 -22 17 -24 32c-5 42 43 59 66 60zM29 168c-25 -7 -31 -22 -31 -32
c3 -10 10 -16 19 -21c0 0 7 -5 7 -4c12 17 20 37 32 54c-8 4 -14 6 -27 3zM83 158c-1 -5 1 -10 -4 -14c-6 -4 -10 -5 -15 -5c-18 -18 -14 -20 -26 -37c23 -15 51 -22 85 -17c0 13 0 24 -2 32c-5 19 -23 37 -38 41zM30 84c-7 -16 -11 -35 -10 -53c0 -10 5 -18 14 -23
c7 -4 15 -7 20 -7c19 -1 32 1 46 17c15 17 20 33 22 47c-33 -2 -41 1 -55 4c-12 3 -23 6 -37 15z" />
    <glyph glyph-name="odieresis" unicode="&#xf6;" horiz-adv-x="317" 
d="M138 306c6 -4 11 -10 10 -21c-2 -20 -29 -18 -32 -15c-1 2 -7 6 -1 18c0 4 2 5 2 9c8 7 13 11 21 9zM23 303c6 -4 11 -10 10 -21c-2 -20 -29 -18 -32 -15c-1 2 -7 6 -1 18c0 4 2 5 2 9c8 7 13 11 21 9zM45 190c13 1 32 0 44 -6c4 -2 12 -5 26 -16c24 -19 32 -53 30 -81
c6 0 11 0 16 1c14 2 41 6 69 19l17 8c13 7 26 15 41 24c16 10 25 16 40 29c6 5 21 25 26 14c-2 -9 -7 -18 -18 -29c-14 -13 -48 -39 -88 -58c-16 -8 -29 -14 -47 -19c-10 -3 -25 -6 -35 -7c-7 -1 -18 -1 -25 -2c0 -5 -4 -12 -4 -15c-8 -19 -14 -36 -26 -48
c-17 -17 -35 -22 -56 -22c-9 0 -15 2 -23 4c-26 12 -30 34 -28 59c1 15 8 31 11 46c-6 4 -8 5 -12 7c-12 6 -22 17 -24 32c-5 42 43 59 66 60zM29 168c-25 -7 -31 -22 -31 -32c3 -10 10 -16 19 -21c0 0 7 -5 7 -4c12 17 20 37 32 54c-8 4 -14 6 -27 3zM83 158
c-1 -5 1 -10 -4 -14c-6 -4 -10 -5 -15 -5c-18 -18 -14 -20 -26 -37c23 -15 51 -22 85 -17c0 13 0 24 -2 32c-5 19 -23 37 -38 41zM30 84c-7 -16 -11 -35 -10 -53c0 -10 5 -18 14 -23c7 -4 15 -7 20 -7c19 -1 32 1 46 17c15 17 20 33 22 47c-33 -2 -41 1 -55 4
c-12 3 -23 6 -37 15z" />
    <glyph glyph-name="ograve" unicode="&#xf2;" horiz-adv-x="317" 
d="M23 299c6 3 15 0 22 -7c17 -17 40 -30 63 -40c6 -5 13 -4 14 -7c6 -5 8 -12 6 -16c-8 -13 -85 25 -116 42c-5 5 -11 9 -4 16c4 6 8 12 15 12zM45 190c13 1 32 0 44 -6c4 -2 12 -5 26 -16c24 -19 32 -53 30 -81c6 0 11 0 16 1c14 2 41 6 69 19l17 8c13 7 26 15 41 24
c16 10 25 16 40 29c6 5 21 25 26 14c-2 -9 -7 -18 -18 -29c-14 -13 -48 -39 -88 -58c-16 -8 -29 -14 -47 -19c-10 -3 -25 -6 -35 -7c-7 -1 -18 -1 -25 -2c0 -5 -4 -12 -4 -15c-8 -19 -14 -36 -26 -48c-17 -17 -35 -22 -56 -22c-9 0 -15 2 -23 4c-26 12 -30 34 -28 59
c1 15 8 31 11 46c-6 4 -8 5 -12 7c-12 6 -22 17 -24 32c-5 42 43 59 66 60zM29 168c-25 -7 -31 -22 -31 -32c3 -10 10 -16 19 -21c0 0 7 -5 7 -4c12 17 20 37 32 54c-8 4 -14 6 -27 3zM83 158c-1 -5 1 -10 -4 -14c-6 -4 -10 -5 -15 -5c-18 -18 -14 -20 -26 -37
c23 -15 51 -22 85 -17c0 13 0 24 -2 32c-5 19 -23 37 -38 41zM30 84c-7 -16 -11 -35 -10 -53c0 -10 5 -18 14 -23c7 -4 15 -7 20 -7c19 -1 32 1 46 17c15 17 20 33 22 47c-33 -2 -41 1 -55 4c-12 3 -23 6 -37 15z" />
    <glyph glyph-name="oslash" unicode="&#xf8;" horiz-adv-x="317" 
d="M328 168c6 5 21 25 26 14c-2 -9 -7 -18 -18 -29c-14 -13 -48 -39 -88 -58c-16 -8 -29 -14 -47 -19c-10 -3 -25 -6 -35 -7c-7 -1 -18 -1 -25 -2c0 -5 -4 -12 -4 -15c-8 -19 -14 -36 -26 -48c-17 -17 -35 -22 -56 -22h-6c-12 -23 -19 -45 -34 -75c-5 -10 -9 -19 -17 -23
c0 -3 -2 -1 -4 -3c-3 2 -7 1 -7 7c3 9 5 16 11 23c8 19 21 40 31 64l6 10c-1 0 -2 1 -3 1c-26 12 -30 34 -28 59c1 15 8 31 11 46c-6 4 -8 5 -12 7c-12 6 -22 17 -24 32c-5 42 43 59 66 60c13 1 32 0 44 -6c4 -2 11 -5 23 -14l20 60c11 17 15 39 21 60c4 5 9 7 13 4
c2 -4 2 -5 4 -10c-3 -8 -6 -17 -8 -26c-3 -11 -7 -24 -12 -33c-1 -3 -21 -57 -21 -63l-3 -2l-1 -2c16 -19 22 -47 20 -71c6 0 11 0 16 1c14 2 41 6 69 19l17 8c13 7 26 15 41 24c16 10 25 16 40 29zM-2 136c3 -10 10 -16 19 -21c0 0 7 -5 7 -4c12 17 20 37 32 54
c-8 4 -14 6 -27 3c-25 -7 -31 -22 -31 -32zM79 144c-6 -4 -10 -5 -15 -5c-18 -18 -14 -20 -26 -37c12 -8 26 -14 41 -16c9 21 18 44 24 60c-6 6 -13 10 -20 12c-1 -5 1 -10 -4 -14zM106 111l-12 -27c9 -1 19 0 29 1c0 13 0 24 -2 32c-1 5 -4 10 -7 15zM34 8l10 -5
c1 3 2 5 3 7l24 58c-1 0 -3 1 -4 1c-12 3 -23 6 -37 15c-7 -16 -11 -35 -10 -53c0 -10 5 -18 14 -23zM100 18c15 17 20 33 22 47c-18 -1 -28 -1 -36 0l-20 -46c-3 -7 -5 -13 -8 -18c17 -1 29 2 42 17z" />
    <glyph glyph-name="otilde" unicode="&#xf5;" horiz-adv-x="317" 
d="M194 333c5 0 8 -4 8 -8c2 -2 2 -2 2 -4c-4 -23 -10 -45 -26 -65c-9 -11 -20 -16 -37 -16c-13 0 -26 5 -38 15l-30 28c-8 8 -19 15 -30 17c-25 5 -45 2 -62 -17c-5 -7 -10 -15 -15 -23c-3 -7 -8 -11 -11 -7c-5 3 -5 10 -4 15c12 35 52 60 88 53c7 -1 13 -3 18 -6
c11 -8 22 -17 32 -25c8 -7 16 -15 25 -22c21 -13 44 -8 55 13c6 9 8 21 12 31c2 5 2 11 5 16c1 2 5 5 8 5zM45 190c13 1 32 0 44 -6c4 -2 12 -5 26 -16c24 -19 32 -53 30 -81c6 0 11 0 16 1c14 2 41 6 69 19l17 8c13 7 26 15 41 24c16 10 25 16 40 29c6 5 21 25 26 14
c-2 -9 -7 -18 -18 -29c-14 -13 -48 -39 -88 -58c-16 -8 -29 -14 -47 -19c-10 -3 -25 -6 -35 -7c-7 -1 -18 -1 -25 -2c0 -5 -4 -12 -4 -15c-8 -19 -14 -36 -26 -48c-17 -17 -35 -22 -56 -22c-9 0 -15 2 -23 4c-26 12 -30 34 -28 59c1 15 8 31 11 46c-6 4 -8 5 -12 7
c-12 6 -22 17 -24 32c-5 42 43 59 66 60zM29 168c-25 -7 -31 -22 -31 -32c3 -10 10 -16 19 -21c0 0 7 -5 7 -4c12 17 20 37 32 54c-8 4 -14 6 -27 3zM83 158c-1 -5 1 -10 -4 -14c-6 -4 -10 -5 -15 -5c-18 -18 -14 -20 -26 -37c23 -15 51 -22 85 -17c0 13 0 24 -2 32
c-5 19 -23 37 -38 41zM30 84c-7 -16 -11 -35 -10 -53c0 -10 5 -18 14 -23c7 -4 15 -7 20 -7c19 -1 32 1 46 17c15 17 20 33 22 47c-33 -2 -41 1 -55 4c-12 3 -23 6 -37 15z" />
    <glyph glyph-name="oe" unicode="&#x153;" horiz-adv-x="657" 
d="M677 175c6 13 22 13 19 3c-6 -16 -13 -25 -17 -40c-3 -10 -7 -20 -11 -29c-11 -20 -20 -40 -32 -58c-10 -18 -23 -34 -38 -48c-22 -21 -44 -41 -71 -56c-32 -19 -65 -26 -102 -23c-16 1 -31 8 -44 18c-28 23 -45 46 -55 79c-3 11 -7 22 -7 33c-5 25 -4 49 0 73l2 13
c-17 -13 -43 -31 -73 -45c-16 -8 -29 -14 -47 -19c-10 -3 -25 -6 -35 -7c-7 -1 -18 -1 -25 -2c0 -5 -4 -12 -4 -15c-8 -19 -14 -36 -26 -48c-17 -17 -35 -22 -56 -22c-9 0 -15 2 -23 4c-26 12 -30 34 -28 59c1 15 8 31 11 46c-6 4 -8 5 -12 7c-12 6 -22 17 -24 32
c-5 42 43 59 66 60c13 1 32 0 44 -6c4 -2 12 -5 26 -16c24 -19 32 -53 30 -81c6 0 11 0 16 1c14 2 41 6 69 19l17 8c13 7 26 15 41 24c16 10 25 16 41 30c7 18 18 36 40 59c7 6 13 12 21 15c6 4 14 5 23 8c14 2 32 4 44 -15c6 -19 -4 -41 -14 -61c-11 -17 -25 -39 -39 -49
s-17 -15 -40 -24c-10 -3 -19 -3 -26 -5c-3 -5 -2 -12 -2 -18s1 -13 1 -18l7 -32c1 -6 5 -13 7 -19c13 -30 36 -50 71 -63c3 -1 7 -1 10 -2c11 -2 38 2 52 6c41 11 66 37 96 66c16 14 28 30 40 47c6 9 12 21 17 30c16 26 27 53 40 81zM375 209c-9 -11 -17 -22 -23 -34l-3 -6
c-5 -11 -9 -23 -12 -35c-1 -4 -2 -9 1 -13c14 1 27 6 40 13c29 16 45 41 57 71c3 9 6 19 -1 23c-13 7 -26 3 -34 0s-19 -11 -25 -19zM-2 136c3 -10 10 -16 19 -21c0 0 7 -5 7 -4c12 17 20 37 32 54c-8 4 -14 6 -27 3c-25 -7 -31 -22 -31 -32zM38 102c23 -15 51 -22 85 -17
c0 13 0 24 -2 32c-5 19 -23 37 -38 41c-1 -5 1 -10 -4 -14c-6 -4 -10 -5 -15 -5c-18 -18 -14 -20 -26 -37zM100 18c15 17 20 33 22 47c-33 -2 -41 1 -55 4c-12 3 -23 6 -37 15c-7 -16 -11 -35 -10 -53c0 -10 5 -18 14 -23c7 -4 15 -7 20 -7c19 -1 32 1 46 17z" />
    <glyph glyph-name="p" unicode="p" horiz-adv-x="510" 
d="M35 248c8 -3 4 -8 5 -14c2 -39 6 -78 7 -116c1 -47 3 -87 6 -134c3 -34 2 -69 4 -102c1 -14 3 3 6 21c3 19 7 38 10 58l3 20c3 21 11 40 16 62c3 13 11 31 20 48c8 19 24 40 40 54c18 17 38 29 62 37l12 3c25 2 48 1 70 -14c13 -9 22 -21 24 -38c3 -25 -1 -46 -18 -70
c-11 -16 -23 -29 -38 -41c-1 -2 -9 -8 -10 -9c0 -3 15 2 19 3c34 10 68 24 102 39c16 7 33 15 49 24c29 17 55 34 76 60l15 17c7 5 15 17 20 19c8 3 10 -6 4 -17c-7 -13 -17 -24 -28 -36c-31 -30 -69 -52 -105 -72c-23 -13 -44 -21 -67 -31c-35 -14 -72 -22 -109 -32
c-15 -4 -30 -9 -44 -14c-7 -3 -14 -5 -23 -7c-5 -1 -12 -2 -16 0c-8 2 -10 13 -3 19c5 3 13 6 20 8c8 2 16 3 25 6c12 4 26 11 34 16c20 13 37 28 53 47c13 14 22 30 26 50c6 27 -6 45 -31 53c-30 11 -58 2 -84 -14c-26 -15 -47 -42 -60 -70c-8 -17 -14 -34 -18 -47l-11 -37
c-8 -35 -13 -70 -17 -105c-5 -46 -11 -93 -14 -139c-2 -22 -3 -44 -5 -66l-3 -27c-1 -9 1 -21 -6 -26c-5 -3 -11 0 -11 10v42c1 31 -5 237 -8 288c-3 54 -6 102 -10 233c0 11 1 23 2 36c2 5 6 6 9 5z" />
    <glyph glyph-name="thorn" unicode="&#xfe;" horiz-adv-x="510" 
d="M30 488c8 -3 4 -8 5 -14c2 -39 6 -78 7 -116c1 -47 8 -327 11 -374c3 -34 2 -69 4 -102c1 -14 3 3 6 21c3 19 7 38 10 58l3 20c3 21 11 40 16 62c3 13 11 31 20 48c8 19 24 40 40 54c18 17 38 29 62 37l12 3c25 2 48 1 70 -14c13 -9 22 -21 24 -38c3 -25 -1 -46 -18 -70
c-11 -16 -23 -29 -38 -41c-1 -2 -9 -8 -10 -9c0 -3 15 2 19 3c34 10 68 24 102 39c16 7 33 15 49 24c29 17 55 34 76 60l15 17c7 5 15 17 20 19c8 3 10 -6 4 -17c-7 -13 -17 -24 -28 -36c-31 -30 -69 -52 -105 -72c-23 -13 -44 -21 -67 -31c-35 -14 -72 -22 -109 -32
c-15 -4 -30 -9 -44 -14c-7 -3 -14 -5 -23 -7c-5 -1 -12 -2 -16 0c-8 2 -10 13 -3 19c5 3 13 6 20 8c8 2 16 3 25 6c12 4 26 11 34 16c20 13 37 28 53 47c13 14 22 30 26 50c6 27 -6 45 -31 53c-30 11 -58 2 -84 -14c-26 -15 -47 -42 -60 -70c-8 -17 -14 -34 -18 -47l-11 -37
c-8 -35 -13 -70 -17 -105c-5 -46 -11 -93 -14 -139c-2 -22 -3 -44 -5 -66l-3 -27c-1 -9 1 -21 -6 -26c-5 -3 -11 0 -11 10v42c1 31 -5 237 -8 288c-3 54 -11 342 -15 473c0 11 1 23 2 36c2 5 6 6 9 5z" />
    <glyph glyph-name="q" unicode="q" horiz-adv-x="579" 
d="M141 246c14 -1 24 -6 36 -12c11 -7 24 -21 36 -36c2 5 6 7 10 9c11 5 18 0 20 -11c2 -4 3 -14 -1 -20c1 -15 1 -29 0 -45c-2 -27 -1 -56 -3 -85l-5 -82c-2 -17 -6 -88 -8 -110l-1 -17c-3 -28 -16 -124 -13 -153c-1 -27 -4 -55 -1 -82c1 -32 12 -57 29 -84
c15 -22 44 -28 68 -17c22 15 40 28 55 54c20 33 35 70 49 105c8 26 16 56 18 83c9 40 4 90 3 110c-1 49 -20 117 -35 133c-5 7 -13 11 -21 15c-5 3 -12 5 -18 9c-6 3 -9 7 -7 13c-2 6 4 9 9 11l52 12c32 9 72 29 101 48c31 24 46 42 78 71c3 3 3 14 12 12c6 -4 7 -11 2 -18
l-10 -13c-13 -18 -32 -38 -51 -52l-46 -32c-24 -15 -43 -22 -66 -31l-37 -14c4 -4 17 -16 31 -47c28 -75 31 -131 24 -191c-5 -59 -17 -109 -33 -153l-16 -40c-14 -33 -35 -66 -62 -90c-39 -33 -91 -36 -122 20c-16 24 -25 51 -28 82c-1 39 -3 79 2 117c5 28 10 125 18 214
c0 6 3 13 3 21c2 33 6 64 7 98c0 29 -3 55 -2 85l-1 23c-1 5 -15 -13 -19 -17l-39 -51c-20 -28 -44 -55 -69 -79c-14 -13 -25 -21 -47 -27c-8 -3 -14 -3 -19 -4c-23 3 -38 17 -41 40c-5 14 -3 26 -3 38c7 40 10 78 36 122c21 31 39 40 62 55c19 12 38 16 63 13zM98 220
c-11 -6 -22 -14 -29 -21c-47 -52 -68 -103 -71 -155l1 -20c4 -11 14 -26 32 -22c17 3 30 10 40 21l53 52c14 15 25 33 40 51c14 18 26 32 38 50l-20 27c-27 23 -56 27 -84 17z" />
    <glyph glyph-name="r" unicode="r" horiz-adv-x="268" 
d="M5 323c9 0 17 -2 27 -6c7 -4 13 -8 16 -15c2 -5 13 -24 4 -60c-8 -33 -16 -54 -12 -58c16 9 15 10 27 16c2 1 5 4 9 6c11 5 80 50 93 53c3 0 7 -2 9 -6c-1 -14 1 -25 1 -42v-12c-2 -9 1 -108 0 -116c2 -17 1 -38 11 -88c-1 -4 1 -8 2 -12c2 -10 4 -21 5 -36
c2 -7 1 -16 -1 -28c-3 1 -3 0 -4 -1c-9 3 -7 -2 -16 4l1 8l-1 25c1 11 -4 22 -3 31l-6 44c-2 18 -6 97 -7 118l-2 38c1 4 -1 8 0 15c1 23 0 31 -3 36c-7 -3 -15 -9 -31 -19c-6 -4 -10 -8 -16 -10c-9 -5 -66 -41 -74 -46c-8 -10 -21 -14 -22 0c-3 -2 -28 -3 -46 4
c-7 3 -10 4 -16 8c-9 5 -17 15 -21 22c-3 5 -17 44 3 78c7 12 19 44 73 49zM20 305c-7 2 -17 1 -24 0s-13 -5 -18 -6c-18 -10 -39 -32 -40 -51c-1 -7 -6 -41 20 -57c13 -8 24 -13 41 -13h21c2 6 7 23 7 26c2 12 7 23 8 31c3 17 4 34 4 47c-3 14 -10 19 -19 23z" />
    <glyph glyph-name="s" unicode="s" horiz-adv-x="426" 
d="M138 230c9 -1 20 -3 26 -4c22 -5 39 -11 56 -26c7 -8 13 -15 9 -30c-5 -6 -5 -11 -14 -5c-7 10 -17 23 -30 28c-23 15 -45 16 -67 13c-9 -1 -16 -2 -30 -7c-3 0 -12 -5 -17 -7c-21 -10 -33 -23 -44 -35c-4 -6 -7 -14 -6 -20c0 -2 1 -2 2 -5c5 -8 11 -14 22 -21
c10 -6 18 -10 24 -12c8 -4 15 -8 23 -11c22 -10 44 -19 64 -34l30 17c9 3 20 9 30 13c32 17 176 66 202 79c5 1 17 8 27 11c10 -3 10 -3 8 -12c-4 -9 -25 -15 -53 -26c-37 -17 -185 -68 -220 -91c-7 -4 -8 -4 1 -9c17 -12 20 -34 18 -56c-5 -32 -22 -56 -46 -71
c-7 -5 -14 -7 -24 -11c-10 -3 -26 -3 -39 -1c-8 1 -19 7 -29 19c-3 3 -8 7 -11 17c-4 10 -4 19 1 29c6 18 20 34 36 45c7 6 17 12 27 19c7 7 19 10 26 19c-4 1 -4 4 -6 4c-10 6 -17 11 -28 15c-18 8 -34 13 -52 20c-20 8 -37 22 -50 40c-3 8 -4 15 -3 22c2 8 4 15 8 24
c7 12 20 23 32 31c14 10 30 16 44 22c13 3 21 6 53 7zM159 30c-14 -8 -20 -10 -30 -16c-18 -13 -35 -25 -48 -43c-8 -9 -11 -16 -8 -35c5 -12 14 -14 26 -19c8 -2 18 -2 29 0c12 5 20 9 28 20c13 14 30 31 25 62c-4 11 -7 21 -22 31z" />
    <glyph glyph-name="germandbls" unicode="&#xdf;" horiz-adv-x="641" 
d="M474 774c22 -3 37 -7 51 -15c32 -14 46 -24 64 -60c4 -4 7 -19 7 -26c2 -13 -3 -54 -28 -90c-21 -34 -52 -54 -65 -67c-10 -7 -47 -39 -59 -44c-24 -13 -25 -11 2 -13l12 -2c25 -7 48 -18 66 -37c82 -82 52 -281 -43 -375c-54 -56 -117 -102 -197 -137
c-40 -18 -91 -31 -138 -35c-24 -4 -52 0 -73 9c-14 4 -14 18 -24 32c2 2 -1 7 -1 12c0 7 3 14 8 25c0 5 21 22 23 38c0 19 1 34 2 48l4 54c2 0 5 43 8 68c12 311 81 453 189 545c27 22 54 40 67 46c15 7 31 13 48 18c13 4 24 6 36 6c15 2 32 1 41 0zM451 751
c-3 0 -6 -1 -11 0c-8 -1 -17 -2 -22 -4c-30 -3 -56 -15 -84 -31c-26 -16 -69 -57 -92 -81c-79 -92 -108 -226 -129 -469c-2 -22 -1 -39 -3 -59c-2 -13 -1 -23 -2 -36v-10l6 7c15 10 19 14 29 23c30 23 60 43 96 57c11 5 21 6 31 9c3 0 7 1 10 -1c7 2 17 -6 16 -15
c-1 -6 -9 -11 -13 -16h-12c-36 3 -64 -17 -95 -36c-21 -17 -42 -35 -57 -54c-10 -11 -19 -24 -18 -37c-3 -13 -3 -23 -5 -36c1 -4 -2 -9 -7 -12c-3 -4 -7 -6 -7 -7c-11 -5 -12 -16 -6 -28c6 -8 12 -11 23 -13c10 -4 23 -4 30 -4c30 -5 59 2 85 10c208 68 276 173 297 211
c44 77 41 163 39 193c-10 83 -49 100 -63 111c-14 8 -37 13 -59 14c-6 1 -16 1 -26 1c-21 -1 -35 -6 -52 -11c-66 -18 -64 -21 -119 -40c-1 -1 -6 -1 -9 -2c-8 -1 -11 5 -11 10c0 7 4 15 13 19c10 7 22 9 35 13c27 11 56 17 82 27c53 18 46 16 98 46c31 18 59 36 83 62
c14 14 30 32 40 49c15 31 22 58 13 78c-13 26 -31 36 -50 46c-20 14 -48 15 -74 16z" />
    <glyph glyph-name="t" unicode="t" horiz-adv-x="507" 
d="M71 728c3 -2 3 -3 4 -5c-5 -21 -7 -44 -10 -63c-1 -6 0 -11 -1 -15c-4 -29 -6 -56 -7 -83l-3 -62c1 -7 -1 -17 0 -21c4 0 10 2 11 2c12 4 27 6 42 8c21 2 38 7 64 9l56 5c14 1 26 2 37 2c21 1 42 3 63 3c42 2 86 7 127 13c38 5 64 8 88 15c6 2 13 2 21 4
c16 3 106 22 130 26c35 10 70 21 105 38c1 4 4 6 7 7c1 2 3 3 2 6c2 5 1 12 2 22c3 5 5 9 11 13c12 1 17 -8 21 -16c-1 -5 1 -12 -1 -17c0 -6 -2 -10 -6 -16c-15 -12 -32 -20 -48 -29c-36 -15 -151 -40 -189 -49c-30 -4 -58 -8 -87 -14c-20 -3 -43 -7 -65 -8
c-28 -4 -53 -7 -77 -10c-36 -4 -61 -5 -98 -9c-20 0 -32 1 -50 -1c-5 0 -15 0 -22 -1c-23 -5 -51 -6 -77 -9c-21 -4 -66 -11 -66 -14c-1 -15 -3 -33 -3 -48c1 -26 -2 -53 -2 -191c1 -26 -2 -50 0 -80c2 -31 6 -61 15 -91c5 -25 15 -52 25 -76c9 -19 17 -34 29 -52
c19 -24 38 -47 61 -66c14 -8 39 -18 55 -19c42 -6 74 26 89 38c16 18 38 35 54 59c15 21 18 22 26 37l22 32c12 22 63 98 74 119c7 14 20 45 31 59c24 3 9 -5 -8 -53c-11 -22 -21 -44 -39 -68c-18 -30 -39 -62 -60 -94c-37 -70 -121 -135 -141 -142c-5 -2 -15 -10 -47 -8
c-25 1 -58 16 -76 30c-24 19 -44 42 -61 64c-7 14 -16 25 -24 42c-7 14 -13 26 -17 41l-12 43c-5 16 -8 31 -12 48c-2 11 -3 25 -5 37c-4 27 -4 58 -5 85c-1 33 1 116 0 131c2 31 5 108 5 119c-21 -2 -36 -6 -53 -13c-20 -5 -37 -14 -57 -22c-31 -16 -59 -33 -81 -59
c-8 -7 -12 -11 -23 -10c-3 3 -9 4 -9 9c1 5 3 7 2 8c5 11 16 20 28 28c24 17 54 29 84 45c7 4 69 24 80 25c10 3 24 7 31 10c1 0 1 7 1 13c1 22 1 45 4 68c5 20 3 45 13 139l4 22c3 6 9 14 18 10z" />
    <glyph glyph-name="u" unicode="u" horiz-adv-x="554" 
d="M183 227c5 -3 1 -8 2 -12c-2 -10 -3 -22 -3 -32c-1 -12 -3 -24 -3 -36c0 -17 2 -39 5 -55c8 -26 25 -46 52 -63c36 -17 60 -11 86 -6c39 8 75 25 101 41c30 18 90 61 98 69c21 15 38 29 55 49c3 2 5 1 6 -1c5 -9 -9 -28 -35 -47c-21 -21 -93 -79 -146 -100
c-11 -6 -31 -15 -52 -22c-18 -8 -64 -14 -87 -8c-13 1 -43 14 -47 18c-27 15 -43 36 -51 64c-4 16 -4 33 -6 53c0 6 1 15 -1 22c0 -5 -2 -8 -5 -14c-1 -4 -22 -46 -32 -62c-9 -16 -22 -32 -36 -46c-5 -5 -15 -12 -21 -16c-19 -12 -28 -11 -41 -5c-12 9 -16 17 -22 31
c-1 5 -3 14 -3 20c0 46 12 70 18 108c2 9 7 25 11 31c2 2 7 1 3 1c2 -1 7 0 8 -7c1 -2 -2 -14 -3 -20l-10 -63c0 -12 -6 -17 -3 -56c2 -12 4 -19 13 -26c10 -4 23 3 28 7c13 12 22 18 32 34c16 28 31 51 42 79c2 5 5 10 5 12c3 9 6 14 10 25c3 9 4 18 8 28c8 5 13 10 24 5z
" />
    <glyph glyph-name="uacute" unicode="&#xfa;" horiz-adv-x="554" 
d="M133 369c7 2 13 6 16 -4c4 -6 7 -12 4 -19c0 -6 -7 -13 -16 -16c-23 -7 -45 -22 -64 -38c-7 -3 -10 -10 -13 -9c-7 -3 -14 -2 -17 2c-8 13 61 64 90 84zM183 227c5 -3 1 -8 2 -12c-2 -10 -3 -22 -3 -32c-1 -12 -3 -24 -3 -36c0 -17 2 -39 5 -55c8 -26 25 -46 52 -63
c36 -17 60 -11 86 -6c39 8 75 25 101 41c30 18 90 61 98 69c21 15 38 29 55 49c3 2 5 1 6 -1c5 -9 -9 -28 -35 -47c-21 -21 -93 -79 -146 -100c-11 -6 -31 -15 -52 -22c-18 -8 -64 -14 -87 -8c-13 1 -43 14 -47 18c-27 15 -43 36 -51 64c-4 16 -4 33 -6 53c0 6 1 15 -1 22
c0 -5 -2 -8 -5 -14c-1 -4 -22 -46 -32 -62c-9 -16 -22 -32 -36 -46c-5 -5 -15 -12 -21 -16c-19 -12 -28 -11 -41 -5c-12 9 -16 17 -22 31c-1 5 -3 14 -3 20c0 46 12 70 18 108c2 9 7 25 11 31c2 2 7 1 3 1c2 -1 7 0 8 -7c1 -2 -2 -14 -3 -20l-10 -63c0 -12 -6 -17 -3 -56
c2 -12 4 -19 13 -26c10 -4 23 3 28 7c13 12 22 18 32 34c16 28 31 51 42 79c2 5 5 10 5 12c3 9 6 14 10 25c3 9 4 18 8 28c8 5 13 10 24 5z" />
    <glyph glyph-name="ucircumflex" unicode="&#xfb;" horiz-adv-x="554" 
d="M134 401c24 -20 45 -44 61 -72c1 -2 3 -6 2 -9c0 -2 -1 -6 -3 -7c-3 -4 -9 -2 -11 -1c-2 4 -4 7 -7 11c-9 11 -17 23 -26 33c-6 9 -14 16 -26 18c-11 -4 -15 -13 -22 -20c-12 -11 -22 -22 -33 -33c-3 -4 -9 -7 -13 -11c-5 -2 -9 -1 -11 2c-4 3 -3 8 -1 11l9 9
c23 20 45 39 61 66c5 6 13 7 20 3zM183 227c5 -3 1 -8 2 -12c-2 -10 -3 -22 -3 -32c-1 -12 -3 -24 -3 -36c0 -17 2 -39 5 -55c8 -26 25 -46 52 -63c36 -17 60 -11 86 -6c39 8 75 25 101 41c30 18 90 61 98 69c21 15 38 29 55 49c3 2 5 1 6 -1c5 -9 -9 -28 -35 -47
c-21 -21 -93 -79 -146 -100c-11 -6 -31 -15 -52 -22c-18 -8 -64 -14 -87 -8c-13 1 -43 14 -47 18c-27 15 -43 36 -51 64c-4 16 -4 33 -6 53c0 6 1 15 -1 22c0 -5 -2 -8 -5 -14c-1 -4 -22 -46 -32 -62c-9 -16 -22 -32 -36 -46c-5 -5 -15 -12 -21 -16c-19 -12 -28 -11 -41 -5
c-12 9 -16 17 -22 31c-1 5 -3 14 -3 20c0 46 12 70 18 108c2 9 7 25 11 31c2 2 7 1 3 1c2 -1 7 0 8 -7c1 -2 -2 -14 -3 -20l-10 -63c0 -12 -6 -17 -3 -56c2 -12 4 -19 13 -26c10 -4 23 3 28 7c13 12 22 18 32 34c16 28 31 51 42 79c2 5 5 10 5 12c3 9 6 14 10 25
c3 9 4 18 8 28c8 5 13 10 24 5z" />
    <glyph glyph-name="udieresis" unicode="&#xfc;" horiz-adv-x="554" 
d="M171 346c6 -4 11 -10 10 -21c-2 -20 -29 -18 -32 -15c-1 2 -7 6 -1 18c0 4 2 5 2 9c8 7 13 11 21 9zM56 343c6 -4 11 -10 10 -21c-2 -20 -29 -18 -32 -15c-1 2 -7 6 -1 18c0 4 2 5 2 9c8 7 13 11 21 9zM183 227c5 -3 1 -8 2 -12c-2 -10 -3 -22 -3 -32
c-1 -12 -3 -24 -3 -36c0 -17 2 -39 5 -55c8 -26 25 -46 52 -63c36 -17 60 -11 86 -6c39 8 75 25 101 41c30 18 90 61 98 69c21 15 38 29 55 49c3 2 5 1 6 -1c5 -9 -9 -28 -35 -47c-21 -21 -93 -79 -146 -100c-11 -6 -31 -15 -52 -22c-18 -8 -64 -14 -87 -8
c-13 1 -43 14 -47 18c-27 15 -43 36 -51 64c-4 16 -4 33 -6 53c0 6 1 15 -1 22c0 -5 -2 -8 -5 -14c-1 -4 -22 -46 -32 -62c-9 -16 -22 -32 -36 -46c-5 -5 -15 -12 -21 -16c-19 -12 -28 -11 -41 -5c-12 9 -16 17 -22 31c-1 5 -3 14 -3 20c0 46 12 70 18 108c2 9 7 25 11 31
c2 2 7 1 3 1c2 -1 7 0 8 -7c1 -2 -2 -14 -3 -20l-10 -63c0 -12 -6 -17 -3 -56c2 -12 4 -19 13 -26c10 -4 23 3 28 7c13 12 22 18 32 34c16 28 31 51 42 79c2 5 5 10 5 12c3 9 6 14 10 25c3 9 4 18 8 28c8 5 13 10 24 5z" />
    <glyph glyph-name="ugrave" unicode="&#xf9;" horiz-adv-x="554" 
d="M61 351c6 3 15 0 22 -7c17 -17 40 -30 63 -40c6 -5 13 -4 14 -7c6 -5 8 -12 6 -16c-8 -13 -85 25 -116 42c-5 5 -11 9 -4 16c4 6 8 12 15 12zM183 227c5 -3 1 -8 2 -12c-2 -10 -3 -22 -3 -32c-1 -12 -3 -24 -3 -36c0 -17 2 -39 5 -55c8 -26 25 -46 52 -63
c36 -17 60 -11 86 -6c39 8 75 25 101 41c30 18 90 61 98 69c21 15 38 29 55 49c3 2 5 1 6 -1c5 -9 -9 -28 -35 -47c-21 -21 -93 -79 -146 -100c-11 -6 -31 -15 -52 -22c-18 -8 -64 -14 -87 -8c-13 1 -43 14 -47 18c-27 15 -43 36 -51 64c-4 16 -4 33 -6 53c0 6 1 15 -1 22
c0 -5 -2 -8 -5 -14c-1 -4 -22 -46 -32 -62c-9 -16 -22 -32 -36 -46c-5 -5 -15 -12 -21 -16c-19 -12 -28 -11 -41 -5c-12 9 -16 17 -22 31c-1 5 -3 14 -3 20c0 46 12 70 18 108c2 9 7 25 11 31c2 2 7 1 3 1c2 -1 7 0 8 -7c1 -2 -2 -14 -3 -20l-10 -63c0 -12 -6 -17 -3 -56
c2 -12 4 -19 13 -26c10 -4 23 3 28 7c13 12 22 18 32 34c16 28 31 51 42 79c2 5 5 10 5 12c3 9 6 14 10 25c3 9 4 18 8 28c8 5 13 10 24 5z" />
    <glyph glyph-name="v" unicode="v" horiz-adv-x="399" 
d="M191 207c12 -5 16 -14 18 -23s6 -18 13 -26c16 -11 33 -11 54 -14c13 -2 31 -1 52 1c51 9 84 30 91 34c2 0 4 1 4 1c1 0 1 1 4 2c4 1 14 0 1 -14c-11 -15 -27 -17 -43 -24c-14 -5 -29 -11 -43 -15c-37 -6 -61 -5 -71 -4c-21 2 -40 5 -57 14c-2 0 -6 6 -8 7
c-1 -2 0 -8 0 -9l-3 -37c-3 -23 -6 -44 -13 -65c-6 -20 -18 -44 -28 -65c-2 -3 -35 -70 -65 -74c-26 -4 -55 30 -70 64c-40 92 -19 191 -18 197c3 16 6 31 10 44c0 7 13 15 20 -1c5 -11 -2 -27 -6 -40c-9 -19 -11 -38 -12 -58c-3 -48 8 -102 31 -142c18 -30 39 -36 45 -35
c17 2 25 16 48 56c13 22 30 68 33 88c4 25 7 51 8 77c0 17 -5 35 -6 53c2 9 7 8 11 8z" />
    <glyph glyph-name="w" unicode="w" horiz-adv-x="592" 
d="M27 202c9 1 17 0 24 -10c-3 -22 -21 -72 -24 -95s-4 -45 -5 -68c0 -21 2 -44 8 -69c5 -11 8 -27 25 -33c15 3 25 14 35 26c31 34 54 73 78 113c5 4 10 4 17 0c1 -2 5 -5 7 -11c1 -2 0 -6 1 -7c-3 -31 -1 -63 10 -90c7 -18 16 -35 30 -46c3 -3 17 -10 21 -14
c21 -14 45 -12 69 -8c11 2 23 9 31 15c28 15 45 39 58 64c5 11 11 22 13 34c6 25 9 49 2 76c-3 11 -8 22 -11 31c-29 46 -74 51 -108 58c-10 5 -12 16 -10 25c3 0 7 2 11 1c12 -2 25 -5 39 -10c24 -7 39 -9 62 -13c12 -3 30 -3 43 -4c52 -6 75 -10 149 0c6 0 30 6 40 8
c7 -2 -1 -7 -5 -17l-39 -12c-84 -9 -142 3 -187 9c-1 0 -7 2 -8 -1c21 -17 34 -24 48 -78c3 -11 4 -23 5 -33c2 -43 -31 -108 -67 -141c-16 -13 -37 -25 -56 -31c-12 -5 -28 -6 -40 -4c-23 2 -42 7 -62 20c-5 2 -5 5 -8 7c-31 29 -45 66 -49 107c-1 6 0 20 -1 25
c-7 -6 -16 -18 -22 -26c-12 -18 -23 -34 -36 -52c-18 -26 -41 -49 -63 -44c-16 6 -25 19 -34 31c-28 68 -12 238 9 267z" />
    <glyph glyph-name="wacute" unicode="&#x1e83;" horiz-adv-x="592" 
d="M227 348c7 2 13 6 16 -4c4 -6 7 -12 4 -19c0 -6 -7 -13 -16 -16c-23 -7 -45 -22 -64 -38c-7 -3 -10 -10 -13 -9c-7 -3 -14 -2 -17 2c-8 13 61 64 90 84zM27 202c9 1 17 0 24 -10c-3 -22 -21 -72 -24 -95s-4 -45 -5 -68c0 -21 2 -44 8 -69c5 -11 8 -27 25 -33
c15 3 25 14 35 26c31 34 54 73 78 113c5 4 10 4 17 0c1 -2 5 -5 7 -11c1 -2 0 -6 1 -7c-3 -31 -1 -63 10 -90c7 -18 16 -35 30 -46c3 -3 17 -10 21 -14c21 -14 45 -12 69 -8c11 2 23 9 31 15c28 15 45 39 58 64c5 11 11 22 13 34c6 25 9 49 2 76c-3 11 -8 22 -11 31
c-29 46 -74 51 -108 58c-10 5 -12 16 -10 25c3 0 7 2 11 1c12 -2 25 -5 39 -10c24 -7 39 -9 62 -13c12 -3 30 -3 43 -4c52 -6 75 -10 149 0c6 0 30 6 40 8c7 -2 -1 -7 -5 -17l-39 -12c-84 -9 -142 3 -187 9c-1 0 -7 2 -8 -1c21 -17 34 -24 48 -78c3 -11 4 -23 5 -33
c2 -43 -31 -108 -67 -141c-16 -13 -37 -25 -56 -31c-12 -5 -28 -6 -40 -4c-23 2 -42 7 -62 20c-5 2 -5 5 -8 7c-31 29 -45 66 -49 107c-1 6 0 20 -1 25c-7 -6 -16 -18 -22 -26c-12 -18 -23 -34 -36 -52c-18 -26 -41 -49 -63 -44c-16 6 -25 19 -34 31c-28 68 -12 238 9 267z
" />
    <glyph glyph-name="wcircumflex" unicode="&#x175;" horiz-adv-x="592" 
d="M238 359c24 -20 45 -44 61 -72c1 -2 3 -6 2 -9c0 -2 -1 -6 -3 -7c-3 -4 -9 -2 -11 -1c-2 4 -4 7 -7 11c-9 11 -17 23 -26 33c-6 9 -14 16 -26 18c-11 -4 -15 -13 -22 -20c-12 -11 -22 -22 -33 -33c-3 -4 -9 -7 -13 -11c-5 -2 -9 -1 -11 2c-4 3 -3 8 -1 11l9 9
c23 20 45 39 61 66c5 6 13 7 20 3zM27 202c9 1 17 0 24 -10c-3 -22 -21 -72 -24 -95s-4 -45 -5 -68c0 -21 2 -44 8 -69c5 -11 8 -27 25 -33c15 3 25 14 35 26c31 34 54 73 78 113c5 4 10 4 17 0c1 -2 5 -5 7 -11c1 -2 0 -6 1 -7c-3 -31 -1 -63 10 -90c7 -18 16 -35 30 -46
c3 -3 17 -10 21 -14c21 -14 45 -12 69 -8c11 2 23 9 31 15c28 15 45 39 58 64c5 11 11 22 13 34c6 25 9 49 2 76c-3 11 -8 22 -11 31c-29 46 -74 51 -108 58c-10 5 -12 16 -10 25c3 0 7 2 11 1c12 -2 25 -5 39 -10c24 -7 39 -9 62 -13c12 -3 30 -3 43 -4c52 -6 75 -10 149 0
c6 0 30 6 40 8c7 -2 -1 -7 -5 -17l-39 -12c-84 -9 -142 3 -187 9c-1 0 -7 2 -8 -1c21 -17 34 -24 48 -78c3 -11 4 -23 5 -33c2 -43 -31 -108 -67 -141c-16 -13 -37 -25 -56 -31c-12 -5 -28 -6 -40 -4c-23 2 -42 7 -62 20c-5 2 -5 5 -8 7c-31 29 -45 66 -49 107
c-1 6 0 20 -1 25c-7 -6 -16 -18 -22 -26c-12 -18 -23 -34 -36 -52c-18 -26 -41 -49 -63 -44c-16 6 -25 19 -34 31c-28 68 -12 238 9 267z" />
    <glyph glyph-name="wdieresis" unicode="&#x1e85;" horiz-adv-x="592" 
d="M271 298c6 -4 11 -10 10 -21c-2 -20 -29 -18 -32 -15c-1 2 -7 6 -1 18c0 4 2 5 2 9c8 7 13 11 21 9zM156 295c6 -4 11 -10 10 -21c-2 -20 -29 -18 -32 -15c-1 2 -7 6 -1 18c0 4 2 5 2 9c8 7 13 11 21 9zM27 202c9 1 17 0 24 -10c-3 -22 -21 -72 -24 -95s-4 -45 -5 -68
c0 -21 2 -44 8 -69c5 -11 8 -27 25 -33c15 3 25 14 35 26c31 34 54 73 78 113c5 4 10 4 17 0c1 -2 5 -5 7 -11c1 -2 0 -6 1 -7c-3 -31 -1 -63 10 -90c7 -18 16 -35 30 -46c3 -3 17 -10 21 -14c21 -14 45 -12 69 -8c11 2 23 9 31 15c28 15 45 39 58 64c5 11 11 22 13 34
c6 25 9 49 2 76c-3 11 -8 22 -11 31c-29 46 -74 51 -108 58c-10 5 -12 16 -10 25c3 0 7 2 11 1c12 -2 25 -5 39 -10c24 -7 39 -9 62 -13c12 -3 30 -3 43 -4c52 -6 75 -10 149 0c6 0 30 6 40 8c7 -2 -1 -7 -5 -17l-39 -12c-84 -9 -142 3 -187 9c-1 0 -7 2 -8 -1
c21 -17 34 -24 48 -78c3 -11 4 -23 5 -33c2 -43 -31 -108 -67 -141c-16 -13 -37 -25 -56 -31c-12 -5 -28 -6 -40 -4c-23 2 -42 7 -62 20c-5 2 -5 5 -8 7c-31 29 -45 66 -49 107c-1 6 0 20 -1 25c-7 -6 -16 -18 -22 -26c-12 -18 -23 -34 -36 -52c-18 -26 -41 -49 -63 -44
c-16 6 -25 19 -34 31c-28 68 -12 238 9 267z" />
    <glyph glyph-name="wgrave" unicode="&#x1e81;" horiz-adv-x="592" 
d="M158 325c6 3 15 0 22 -7c17 -17 40 -30 63 -40c6 -5 13 -4 14 -7c6 -5 8 -12 6 -16c-8 -13 -85 25 -116 42c-5 5 -11 9 -4 16c4 6 8 12 15 12zM27 202c9 1 17 0 24 -10c-3 -22 -21 -72 -24 -95s-4 -45 -5 -68c0 -21 2 -44 8 -69c5 -11 8 -27 25 -33c15 3 25 14 35 26
c31 34 54 73 78 113c5 4 10 4 17 0c1 -2 5 -5 7 -11c1 -2 0 -6 1 -7c-3 -31 -1 -63 10 -90c7 -18 16 -35 30 -46c3 -3 17 -10 21 -14c21 -14 45 -12 69 -8c11 2 23 9 31 15c28 15 45 39 58 64c5 11 11 22 13 34c6 25 9 49 2 76c-3 11 -8 22 -11 31c-29 46 -74 51 -108 58
c-10 5 -12 16 -10 25c3 0 7 2 11 1c12 -2 25 -5 39 -10c24 -7 39 -9 62 -13c12 -3 30 -3 43 -4c52 -6 75 -10 149 0c6 0 30 6 40 8c7 -2 -1 -7 -5 -17l-39 -12c-84 -9 -142 3 -187 9c-1 0 -7 2 -8 -1c21 -17 34 -24 48 -78c3 -11 4 -23 5 -33c2 -43 -31 -108 -67 -141
c-16 -13 -37 -25 -56 -31c-12 -5 -28 -6 -40 -4c-23 2 -42 7 -62 20c-5 2 -5 5 -8 7c-31 29 -45 66 -49 107c-1 6 0 20 -1 25c-7 -6 -16 -18 -22 -26c-12 -18 -23 -34 -36 -52c-18 -26 -41 -49 -63 -44c-16 6 -25 19 -34 31c-28 68 -12 238 9 267z" />
    <glyph glyph-name="x" unicode="x" horiz-adv-x="505" 
d="M206 221c8 -2 13 -11 9 -18c-11 -20 -24 -42 -37 -61c-17 -26 -32 -51 -48 -76c1 -2 2 -8 7 -13c20 -26 43 -53 67 -77c23 -25 51 -37 69 -42c15 -4 36 -3 56 5c18 7 40 29 69 60c29 38 80 102 101 140c8 10 11 20 17 29c7 9 23 1 18 -6c-7 -10 -15 -24 -22 -35l-83 -122
c-17 -25 -58 -62 -73 -72c-36 -24 -37 -24 -81 -20c-43 8 -62 24 -85 47c-21 20 -38 41 -57 63c-4 7 -12 17 -20 23c-4 -2 -29 -46 -45 -63c-6 -11 -9 -19 -14 -24c-6 -12 -22 -16 -28 -3c0 10 2 15 11 19c16 16 25 35 40 55c6 11 16 20 23 33c-6 12 -20 26 -32 40l-46 47
c-9 10 -17 14 -27 22c-12 11 -23 20 -25 31c1 13 15 14 25 7c13 -12 25 -24 35 -35c22 -24 42 -45 59 -68c10 -7 17 -19 25 -28c8 9 10 14 13 19c21 33 42 69 56 104c7 9 8 17 23 19z" />
    <glyph glyph-name="y" unicode="y" horiz-adv-x="490" 
d="M238 241c2 0 4 0 5 -1c6 -5 9 -12 11 -20c3 -15 5 -31 9 -46c11 -35 24 -71 39 -105c3 -6 5 -12 7 -17s6 -12 8 -17c3 1 9 8 11 10c16 15 28 25 45 39c4 3 7 6 12 9c81 54 99 68 120 82c10 10 14 7 16 5c8 -7 -2 -16 -8 -20c-2 -2 2 -5 -13 -12
c-24 -16 -109 -71 -131 -91c-12 -9 -23 -21 -34 -29c-6 -5 -11 -11 -10 -11c3 -11 10 -29 13 -41c6 -22 11 -42 16 -64c3 -12 7 -25 9 -37c3 -16 5 -33 5 -50c0 -6 1 -12 1 -18c0 -14 1 -28 1 -43c0 -21 -2 -41 -6 -61c-2 -8 -3 -15 -4 -22c-10 -48 -32 -90 -71 -121
c-15 -12 -35 -20 -56 -25c-20 -5 -40 -6 -61 -1c-29 6 -50 22 -67 47c-6 8 -10 21 -15 31c-4 10 -7 23 -7 35v24c0 62 43 130 72 174c8 13 21 27 30 40c17 22 35 45 53 67c8 10 18 22 26 30c6 6 36 38 39 40c0 0 -7 13 -12 26c-13 34 -24 57 -37 91l-10 27c-1 5 -6 18 -7 22
c-1 2 -5 -11 -7 -15c-4 -7 -9 -24 -14 -34c-19 -39 -37 -61 -61 -96c-9 -13 -20 -26 -31 -37c-18 -18 -38 -20 -61 -17c-15 2 -27 12 -35 33c-6 20 -6 40 -7 60c-2 49 -3 57 -3 67c0 13 1 26 1 40c2 8 3 10 9 11c2 -1 5 -3 5 -5c2 -2 2 -5 2 -8c0 -28 3 -55 8 -122
c1 -9 1 -19 2 -28c2 -11 7 -16 16 -23c21 -9 37 -3 53 10s27 28 38 44c10 15 50 85 58 103c8 19 13 40 19 63c2 5 6 7 9 7zM310 4c-6 -4 -12 -13 -15 -15c-21 -24 -42 -47 -62 -72c-26 -30 -49 -61 -72 -93c-23 -34 -41 -71 -53 -110c-4 -12 -7 -25 -7 -39
c0 -17 -1 -34 4 -52c9 -26 24 -39 43 -56c14 -12 70 -25 109 -1c36 22 46 40 65 68c6 9 10 19 13 28c9 26 12 53 15 79c4 36 1 74 -5 111c-6 33 -11 66 -19 99c-3 15 -11 37 -16 53z" />
    <glyph glyph-name="yacute" unicode="&#xfd;" horiz-adv-x="490" 
d="M172 348c7 2 13 6 16 -4c4 -6 7 -12 4 -19c0 -6 -7 -13 -16 -16c-23 -7 -45 -22 -64 -38c-7 -3 -10 -10 -13 -9c-7 -3 -14 -2 -17 2c-8 13 61 64 90 84zM238 241c2 0 4 0 5 -1c6 -5 9 -12 11 -20c3 -15 5 -31 9 -46c11 -35 24 -71 39 -105c3 -6 5 -12 7 -17s6 -12 8 -17
c3 1 9 8 11 10c16 15 28 25 45 39c4 3 7 6 12 9c81 54 99 68 120 82c10 10 14 7 16 5c8 -7 -2 -16 -8 -20c-2 -2 2 -5 -13 -12c-24 -16 -109 -71 -131 -91c-12 -9 -23 -21 -34 -29c-6 -5 -11 -11 -10 -11c3 -11 10 -29 13 -41c6 -22 11 -42 16 -64c3 -12 7 -25 9 -37
c3 -16 5 -33 5 -50c0 -6 1 -12 1 -18c0 -14 1 -28 1 -43c0 -21 -2 -41 -6 -61c-2 -8 -3 -15 -4 -22c-10 -48 -32 -90 -71 -121c-15 -12 -35 -20 -56 -25c-20 -5 -40 -6 -61 -1c-29 6 -50 22 -67 47c-6 8 -10 21 -15 31c-4 10 -7 23 -7 35v24c0 62 43 130 72 174
c8 13 21 27 30 40c17 22 35 45 53 67c8 10 18 22 26 30c6 6 36 38 39 40c0 0 -7 13 -12 26c-13 34 -24 57 -37 91l-10 27c-1 5 -6 18 -7 22c-1 2 -5 -11 -7 -15c-4 -7 -9 -24 -14 -34c-19 -39 -37 -61 -61 -96c-9 -13 -20 -26 -31 -37c-18 -18 -38 -20 -61 -17
c-15 2 -27 12 -35 33c-6 20 -6 40 -7 60c-2 49 -3 57 -3 67c0 13 1 26 1 40c2 8 3 10 9 11c2 -1 5 -3 5 -5c2 -2 2 -5 2 -8c0 -28 3 -55 8 -122c1 -9 1 -19 2 -28c2 -11 7 -16 16 -23c21 -9 37 -3 53 10s27 28 38 44c10 15 50 85 58 103c8 19 13 40 19 63c2 5 6 7 9 7z
M310 4c-6 -4 -12 -13 -15 -15c-21 -24 -42 -47 -62 -72c-26 -30 -49 -61 -72 -93c-23 -34 -41 -71 -53 -110c-4 -12 -7 -25 -7 -39c0 -17 -1 -34 4 -52c9 -26 24 -39 43 -56c14 -12 70 -25 109 -1c36 22 46 40 65 68c6 9 10 19 13 28c9 26 12 53 15 79c4 36 1 74 -5 111
c-6 33 -11 66 -19 99c-3 15 -11 37 -16 53z" />
    <glyph glyph-name="ycircumflex" unicode="&#x177;" horiz-adv-x="490" 
d="M149 392c24 -20 45 -44 61 -72c1 -2 3 -6 2 -9c0 -2 -1 -6 -3 -7c-3 -4 -9 -2 -11 -1c-2 4 -4 7 -7 11c-9 11 -17 23 -26 33c-6 9 -14 16 -26 18c-11 -4 -15 -13 -22 -20c-12 -11 -22 -22 -33 -33c-3 -4 -9 -7 -13 -11c-5 -2 -9 -1 -11 2c-4 3 -3 8 -1 11l9 9
c23 20 45 39 61 66c5 6 13 7 20 3zM238 241c2 0 4 0 5 -1c6 -5 9 -12 11 -20c3 -15 5 -31 9 -46c11 -35 24 -71 39 -105c3 -6 5 -12 7 -17s6 -12 8 -17c3 1 9 8 11 10c16 15 28 25 45 39c4 3 7 6 12 9c81 54 99 68 120 82c10 10 14 7 16 5c8 -7 -2 -16 -8 -20
c-2 -2 2 -5 -13 -12c-24 -16 -109 -71 -131 -91c-12 -9 -23 -21 -34 -29c-6 -5 -11 -11 -10 -11c3 -11 10 -29 13 -41c6 -22 11 -42 16 -64c3 -12 7 -25 9 -37c3 -16 5 -33 5 -50c0 -6 1 -12 1 -18c0 -14 1 -28 1 -43c0 -21 -2 -41 -6 -61c-2 -8 -3 -15 -4 -22
c-10 -48 -32 -90 -71 -121c-15 -12 -35 -20 -56 -25c-20 -5 -40 -6 -61 -1c-29 6 -50 22 -67 47c-6 8 -10 21 -15 31c-4 10 -7 23 -7 35v24c0 62 43 130 72 174c8 13 21 27 30 40c17 22 35 45 53 67c8 10 18 22 26 30c6 6 36 38 39 40c0 0 -7 13 -12 26
c-13 34 -24 57 -37 91l-10 27c-1 5 -6 18 -7 22c-1 2 -5 -11 -7 -15c-4 -7 -9 -24 -14 -34c-19 -39 -37 -61 -61 -96c-9 -13 -20 -26 -31 -37c-18 -18 -38 -20 -61 -17c-15 2 -27 12 -35 33c-6 20 -6 40 -7 60c-2 49 -3 57 -3 67c0 13 1 26 1 40c2 8 3 10 9 11
c2 -1 5 -3 5 -5c2 -2 2 -5 2 -8c0 -28 3 -55 8 -122c1 -9 1 -19 2 -28c2 -11 7 -16 16 -23c21 -9 37 -3 53 10s27 28 38 44c10 15 50 85 58 103c8 19 13 40 19 63c2 5 6 7 9 7zM310 4c-6 -4 -12 -13 -15 -15c-21 -24 -42 -47 -62 -72c-26 -30 -49 -61 -72 -93
c-23 -34 -41 -71 -53 -110c-4 -12 -7 -25 -7 -39c0 -17 -1 -34 4 -52c9 -26 24 -39 43 -56c14 -12 70 -25 109 -1c36 22 46 40 65 68c6 9 10 19 13 28c9 26 12 53 15 79c4 36 1 74 -5 111c-6 33 -11 66 -19 99c-3 15 -11 37 -16 53z" />
    <glyph glyph-name="ydieresis" unicode="&#xff;" horiz-adv-x="490" 
d="M195 325c6 -4 11 -10 10 -21c-2 -20 -29 -18 -32 -15c-1 2 -7 6 -1 18c0 4 2 5 2 9c8 7 13 11 21 9zM80 322c6 -4 11 -10 10 -21c-2 -20 -29 -18 -32 -15c-1 2 -7 6 -1 18c0 4 2 5 2 9c8 7 13 11 21 9zM238 241c2 0 4 0 5 -1c6 -5 9 -12 11 -20c3 -15 5 -31 9 -46
c11 -35 24 -71 39 -105c3 -6 5 -12 7 -17s6 -12 8 -17c3 1 9 8 11 10c16 15 28 25 45 39c4 3 7 6 12 9c81 54 99 68 120 82c10 10 14 7 16 5c8 -7 -2 -16 -8 -20c-2 -2 2 -5 -13 -12c-24 -16 -109 -71 -131 -91c-12 -9 -23 -21 -34 -29c-6 -5 -11 -11 -10 -11
c3 -11 10 -29 13 -41c6 -22 11 -42 16 -64c3 -12 7 -25 9 -37c3 -16 5 -33 5 -50c0 -6 1 -12 1 -18c0 -14 1 -28 1 -43c0 -21 -2 -41 -6 -61c-2 -8 -3 -15 -4 -22c-10 -48 -32 -90 -71 -121c-15 -12 -35 -20 -56 -25c-20 -5 -40 -6 -61 -1c-29 6 -50 22 -67 47
c-6 8 -10 21 -15 31c-4 10 -7 23 -7 35v24c0 62 43 130 72 174c8 13 21 27 30 40c17 22 35 45 53 67c8 10 18 22 26 30c6 6 36 38 39 40c0 0 -7 13 -12 26c-13 34 -24 57 -37 91l-10 27c-1 5 -6 18 -7 22c-1 2 -5 -11 -7 -15c-4 -7 -9 -24 -14 -34c-19 -39 -37 -61 -61 -96
c-9 -13 -20 -26 -31 -37c-18 -18 -38 -20 -61 -17c-15 2 -27 12 -35 33c-6 20 -6 40 -7 60c-2 49 -3 57 -3 67c0 13 1 26 1 40c2 8 3 10 9 11c2 -1 5 -3 5 -5c2 -2 2 -5 2 -8c0 -28 3 -55 8 -122c1 -9 1 -19 2 -28c2 -11 7 -16 16 -23c21 -9 37 -3 53 10s27 28 38 44
c10 15 50 85 58 103c8 19 13 40 19 63c2 5 6 7 9 7zM310 4c-6 -4 -12 -13 -15 -15c-21 -24 -42 -47 -62 -72c-26 -30 -49 -61 -72 -93c-23 -34 -41 -71 -53 -110c-4 -12 -7 -25 -7 -39c0 -17 -1 -34 4 -52c9 -26 24 -39 43 -56c14 -12 70 -25 109 -1c36 22 46 40 65 68
c6 9 10 19 13 28c9 26 12 53 15 79c4 36 1 74 -5 111c-6 33 -11 66 -19 99c-3 15 -11 37 -16 53z" />
    <glyph glyph-name="ygrave" unicode="&#x1ef3;" horiz-adv-x="490" 
d="M80 357c6 3 15 0 22 -7c17 -17 40 -30 63 -40c6 -5 13 -4 14 -7c6 -5 8 -12 6 -16c-8 -13 -85 25 -116 42c-5 5 -11 9 -4 16c4 6 8 12 15 12zM238 241c2 0 4 0 5 -1c6 -5 9 -12 11 -20c3 -15 5 -31 9 -46c11 -35 24 -71 39 -105c3 -6 5 -12 7 -17s6 -12 8 -17
c3 1 9 8 11 10c16 15 28 25 45 39c4 3 7 6 12 9c81 54 99 68 120 82c10 10 14 7 16 5c8 -7 -2 -16 -8 -20c-2 -2 2 -5 -13 -12c-24 -16 -109 -71 -131 -91c-12 -9 -23 -21 -34 -29c-6 -5 -11 -11 -10 -11c3 -11 10 -29 13 -41c6 -22 11 -42 16 -64c3 -12 7 -25 9 -37
c3 -16 5 -33 5 -50c0 -6 1 -12 1 -18c0 -14 1 -28 1 -43c0 -21 -2 -41 -6 -61c-2 -8 -3 -15 -4 -22c-10 -48 -32 -90 -71 -121c-15 -12 -35 -20 -56 -25c-20 -5 -40 -6 -61 -1c-29 6 -50 22 -67 47c-6 8 -10 21 -15 31c-4 10 -7 23 -7 35v24c0 62 43 130 72 174
c8 13 21 27 30 40c17 22 35 45 53 67c8 10 18 22 26 30c6 6 36 38 39 40c0 0 -7 13 -12 26c-13 34 -24 57 -37 91l-10 27c-1 5 -6 18 -7 22c-1 2 -5 -11 -7 -15c-4 -7 -9 -24 -14 -34c-19 -39 -37 -61 -61 -96c-9 -13 -20 -26 -31 -37c-18 -18 -38 -20 -61 -17
c-15 2 -27 12 -35 33c-6 20 -6 40 -7 60c-2 49 -3 57 -3 67c0 13 1 26 1 40c2 8 3 10 9 11c2 -1 5 -3 5 -5c2 -2 2 -5 2 -8c0 -28 3 -55 8 -122c1 -9 1 -19 2 -28c2 -11 7 -16 16 -23c21 -9 37 -3 53 10s27 28 38 44c10 15 50 85 58 103c8 19 13 40 19 63c2 5 6 7 9 7z
M310 4c-6 -4 -12 -13 -15 -15c-21 -24 -42 -47 -62 -72c-26 -30 -49 -61 -72 -93c-23 -34 -41 -71 -53 -110c-4 -12 -7 -25 -7 -39c0 -17 -1 -34 4 -52c9 -26 24 -39 43 -56c14 -12 70 -25 109 -1c36 22 46 40 65 68c6 9 10 19 13 28c9 26 12 53 15 79c4 36 1 74 -5 111
c-6 33 -11 66 -19 99c-3 15 -11 37 -16 53z" />
    <glyph glyph-name="z" unicode="z" horiz-adv-x="651" 
d="M222 206c10 -1 11 -12 10 -18c-3 -8 -3 -16 -6 -23c-11 -38 -25 -75 -44 -113c-7 -14 -17 -33 -24 -49c5 1 7 4 9 4c12 6 26 12 34 17c23 12 47 19 67 27c16 6 51 18 62 21c33 8 63 16 92 7c10 -3 22 -6 31 -13c3 -2 15 -15 17 -17c13 11 21 15 29 20c19 12 39 25 58 36
c31 21 60 42 90 59c11 6 22 14 30 14c11 1 14 -10 -2 -19c-59 -39 -118 -75 -177 -113l-17 -13s3 -9 5 -13c14 -31 15 -61 19 -91c2 -54 -8 -104 -27 -150c-11 -28 -22 -60 -43 -86c-8 -13 -19 -24 -35 -37c-28 -23 -60 -45 -100 -58c-16 -7 -39 -11 -65 -12
c-25 -1 -49 7 -70 21c-26 15 -36 42 -36 71c-2 32 10 58 29 84c25 27 46 56 75 87c18 19 34 31 53 49c18 18 35 36 58 55c15 13 29 24 43 36c17 12 33 23 52 37l13 11c-10 15 -33 27 -54 26c-36 -2 -62 -11 -97 -20c-16 -4 -33 -13 -48 -18c-33 -12 -62 -30 -92 -47
c-7 -4 -16 -9 -25 -9c-9 1 -11 7 -9 15c6 16 54 114 67 150c4 11 8 28 12 41c-6 2 -11 0 -12 0l-71 -12c-23 -2 -47 0 -70 -1c-12 -2 -26 0 -35 4c4 19 15 20 25 20c24 0 49 -5 74 -3s57 11 83 16c8 2 16 6 22 7zM463 22c-14 -8 -22 -14 -32 -22c-31 -25 -60 -46 -89 -71
c-35 -34 -70 -65 -103 -100c-32 -33 -59 -64 -77 -100c-14 -20 -17 -44 -14 -65c6 -15 13 -25 23 -36c9 -10 30 -20 45 -20c19 -4 35 -4 54 0c28 6 54 18 79 31c38 23 71 55 92 97c15 34 29 73 39 110c7 50 12 87 -1 140c-3 14 -9 26 -16 36z" />
    <glyph glyph-name="A_alt2" horiz-adv-x="703" 
d="M392 748c15 0 29 -5 40 -13c17 -13 28 -32 32 -59l1 -3c1 -12 1 -25 1 -36c2 -23 1 -40 0 -59c0 -6 0 -12 -1 -19c0 -13 0 -26 -1 -40c0 -3 1 -6 1 -8v-6c1 0 6 -5 10 -8c2 -2 4 -4 7 -6c20 -17 43 -37 57 -57c8 -11 13 -18 21 -30l19 -29c29 -45 52 -101 65 -154
c16 -67 14 -127 -5 -175c0 -2 -1 -3 -2 -5c-1 -3 -2 -6 -4 -10c-10 -29 -21 -55 -34 -80c-3 -7 -12 -25 -21 -34c-24 -38 -39 -56 -55 -72c-8 -8 -15 -14 -26 -16c-2 -1 -4 -1 -6 -1c-6 0 -12 2 -19 6c-16 11 -31 23 -38 43c-8 14 -14 28 -16 40c-21 94 -5 239 -1 267l5 44
c0 3 0 10 1 18c2 17 4 40 5 44c2 19 4 34 6 47c4 28 7 50 10 86l2 53c-1 4 0 8 0 12v6c-1 0 -4 2 -9 5c-2 1 -5 2 -7 4c-22 13 -46 28 -78 38c-1 0 -7 2 -11 4l-4 1l-1 1h-1c-22 7 -43 12 -61 16c-35 7 -61 9 -73 10c-2 0 -4 1 -6 1c0 0 -1 0 -1 -1c-2 -2 -5 -9 -8 -15
c0 -2 -1 -3 -1 -4c-2 -4 -5 -9 -19 -56c0 -1 0 -3 -1 -5c-5 -17 -13 -44 -20 -79l-8 -84c-3 -52 1 -179 1 -202c4 -62 10 -129 23 -192c3 -8 7 -20 13 -28v-1l2 -3c2 -4 4 -9 4 -14l-1 -5c-2 -4 -6 -5 -11 -5c-4 1 -10 6 -12 10c-7 10 -13 23 -15 36c-7 31 -19 126 -20 146
c-8 91 -7 126 -4 203c1 17 2 36 2 58c1 22 9 101 31 177c3 12 10 30 16 45c4 10 7 20 8 22l-24 3c-14 1 -30 1 -47 1c-43 0 -92 -4 -126 -10c-4 -1 -7 -2 -11 -2l-11 -2c-2 0 -4 0 -6 -1c-7 0 -15 -5 -20 -11v-2c-2 -4 -3 -7 -6 -8c-1 -1 -5 -3 -8 -3c-13 2 -21 7 -24 14
c-4 4 -6 8 -5 11s4 6 9 8c7 2 13 3 21 3c6 1 14 2 21 4c19 5 37 7 55 9c6 0 12 1 18 2c18 2 36 3 54 3c5 0 11 1 17 1h17c12 0 24 0 35 -1h47c1 0 5 3 8 9c3 8 12 18 20 27c2 3 4 6 7 9c2 2 4 5 7 7c11 14 19 22 32 33c29 21 62 46 95 57c16 6 30 10 43 10zM388 732
c-11 0 -22 -3 -34 -8c-33 -15 -66 -37 -95 -63c-18 -16 -58 -67 -57 -70c11 -3 26 -4 40 -6c15 -2 30 -4 41 -6c60 -15 110 -34 150 -56c3 -2 6 -3 8 -4l7 -3v12c1 16 1 33 1 49v49c0 17 0 32 -1 47v5c-2 23 -24 54 -60 54zM465 482c-1 -1 -1 -7 -1 -11v-4
c0 -10 -1 -20 -2 -30c-4 -32 -7 -65 -11 -95c-3 -36 -8 -74 -12 -109l-15 -176c1 -10 1 -21 2 -32c0 -30 1 -60 7 -89c3 -23 13 -44 21 -58c4 -9 9 -17 18 -21c4 -3 11 -7 19 -7c5 0 10 2 15 5c25 18 54 62 67 85l5 10c9 17 22 41 27 54c1 4 3 9 6 14c10 21 27 56 27 98
c2 81 -17 125 -52 205l-1 2c-12 26 -23 51 -42 73c-3 3 -5 7 -8 11l-6 10c-8 11 -21 25 -35 39c-7 7 -14 14 -22 21c-1 0 -2 1 -3 2c-2 1 -3 3 -4 3z" />
    <glyph glyph-name="A_alt3" horiz-adv-x="571" 
d="M151 718c96 77 181 26 202 -47c9 -34 20 -73 20 -112c0 -28 -3 -56 -3 -84c0 -10 -1 -39 -3 -40c0 -1 12 -14 18 -17c48 -37 81 -77 106 -134c26 -54 35 -113 36 -175c-1 -27 0 -57 -10 -86c-3 -34 -19 -64 -33 -94c-10 -21 -24 -35 -42 -48c-18 -12 -38 -12 -55 3
c-16 12 -32 29 -41 49c-16 41 -26 86 -26 129c-2 40 -2 80 -1 119c2 40 10 82 13 122c2 33 10 82 12 117c1 1 1 1 -7 7c-4 4 -10 6 -17 10c-34 16 -68 23 -105 30c-55 8 -114 6 -168 -1c-11 0 -16 -3 -19 -2s-4 -11 -5 -18c-6 -24 -11 -49 -13 -72c-9 -67 -13 -134 -15 -201
c1 -85 -2 -172 5 -257c-1 -5 -1 -8 -2 -11c-4 -4 -4 -11 -8 -10c-5 -3 -9 -1 -12 1c-6 1 -10 24 -12 40c0 18 3 38 2 59c1 23 -1 71 1 81c3 38 3 77 4 115l6 97c2 31 6 61 9 93c3 14 13 78 12 77c-8 -2 -44 -10 -52 -13c-59 -19 -114 -50 -165 -82c-3 -2 -6 -7 -7 -13
c11 -5 18 -9 28 -15c2 0 2 -4 2 -8c0 -2 -3 -7 -5 -7c-16 -7 -35 -13 -52 -1c-15 8 -18 23 -7 38c5 5 12 12 17 15c25 17 46 32 71 43c29 18 60 28 90 41c16 5 75 26 83 26c1 1 22 69 31 82c12 21 22 42 33 58c22 39 48 67 84 96zM214 734c-26 -12 -56 -35 -78 -56
c-52 -48 -83 -112 -105 -182c-1 -5 -4 -13 -3 -12c22 3 48 4 69 5c74 7 142 -3 212 -29c13 -5 26 -10 39 -17c2 -3 1 10 2 12c3 53 6 111 -1 162c-6 26 -11 54 -25 74c-26 41 -70 57 -110 43zM365 410c-1 -1 -4 -47 -7 -64c-9 -69 -20 -139 -17 -211c-1 -55 -3 -109 15 -164
c7 -22 26 -52 39 -68c16 -16 35 -17 51 0c16 15 31 46 40 67c40 107 21 213 4 266c-10 27 -21 57 -38 82c-18 32 -83 88 -87 92z" />
    <glyph glyph-name="A_alt4" horiz-adv-x="633" 
d="M337 741c39 35 97 37 134 -10c22 -28 30 -58 38 -98c3 -17 3 -44 8 -92c29 6 53 17 74 22c50 18 102 45 149 75c23 15 55 40 55 73c0 9 6 16 17 16c4 0 12 -3 14 -7c8 -6 8 -12 5 -23c-19 -30 -44 -53 -73 -70c-36 -21 -70 -43 -104 -59c-46 -21 -136 -45 -136 -45
c-1 0 -5 -24 -5 -35v-272c5 -36 8 -73 13 -107c10 -86 22 -133 68 -192c17 -22 30 -28 52 -19c0 3 3 8 3 13c0 6 0 13 10 13c12 4 16 -7 20 -13c6 -13 0 -30 -15 -37c-23 -10 -40 -7 -64 4c-23 20 -42 46 -53 74c-29 66 -44 135 -50 205c0 30 -4 64 -4 93v182
c0 17 -1 37 -1 53v33c-11 0 -28 -4 -34 -5c-61 -10 -117 -20 -180 -20c-19 0 -55 -5 -59 -5c-7 -16 -14 -36 -18 -56c-13 -71 -22 -142 -24 -216c-1 -73 3 -144 6 -217c0 -17 15 -101 25 -125c0 -3 -3 -13 -3 -13c-7 0 -10 4 -14 6c-45 35 -43 449 -11 562c5 19 10 39 16 58
c-41 0 -79 -9 -110 -21c-23 -10 -37 -20 -55 -32c-8 -2 -11 -5 -16 -5c-3 0 -6 0 -11 3c0 0 -1 4 0 6c2 5 15 13 23 15c51 26 99 50 162 50c3 0 8 2 10 2c18 42 39 84 58 125c18 40 43 76 80 111zM354 728c-13 -10 -26 -25 -37 -37c-34 -47 -60 -108 -83 -160
c0 -8 -5 -12 -5 -23c87 -1 178 8 263 28c3 50 -3 97 -16 137c-4 14 -13 31 -23 45c-34 43 -66 37 -99 10z" />
    <glyph glyph-name="A_t" horiz-adv-x="1061" 
d="M239 738c39 36 77 27 101 -20c15 -29 23 -55 30 -86c11 -45 14 -91 19 -136c1 -10 3 -27 3 -39c93 -4 176 -2 189 0v2c1 0 1 7 1 13c1 22 2 51 5 78c1 20 3 45 13 139l4 22c3 6 9 14 18 10c3 -2 3 -3 4 -5c-5 -21 -7 -44 -10 -63c-1 -6 -1 -12 -2 -16
c-2 -29 -5 -55 -6 -82l-3 -73v-23c104 -1 52 1 117 4l56 3c75 5 280 26 360 71c88 38 118 91 150 132l4 10c-1 11 -3 9 -10 26c0 8 -3 14 5 18c17 10 32 -6 32 -22c1 -6 3 -9 2 -17c-8 -17 -20 -32 -31 -47c-53 -62 -99 -140 -342 -173l-129 -15c-42 -5 -173 -9 -215 -14
c-1 -15 -1 -22 -1 -33c1 -26 -7 -53 -5 -189c1 -26 -2 -50 3 -80c5 -31 6 -61 15 -91c5 -25 15 -52 25 -76c9 -19 17 -34 29 -52c36 -45 57 -80 109 -83c42 -6 74 26 89 38c16 18 45 33 61 57c15 21 18 22 26 37l22 32c12 22 63 98 74 119c7 14 20 45 31 59
c24 3 9 -5 -8 -53c-11 -22 -21 -44 -39 -68c-18 -30 -39 -62 -60 -94c-37 -70 -128 -133 -148 -140c-5 -2 -15 -10 -47 -8c-25 1 -58 16 -76 30c-24 19 -37 40 -54 62c-7 14 -16 25 -24 42c-7 14 -13 26 -17 41l-12 43c-5 16 -8 31 -12 48c-2 11 -3 25 -5 37
c-4 27 -4 58 -5 85c-1 33 3 116 2 131c2 30 3 93 3 107c-22 -3 -40 -3 -116 0l-72 1c6 -99 7 -95 13 -221c2 -45 5 -89 9 -134c3 -51 9 -101 24 -152c9 -24 17 -46 36 -64c9 -11 19 -18 30 -21c21 -9 33 -3 48 17c3 5 6 8 8 11c12 0 17 -25 6 -37c-14 -17 -42 -25 -66 -16
c-28 12 -49 30 -65 57c-14 31 -24 64 -29 96c-11 80 -25 301 -29 365c-3 20 -4 100 -5 100c-3 0 -24 1 -29 2c-74 1 -151 10 -225 7c-14 0 -30 -1 -31 -1c-1 -1 -5 -15 -10 -29c-17 -59 -25 -119 -27 -181c-3 -55 -3 -109 0 -163c3 -46 11 -92 15 -137c1 -7 1 -15 0 -22
c0 -5 -4 -6 -8 -8c-4 -1 -10 3 -12 6c-3 6 -3 13 -3 19c-6 91 -15 180 -11 272c0 53 4 104 14 155c4 20 18 76 20 86c-54 0 -121 -14 -146 -23c-24 -13 -30 13 58 31c15 5 79 11 94 13c1 0 21 65 42 104c26 48 84 132 126 169zM249 719c-18 -16 -37 -35 -52 -53
c-49 -62 -95 -157 -106 -201c79 2 167 -3 244 -6c10 -1 23 -2 37 -1c0 14 -2 29 -3 38c-3 37 -8 75 -14 110c-4 25 -12 49 -20 72c-3 11 -10 24 -18 34c-21 26 -43 30 -68 7z" />
    <glyph glyph-name="B_alt" horiz-adv-x="630" 
d="M543 714c18 -6 39 -19 44 -40c3 -12 3 -26 -1 -40c-9 -26 -22 -51 -38 -71c-23 -30 -50 -55 -78 -79c-53 -47 -106 -80 -181 -126l-36 -26c6 -1 23 6 25 6c27 6 56 11 86 13c40 2 77 -2 113 -24c43 -23 70 -64 84 -112c13 -42 8 -85 -7 -127c-23 -64 -98 -187 -287 -248
c-59 -18 -114 -22 -169 -22c-36 1 -72 5 -105 17c-22 7 -42 16 -60 24c-38 24 -48 32 -66 78c0 1 1 3 1 6c2 3 3 6 5 5c1 2 6 1 9 -2c3 -5 3 -12 6 -14c14 -22 29 -38 51 -50c50 -26 104 -41 160 -41c110 -3 209 29 300 88c55 35 96 84 124 142c18 37 30 83 22 123
c-12 60 -39 90 -82 116c-26 13 -59 17 -83 17c-67 0 -128 -19 -188 -47c-12 -4 -13 -7 -79 -36l-4 -4c-12 -49 -21 -103 -23 -153c-1 -25 -6 -117 -6 -142c0 -5 0 -10 -4 -13c-3 -2 -7 -7 -12 -8c-4 0 -12 3 -11 8c2 8 1 15 1 21c3 42 9 148 9 193c3 17 2 36 3 54
c3 65 10 144 12 210c0 12 3 27 4 42c2 49 2 93 6 146c0 9 2 12 3 20c1 3 5 7 7 9s11 -1 12 -5c1 -6 2 -18 0 -27c-1 -36 -1 -59 -4 -95c-5 -60 -16 -216 -17 -222c5 1 9 16 9 18c32 94 66 172 138 244c39 45 85 89 134 121c26 18 113 74 173 53zM539 697c-19 5 -37 3 -57 -2
c-27 -8 -54 -20 -78 -36c-50 -29 -95 -64 -132 -107c-38 -44 -77 -92 -107 -145c-21 -36 -36 -73 -48 -116c-1 -2 -3 -7 -3 -9c9 3 17 5 24 9c25 15 53 28 82 48c37 25 75 46 118 74c164 106 222 175 228 244c0 18 -10 34 -27 40z" />
    <glyph glyph-name="B_alt3" horiz-adv-x="846" 
d="M627 746c57 2 108 -35 88 -104c-12 -38 -34 -71 -55 -98c-36 -40 -94 -100 -156 -139l38 1c63 7 121 3 180 -20c61 -26 91 -69 90 -132c-5 -34 -19 -62 -29 -93c-33 -65 -75 -121 -127 -168c-59 -52 -127 -92 -201 -121c-65 -22 -132 -38 -203 -41
c-49 -2 -100 -4 -152 11c-38 8 -67 30 -97 53c-31 23 -41 54 -45 84c-5 13 -2 60 40 65c-26 -55 -16 -104 36 -142c30 -22 66 -37 106 -44c89 -10 175 -4 260 19c88 27 161 67 230 125c64 56 114 121 145 201c1 13 7 27 8 42c8 62 -22 106 -72 123c-102 34 -153 19 -226 9
c-5 0 -32 -12 -62 -25c-34 -12 -71 -27 -105 -36c-15 -3 -34 -5 -54 -11c-6 -73 -12 -276 -8 -349c-1 -11 1 -19 1 -25c-1 -14 -11 -22 -18 -19c-6 0 -13 9 -16 15c-4 9 -3 24 -1 35c9 88 10 298 3 383l2 245c1 29 5 61 0 99c-1 21 9 31 12 31c9 1 12 -7 9 -10
c6 -29 5 -60 4 -87l-4 -227c0 -10 -1 -33 -2 -44c7 10 14 33 19 45c9 27 19 61 34 90c38 89 100 161 182 215c45 28 96 41 146 44zM635 725c-34 0 -71 -8 -103 -20c-22 -13 -44 -26 -68 -42c-84 -58 -121 -127 -163 -231c-10 -27 -26 -61 -31 -99c10 1 14 4 18 5
c88 19 112 34 185 73c30 17 53 37 82 61c40 36 85 74 113 120c12 14 20 35 25 55c15 38 -16 73 -58 78z" />
    <glyph glyph-name="E_alt" horiz-adv-x="689" 
d="M16 738c6 6 15 7 22 -7c38 -42 64 -70 156 -107c28 -11 60 -28 120 -38c0 0 14 11 29 24c27 23 58 43 93 62c59 32 119 47 182 52c21 0 38 -5 53 -21c18 -20 18 -41 -4 -61c-20 -19 -42 -34 -68 -45c-31 -13 -128 -58 -262 -41c-9 1 -23 3 -25 1
c-36 -36 -172 -168 -57 -238c12 -7 26 -11 40 -11c42 0 77 11 115 38c43 34 89 57 134 81c21 10 41 20 60 30c12 4 21 0 24 -7c4 -10 -3 -20 -14 -25l-168 -97c-24 -13 -47 -22 -70 -36c-37 -30 -78 -81 -99 -108c-37 -45 -69 -94 -83 -152c-12 -40 -15 -78 3 -114
c21 -52 58 -70 102 -74c39 -4 80 0 120 17c46 15 93 41 132 70c43 23 77 57 112 94c11 15 22 32 26 55c0 2 2 2 2 5c11 26 34 8 26 -12c-6 -14 -12 -31 -23 -45c-38 -48 -84 -85 -133 -118c-47 -29 -92 -57 -145 -73c-48 -18 -101 -24 -152 -10c-74 21 -116 98 -95 188
c10 58 35 104 66 149c23 31 87 106 102 121c-17 0 -26 -1 -35 -1c-22 2 -38 1 -59 11c-51 24 -66 85 -44 145c17 41 38 71 64 102l31 27l-45 13c-38 14 -82 23 -119 46c-64 40 -64 42 -107 89c-8 8 -14 15 -7 21zM565 696c-57 -14 -109 -37 -157 -70
c-14 -10 -49 -35 -66 -48c0 0 48 -18 150 3c39 8 80 24 118 41c18 8 49 30 51 47c1 39 -51 38 -96 27z" />
    <glyph glyph-name="K_r" horiz-adv-x="1097" 
d="M1026 -53c2 -7 1 -16 -1 -28c-3 1 -3 0 -4 -1c-9 3 -7 -2 -16 4l1 8l-1 25c1 11 -4 22 -3 31l-6 44c-2 18 -6 97 -7 118l-2 38c1 4 -1 8 0 15c1 23 0 31 -3 36c-7 -3 -15 -9 -31 -19c-6 -4 -10 -8 -16 -10c-9 -5 -66 -41 -74 -46l-3 -3c-2 -16 -14 -43 -24 -62
c-18 -33 -72 -97 -118 -122c-24 -13 -72 -22 -92 -22c-45 0 -123 24 -165 62c-25 22 -48 41 -65 67c-35 49 -77 122 -104 175c-25 41 -54 77 -90 108c-5 5 -10 10 -17 13c-2 -3 -3 -9 -3 -11c-1 -15 -5 -28 -5 -44c-3 -45 -10 -90 -15 -137c-3 -23 -6 -48 -11 -73
c-10 -59 -32 -166 -26 -243c-1 -6 2 -13 0 -20c-3 -7 -7 -11 -12 -12c-6 0 -15 6 -17 10c-4 7 -3 12 -3 19c4 46 26 218 31 243c10 52 18 102 24 154c1 6 0 13 2 21c1 21 10 89 10 97c-2 1 -25 -6 -34 -6c-33 0 -66 -3 -99 4c-10 0 -18 3 -25 6c-9 7 -12 18 -4 29
c4 6 23 16 33 18c38 8 54 12 89 7c15 -2 33 -14 43 -19v18c1 42 -1 90 -2 134c-2 31 3 136 0 171c-2 13 6 19 11 19s5 -8 7 -14c1 -11 3 -23 5 -105c1 -37 -2 -72 0 -108c2 -31 1 -122 5 -128c17 -1 39 4 57 9l117 37c25 12 47 24 68 35c40 20 105 90 129 124
c5 9 35 43 40 41c7 -3 7 -10 5 -15l-5 -13c-29 -42 -97 -115 -143 -144c-35 -22 -64 -34 -98 -48c-25 -10 -52 -17 -78 -28c-33 -12 -41 -11 -72 -17c53 -50 26 -18 78 -85c31 -46 63 -96 81 -134c23 -44 125 -237 314 -189c43 11 69 37 73 41c52 53 61 71 76 106
c4 12 8 21 11 28c0 2 -1 4 -1 6c-3 -2 -28 -3 -46 4c-7 3 -10 4 -16 8c-9 5 -17 15 -21 22c-3 5 -17 44 3 78c7 12 19 44 73 49c9 0 17 -2 27 -6c7 -4 13 -8 16 -15c2 -5 13 -24 4 -60c-8 -33 -16 -54 -12 -58c16 9 15 10 27 16c2 1 5 4 9 6c11 5 80 50 93 53c3 0 7 -2 9 -6
c-1 -14 1 -25 1 -42v-12c-2 -9 1 -108 0 -116c2 -17 1 -38 11 -88c-1 -4 1 -8 2 -12c2 -10 4 -21 5 -36zM138 402c1 0 1 2 3 2c-33 17 -65 9 -98 0c29 -9 67 -8 95 -2zM856 204c2 12 7 23 8 31c3 17 4 34 4 47c-3 14 -10 19 -19 23c-7 2 -17 1 -24 0s-13 -5 -18 -6
c-18 -10 -39 -32 -40 -51c-1 -7 -6 -41 20 -57c13 -8 24 -13 41 -13h21c2 6 7 23 7 26z" />
    <glyph glyph-name="L_alt" horiz-adv-x="645" 
d="M642 781c22 0 32 -6 36 -21c2 -13 -5 -20 -12 -30c-17 -23 -33 -33 -49 -45c-35 -23 -93 -40 -124 -53c0 0 -5 -8 -9 -22c-7 -19 -48 -133 -58 -187c-14 -82 -33 -162 -49 -241c-21 -105 -35 -150 -50 -192c0 -6 -3 -12 -6 -23c7 -4 12 -5 21 -9c30 -12 60 -22 92 -38
c54 -23 193 -104 250 -114c95 -27 193 -38 290 -19c44 9 91 21 130 56c15 17 31 31 36 59c3 14 8 18 16 16c7 -3 11 -14 7 -28c-8 -15 -16 -29 -29 -43c-18 -23 -43 -44 -69 -55c-82 -34 -198 -37 -261 -30c-25 3 -48 7 -77 13c-86 14 -250 105 -336 140
c-19 9 -56 19 -78 30c0 0 -4 -7 -14 -22c-20 -33 -41 -66 -67 -97c-29 -40 -64 -65 -107 -69c-40 -7 -75 12 -102 50c-37 51 -29 123 16 163c24 23 54 33 84 38c34 6 75 -5 113 -13c38 -9 54 -18 66 -20c10 22 16 43 24 65c20 68 48 203 57 271c14 116 81 304 85 313
c-4 -1 -15 -7 -17 -7c-45 -16 -94 -29 -144 -33c-16 -3 -58 -13 -69 -5c-7 2 -9 11 -6 19c3 3 8 5 13 5c44 -1 85 2 128 12c26 6 50 17 72 23c16 5 27 11 28 11c0 0 19 39 34 62c18 27 29 42 51 55c27 15 56 15 84 15zM598 757c-37 -4 -67 -38 -92 -83c-3 -4 -5 -7 -8 -20
c59 18 139 62 150 93c-16 15 -34 11 -50 10zM119 -20c-28 -3 -56 -12 -78 -40c-28 -34 -30 -84 -2 -122c4 -3 11 -10 14 -13c25 -19 48 -30 77 -27c43 5 100 70 137 126c8 13 17 27 23 47c-4 4 -9 5 -11 7c-55 20 -106 28 -160 22z" />
    <glyph glyph-name="L_alt2" horiz-adv-x="794" 
d="M443 763c27 -3 45 -20 41 -43c0 -29 -24 -65 -42 -83c-31 -31 -68 -69 -109 -93l7 -28c19 -79 40 -153 52 -234c9 -69 23 -141 6 -208c-1 -4 -1 -6 -3 -13c82 -18 70 -19 170 -30c28 -3 58 -2 87 2c27 2 56 5 85 20c-2 2 29 28 32 2c1 -6 -5 -15 -11 -17
c-12 -5 -23 -12 -35 -14c-144 -27 -213 -4 -334 14c-3 -12 -9 -26 -11 -38c-15 -52 -38 -100 -72 -140c-11 -15 -26 -31 -40 -41c-40 -29 -88 -29 -133 -6c-47 27 -78 63 -92 112c-29 84 18 155 106 167c49 6 98 -2 148 -10c25 -4 53 -9 78 -15c9 29 7 54 10 80
c0 81 -14 158 -32 236c-7 38 -16 72 -25 110c-2 11 -7 26 -11 40c-84 -51 -102 -66 -205 -97c-20 -6 -43 -10 -66 -12c-26 -3 -95 -15 -95 8c0 7 12 8 20 8c61 -8 121 4 178 24c29 9 93 39 134 66c19 13 29 21 29 21c-4 18 -6 53 -3 73c7 44 24 78 53 107c23 21 52 32 83 32
zM447 740c-20 4 -40 0 -60 -15c-41 -25 -79 -97 -59 -163c52 32 95 77 127 123c6 9 9 20 9 29c3 15 -3 23 -17 26zM194 75c-32 3 -61 -2 -90 -17c-31 -18 -52 -46 -52 -83c3 -59 27 -104 79 -135c54 -32 114 -23 155 25c43 49 63 107 80 168c0 2 2 9 3 10c-3 2 -9 3 -9 3
c-54 18 -112 27 -166 29z" />
    <glyph glyph-name="P_alt" 
d="M529 754c29 -1 63 -20 71 -48c12 -36 10 -71 -7 -106c-14 -38 -76 -116 -132 -149c-19 -10 -43 -19 -66 -26c-18 -5 -128 -24 -146 -14c-12 6 -14 17 -8 26c3 12 13 20 25 20c12 -5 10 -16 14 -21c6 -2 6 -4 7 -4c38 3 73 7 108 17c73 22 131 66 166 136
c16 28 21 60 20 93c-1 13 -5 26 -14 37c-17 16 -39 17 -61 16c-16 -2 -33 -9 -47 -14c-26 -15 -52 -28 -76 -45c-31 -25 -58 -54 -83 -81c-57 -83 -61 -96 -75 -128c-2 -10 -28 -82 -32 -112c-6 -24 -17 -312 -20 -336c0 -22 -3 -44 -3 -69c1 -15 -2 -31 -3 -45
c-2 -7 -6 -12 -8 -17c-4 0 -9 1 -13 5c-2 24 0 48 0 71c0 14 2 30 2 45c1 64 10 375 0 452c-5 44 -4 87 -7 132c-3 16 -5 92 -23 122c-4 6 -5 9 -5 15c-3 12 1 22 17 28c2 -3 8 -6 10 -10c3 -5 4 -14 7 -17c7 -41 10 -79 13 -118c7 -68 11 -134 13 -200c-3 -7 0 -12 0 -19
c10 10 14 23 16 36c11 33 26 64 42 95c16 22 27 46 41 65c18 24 36 44 59 64c26 22 52 42 78 63c23 17 46 28 69 36c17 5 35 6 51 5zM159 -116h2c3 -3 -5 -1 -2 0z" />
    <glyph glyph-name="P_alt2" horiz-adv-x="439" 
d="M366 737c50 -14 64 -31 87 -84c11 -27 16 -60 12 -91c0 -6 -3 -16 -3 -22c-30 -93 -106 -161 -186 -208c-41 -24 -76 -38 -123 -53c-12 -4 -32 -12 -42 -14c0 -2 -3 -2 -2 -5c-3 -40 -8 -79 -9 -122c-3 -41 -9 -171 -8 -213c2 -12 3 -27 2 -38c0 -9 -5 -15 -12 -17
c-7 2 -11 10 -12 19c-3 14 -5 30 -7 46c0 12 -5 64 -4 75c0 99 -5 148 -6 196v47c-13 -1 -37 -2 -46 -2c-37 -4 -71 0 -108 3c-31 2 -63 6 -75 33c51 -17 117 -24 228 -12c2 0 1 24 0 28c4 37 6 72 14 110c7 30 14 62 26 91c11 27 9 29 10 58c0 29 -3 56 -3 85
c0 6 -1 15 1 22c0 4 0 5 7 9c0 2 6 3 8 5c2 -1 9 2 10 -4c7 -40 1 -73 1 -110c-1 -3 12 23 15 28s8 13 11 19c38 54 46 58 76 80c40 31 86 45 138 41zM329 714c-53 -9 -99 -37 -131 -77c-16 -19 -30 -36 -44 -60c-20 -32 -22 -45 -23 -46c-5 -8 -10 -138 -12 -173
c-1 -17 -6 -49 -8 -71c10 1 20 5 27 6c33 9 61 20 89 35c35 17 71 38 105 62c49 34 80 77 100 129c23 51 21 98 -5 148c-18 39 -55 53 -98 47zM101 472c-14 -48 -34 -141 -31 -192c5 -2 13 4 16 4c3 10 6 31 7 44c2 9 2 20 4 29c3 23 3 49 5 70c5 40 1 44 -1 45zM82 258
c-8 -1 -11 -2 -11 -5c-3 -21 -2 -66 1 -77c6 23 7 50 10 82z" />
    <glyph glyph-name="S_alt" horiz-adv-x="467" 
d="M199 782c9 -1 17 -5 24 -8c34 -11 68 -45 93 -80c26 -41 34 -85 33 -132c-1 -16 0 -30 -3 -45c-4 -20 -9 -39 -17 -57c-8 -16 -20 -17 -23 -8c-3 8 0 21 3 29c19 36 22 77 18 114c-8 44 -23 82 -53 116c-44 46 -105 61 -162 49c-36 -6 -69 -27 -97 -52
c-39 -31 -66 -70 -81 -121c-8 -30 -11 -64 -11 -95c2 -26 10 -50 21 -73c23 -43 55 -64 98 -88c27 -13 59 -29 90 -40c26 -9 52 -22 78 -33c5 0 16 -9 19 -7c23 12 71 59 145 77c14 5 31 8 46 8c20 1 32 -7 33 -29c1 -2 -2 -6 -2 -8c-20 -9 -31 11 -51 17
c-58 -9 -89 -35 -143 -73c-3 -3 -10 -7 -10 -7c8 -7 19 -11 22 -16c23 -18 42 -41 58 -64c7 -10 12 -20 15 -30c21 -56 17 -108 -21 -160c-24 -33 -57 -60 -93 -80c-30 -17 -60 -24 -94 -17c-46 8 -72 50 -75 82s4 66 14 95c2 9 6 20 11 31c9 24 25 45 41 64
c6 9 12 18 20 27c18 19 38 40 59 61c4 5 6 6 3 7c-4 3 -19 8 -22 10c-30 11 -61 27 -94 40c-31 14 -70 27 -104 53c-43 35 -72 71 -83 128c-3 21 -5 39 -3 57c0 34 6 68 20 98c14 38 51 84 86 111c14 13 31 22 47 30c20 8 41 12 61 17c27 7 55 6 84 2zM227 221
c-2 2 -48 -44 -87 -92c-33 -45 -56 -91 -57 -151c-1 -12 0 -26 3 -40c10 -30 38 -50 70 -49c16 1 49 7 65 18c128 75 175 211 6 314z" />
    <glyph glyph-name="S_r" horiz-adv-x="885" 
d="M318 747c28 0 54 -8 81 -20c9 -1 16 -8 22 -11c29 -21 54 -63 68 -103c16 -46 11 -90 0 -135c-6 -16 -9 -30 -16 -42c-8 -20 -18 -36 -30 -52c-11 -12 -24 -11 -25 -2s6 19 12 27c27 30 41 70 45 106c5 44 -1 85 -20 125c-33 57 -87 87 -145 89c-37 4 -75 -8 -106 -25
c-47 -21 -83 -51 -111 -96c-16 -28 -26 -59 -35 -90c-5 -25 -2 -52 3 -75c10 -48 37 -77 71 -111c24 -19 81 -82 107 -102c24 -14 78 -83 81 -82c17 5 111 6 150 17c61 16 81 20 102 29c19 9 32 15 40 20c-12 0 -30 2 -40 10c-21 14 -25 33 -28 43c-2 6 -7 47 20 75
c10 10 28 39 83 31c8 -2 15 -5 24 -11c23 -20 22 -38 13 -78c-8 -32 -27 -53 -35 -60c17 6 93 37 100 39c16 5 29 11 42 12c3 0 7 -4 9 -9c-5 -12 -5 -23 -10 -40l-3 -12c-3 -9 -11 -50 -19 -88c-3 -7 -3 -17 -5 -24c-2 -18 -12 -123 -13 -138c-1 -7 -3 -16 -7 -27
c-3 2 -3 1 -5 0c-8 5 -7 0 -15 8l8 32l8 75c1 18 15 97 19 116l7 38c2 4 1 8 3 15c7 22 6 30 6 35c-8 -1 -86 -32 -105 -39c-22 -10 -60 -28 -81 -36c-26 -11 -57 -21 -95 -30c-45 -12 -117 -10 -147 -17c-4 -1 -11 -5 -11 -5c5 -8 12 -13 14 -19c17 -22 31 -44 36 -60
c2 -10 6 -21 7 -33c4 -59 -13 -109 -61 -148c-33 -26 -71 -44 -111 -54c-34 -10 -65 -9 -96 6c-42 20 -56 66 -51 100c6 32 20 62 36 87c5 10 12 18 20 28c14 22 79 79 158 101c7 2 8 4 6 6c-4 4 -66 72 -95 93c-25 21 -91 84 -117 117c-32 46 -52 89 -46 146
c0 20 4 38 10 56c9 32 24 64 45 89c22 34 70 68 111 86c17 9 36 14 53 16c22 4 44 2 64 1zM633 358c-7 1 -14 -2 -19 -1c-41 -11 -74 -54 -44 -101c10 -14 21 -19 37 -22c7 -2 14 -2 22 -5c16 10 32 43 34 50c7 17 12 33 10 48c0 14 -8 19 -16 25c-7 5 -17 5 -24 6zM308 123
c-2 3 -62 -20 -111 -52c-45 -35 -78 -73 -94 -131c-4 -11 -7 -25 -7 -39c2 -32 24 -58 55 -66c16 -2 49 -5 68 1c140 41 208 152 89 287z" />
    <glyph glyph-name="V_alt3" horiz-adv-x="429" 
d="M306 743c6 2 11 0 17 -4c2 -4 7 -10 9 -15c15 -19 27 -42 36 -64c6 -10 10 -22 14 -33c9 -19 30 -106 25 -184c-2 -42 -7 -84 -19 -118c-6 -30 -45 -139 -87 -225c-11 -24 -21 -46 -35 -68c-16 -30 -33 -60 -49 -87c-7 -11 -14 -20 -24 -29c-1 -2 -4 -4 -6 -5
c-11 -8 -28 -8 -39 0c-5 3 -10 7 -13 11c-8 9 -14 16 -19 26c-13 24 -26 48 -34 74c-5 16 -7 30 -12 44c-9 26 -14 53 -20 80c-2 8 -5 17 -6 27c-6 31 -9 64 -11 94c0 21 -2 40 -3 59c0 9 -2 19 -2 28c-2 58 0 117 2 173c0 13 0 26 2 39c0 20 1 44 5 68c1 8 5 26 6 36
c2 16 -17 -3 -22 -6c-9 -6 -20 -12 -30 -19c-37 -26 -75 -48 -118 -59c-28 -9 -58 -10 -85 -14c-16 -1 -32 2 -46 10c-3 2 -3 6 -1 8c1 2 4 7 6 7c6 1 12 1 18 1c14 0 29 -1 42 -1c18 0 36 3 53 8c16 5 31 9 48 17c33 15 65 32 93 54c17 15 34 27 48 44c4 4 8 4 10 8
c7 4 16 0 20 -8c3 -5 3 -11 1 -17c-1 -6 -5 -11 -6 -17c-10 -20 -15 -44 -17 -67c-6 -47 -9 -93 -9 -141c0 -55 0 -110 1 -165c2 -72 10 -145 33 -214c8 -29 17 -57 26 -84c8 -23 19 -41 33 -62c2 -4 7 -10 13 -16c7 -6 24 -8 30 1c21 28 39 57 54 86c11 21 25 39 36 64
c6 13 28 56 35 72c8 18 15 37 22 52c6 12 9 22 13 33c8 21 36 121 40 141c7 48 9 97 1 147c-2 15 -7 33 -11 48c-12 34 -25 66 -43 95c-4 10 -10 15 -21 15c-2 0 -4 1 -4 1c-7 0 -12 6 -13 11c-3 9 -2 19 0 27c1 7 6 12 13 13z" />
    <glyph glyph-name="a_begininit" horiz-adv-x="810" 
d="M501 242c22 0 19 -1 55 -20c3 3 2 9 9 12c5 0 16 -8 19 -14c-2 -14 -6 -29 -8 -47c-3 -11 -18 -85 -16 -105c3 -30 17 -52 41 -68c9 -7 21 -9 34 -9c18 -1 37 1 54 9c13 6 24 13 36 21c7 4 14 13 18 17c17 17 33 36 45 58c11 20 23 50 35 69c8 13 12 14 19 12
c-2 -23 -10 -34 -20 -54c-4 -9 -6 -18 -11 -27c-11 -20 -24 -36 -37 -53c-12 -16 -26 -28 -41 -42c-14 -12 -33 -20 -51 -24c-17 -5 -33 -8 -50 -6s-31 4 -43 14c-24 17 -42 41 -48 69c-1 6 0 11 -1 16c1 24 7 67 12 98c-2 1 -8 -8 -10 -11c-16 -20 -34 -39 -51 -57
c-12 -13 -25 -24 -41 -32c-12 -7 -24 -9 -38 -10c-17 2 -30 10 -36 26c-3 12 -4 26 0 39c1 5 3 11 5 16c-43 -36 -89 -70 -139 -98c-25 -13 -48 -25 -74 -34c-17 -6 -34 -10 -51 -12c-18 -2 -35 -4 -53 0c-22 4 -43 11 -62 25c-3 9 -18 17 -8 30c4 1 6 0 9 0
c5 -6 8 -11 13 -16c3 -6 9 -10 16 -12c11 -4 21 -8 33 -10c26 -4 52 -3 78 5c4 2 9 4 13 4c27 5 49 18 72 30s44 27 67 41c13 8 25 16 36 26c8 7 17 14 26 21c4 2 8 6 13 9c10 10 21 20 32 30c12 19 28 35 50 48c4 2 7 5 11 7c12 6 22 9 38 9zM505 219
c-38 1 -68 -16 -88 -48c-24 -33 -28 -51 -24 -74c3 -9 7 -17 19 -17c30 2 55 19 74 40c20 21 34 42 52 64c1 3 5 9 7 13c-9 17 -24 20 -40 22z" />
    <glyph glyph-name="a_beginlongswirl" horiz-adv-x="1703" 
d="M1458 239c5 0 16 -8 19 -14c-2 -14 -6 -29 -8 -47c-3 -11 -18 -85 -16 -105c3 -30 17 -52 41 -68c9 -7 21 -9 34 -9c18 -1 37 1 54 9c13 6 24 13 36 21c7 4 14 13 18 17c17 17 33 36 45 58c11 20 23 50 35 69c8 13 12 14 19 12c-2 -23 -10 -34 -20 -54
c-4 -9 -6 -18 -11 -27c-11 -20 -24 -36 -37 -53c-12 -16 -26 -28 -41 -42c-14 -12 -33 -20 -51 -24c-17 -5 -33 -8 -50 -6s-31 4 -43 14c-24 17 -42 41 -48 69c-1 6 -1 11 -1 16c1 24 7 67 12 98c-2 1 -8 -8 -10 -11c-16 -20 -34 -39 -51 -57c-12 -13 -25 -24 -41 -32
c-12 -7 -24 -9 -38 -10c-17 2 -30 10 -36 26c-3 12 -4 26 0 39c3 9 6 19 10 27c15 32 49 67 75 75c-66 -2 -162 -40 -188 -51c-46 -19 -92 -40 -137 -61l-252 -118c-35 -17 -71 -32 -107 -47c-55 -24 -112 -48 -168 -70c-76 -32 -135 -53 -245 -65c-38 -5 -76 -3 -114 2
c-31 3 -60 12 -88 23c-17 7 -30 17 -44 28c-8 7 -11 15 -11 25c0 13 9 20 21 15c6 -3 11 -8 15 -13c6 -7 11 -14 15 -22c12 -20 30 -30 53 -35c45 -8 90 -13 137 -9c91 6 164 34 239 62c46 18 93 37 139 56c30 12 60 26 91 39c32 15 65 29 97 43c12 6 24 12 36 17l105 48
c32 14 65 30 98 44c18 8 36 17 54 25c34 15 69 29 103 41c36 13 63 24 100 31c63 11 112 12 146 -11c3 3 2 9 9 12zM1402 224h-4c-38 1 -68 -16 -88 -48c-24 -33 -28 -51 -24 -74c3 -9 7 -15 19 -17c30 -1 55 19 74 40c20 21 33 42 51 64c1 3 6 9 8 13c-8 16 -21 20 -36 22z
" />
    <glyph glyph-name="a_beginswashlarger" horiz-adv-x="2378" 
d="M2055 241c26 -2 41 -3 69 -23c3 3 2 9 9 12c5 0 16 -8 19 -14c-2 -14 -6 -29 -8 -47c-3 -11 -18 -85 -16 -105c3 -30 17 -52 41 -68c9 -7 21 -11 34 -11c18 -1 37 0 54 8c13 6 27 10 39 21c6 5 14 13 18 17c17 17 32 39 44 61l37 69c7 14 8 14 15 12
c-2 -23 -8 -34 -18 -54c-4 -9 -8 -18 -13 -27c-11 -20 -24 -36 -37 -53c-12 -16 -26 -28 -41 -42c-23 -20 -71 -33 -101 -30c-17 2 -31 4 -43 14c-24 17 -40 41 -46 69c-1 6 -1 11 -1 16c1 24 5 67 10 98c-2 1 -8 -8 -10 -11c-16 -20 -34 -39 -51 -57
c-12 -13 -25 -24 -41 -32c-12 -7 -24 -9 -38 -10c-17 2 -30 10 -36 26c-3 12 -4 26 0 39c3 9 6 19 10 27c13 29 31 53 56 70c-76 -9 -165 -39 -192 -49c-59 -21 -113 -43 -175 -68l-372 -151c-45 -18 -261 -96 -307 -112c-70 -27 -143 -51 -214 -77
c-97 -35 -243 -58 -381 -66c-48 -3 -95 1 -142 10c-39 6 -74 19 -109 34c-20 10 -36 23 -53 38c-9 9 -13 20 -12 32c1 16 13 24 27 17c8 -4 13 -10 18 -17c7 -9 13 -18 17 -28c14 -26 36 -40 64 -47c56 -13 112 -21 171 -20c114 2 277 32 373 62c59 18 118 41 177 61
c38 13 77 29 116 43c211 77 253 93 294 108c15 7 29 12 46 19l184 73c42 17 83 34 126 49c23 9 46 19 69 28c43 16 88 32 131 45c46 14 80 26 127 32c22 3 43 9 62 9zM2073 215c-38 1 -62 -16 -83 -48c-33 -50 -40 -86 -7 -91c30 -1 52 19 71 40c20 21 33 42 51 64
c1 3 6 9 8 13c-9 17 -24 20 -40 22z" />
    <glyph glyph-name="a_beginswashstraight" horiz-adv-x="2358" 
d="M560 283c75 1 152 -1 227 -4c49 1 98 -1 146 -7l574 -74c138 -18 356 -13 477 24c26 13 58 20 65 20c22 0 19 0 55 -19c3 3 2 9 9 12c5 0 16 -8 19 -14c-2 -14 -6 -29 -8 -47c-3 -11 -18 -85 -16 -105c3 -30 17 -52 41 -68c9 -7 21 -11 34 -11c18 -1 37 0 54 8
c13 6 27 10 39 21c6 5 14 13 18 17c17 17 32 39 44 61l37 69c7 14 8 14 15 12c-2 -23 -8 -34 -18 -54c-4 -9 -8 -18 -13 -27c-11 -20 -24 -36 -37 -53c-12 -16 -26 -28 -41 -42c-23 -20 -71 -33 -101 -30c-17 2 -31 4 -43 14c-24 17 -40 41 -46 69c-1 6 -1 11 -1 16
c1 24 5 67 10 98c-2 1 -8 -8 -10 -11c-16 -20 -34 -39 -51 -57c-12 -13 -25 -24 -41 -32c-12 -7 -24 -9 -38 -10c-17 2 -30 10 -36 26c-3 12 -4 26 0 39c3 9 6 19 10 27c9 20 20 37 34 51l-1 -1c-187 -51 -453 -23 -541 -13c-424 62 -473 63 -575 71c-41 3 -83 3 -123 2
c-63 1 -126 2 -188 1c-100 -3 -199 -4 -306 -40c-57 -16 -107 -43 -155 -74c-25 -17 -41 -37 -45 -64c-1 -13 -4 -23 -8 -34c-1 -7 -5 -15 -11 -22c-11 -11 -25 -7 -32 7c-4 12 -4 23 2 34c11 21 22 38 37 54c29 26 58 50 93 68c41 23 84 43 130 55c134 38 211 38 315 37z
M2053 220c-38 1 -62 -16 -83 -48c-33 -50 -40 -86 -7 -91c30 -1 52 19 71 40c20 21 33 42 51 64c1 3 6 9 8 13c-9 17 -24 20 -40 22z" />
    <glyph glyph-name="a_bloopswash" horiz-adv-x="4355" 
d="M4335 95l37 69c7 14 8 14 15 12c-2 -23 -8 -34 -18 -54c-4 -9 -8 -18 -13 -27c-11 -20 -24 -36 -37 -53c-12 -16 -26 -27 -41 -42c-23 -24 -75 -36 -101 -33c-17 2 -31 7 -43 17c-24 17 -40 41 -46 69c-1 6 -1 11 -1 16c1 24 5 67 10 98c-2 1 -8 -8 -10 -11
c-16 -20 -34 -39 -51 -57c-12 -13 -25 -24 -41 -32c-12 -7 -24 -9 -38 -10c-17 2 -30 10 -36 26c-3 12 -4 26 0 39c3 9 6 19 10 27c15 32 35 58 66 76l14 8c-84 23 -315 62 -646 101c-181 18 -557 25 -807 -33c-126 -26 -244 -73 -353 -137c-19 -9 -38 -19 -59 -37
c56 -59 72 -84 77 -133c2 -24 -3 -41 -12 -63c-10 -20 -26 -31 -48 -37c-43 -14 -101 10 -123 47c-20 37 -20 70 -2 105c12 23 23 37 68 81c-9 9 -18 15 -30 22c-84 44 -171 73 -266 83c-71 9 -142 13 -216 13c-121 -1 -241 -8 -364 -16c-82 -5 -167 -9 -250 -13
c-181 2 -628 -5 -797 71c-53 28 -99 52 -140 91c-17 16 -29 34 -43 54c-9 10 -12 25 -9 43c0 2 4 8 7 10c8 4 13 12 18 12c8 2 16 -8 18 -17c0 -20 9 -38 -1 -63l29 -29c36 -34 78 -55 122 -78c87 -41 283 -60 393 -65l265 -10c115 -1 232 1 348 8l158 10
c131 10 261 13 390 6c119 -6 232 -31 337 -87c13 -5 52 -28 52 -28c32 23 82 45 118 65c62 33 128 58 191 79c479 136 950 72 1326 12c86 -14 205 -36 293 -59c7 0 11 -1 18 -5c3 0 6 -1 8 -2c7 -4 11 -7 13 -9c2 -1 5 -2 7 -4c3 3 2 9 9 12c5 0 16 -8 19 -14
c-2 -14 -5 -29 -9 -47c-3 -11 -9 -28 -14 -75c-4 -37 0 -75 40 -98c10 -6 21 -11 34 -11c18 -1 37 0 54 8c13 6 27 10 39 21c6 5 14 13 18 17c17 17 32 39 44 61zM4082 183c1 3 6 9 8 13c-9 17 -24 20 -40 22c-38 1 -62 -16 -83 -48c-33 -50 -40 -86 -7 -91
c30 -1 52 19 71 40c20 21 33 42 51 64zM2203 -30c10 57 -18 94 -76 142c-33 -23 -58 -48 -76 -84c-5 -22 -7 -37 2 -58c8 -26 30 -45 56 -57c48 -13 85 8 94 57z" />
    <glyph glyph-name="a_eloopswash" horiz-adv-x="4319" 
d="M4319 307c0 -2 -4 -8 -6 -10c-7 -6 -11 -14 -16 -15c-7 -2 -16 6 -20 15c-3 19 -14 36 -8 62l-32 25c-41 29 -84 45 -131 62c-92 28 -288 21 -398 11l-264 -24c-115 -14 -231 -32 -344 -55l-155 -30c-128 -27 -258 -48 -386 -58c-119 -10 -235 0 -346 42
c-13 4 -55 21 -55 21c-29 -27 -76 -55 -108 -80c-57 -41 -120 -74 -180 -104c-457 -197 -931 -188 -1312 -187c-400 -8 -381 18 -394 73c-1 6 -1 11 -1 16c1 24 1 67 6 98c-2 1 -8 -8 -10 -11c-16 -20 -34 -39 -51 -57c-12 -13 -25 -24 -41 -32c-12 -7 -24 -9 -38 -10
c-17 2 -30 10 -36 26c-3 12 -4 26 0 39c3 9 6 19 10 27c15 32 35 58 66 76c23 13 33 16 49 16c22 0 19 -1 55 -20c3 3 2 9 9 12c5 0 16 -8 19 -14c-2 -14 -5 -29 -9 -47c-3 -108 -35 -154 52 -166c107 -15 496 -10 712 -7c182 6 555 49 795 140c123 41 232 105 331 182
c19 12 37 24 55 45c-64 50 -83 73 -95 121c-4 24 -2 42 4 64c8 21 22 34 43 42c40 20 102 5 128 -30c25 -34 29 -66 16 -103c-9 -25 -18 -39 -57 -89c10 -7 20 -13 33 -18c89 -33 180 -50 275 -47c71 0 142 5 215 15c121 18 239 40 359 64c81 16 165 31 247 46
c178 22 620 88 799 36c56 -22 104 -39 150 -72c19 -14 34 -30 50 -47c11 -10 14 -24 15 -43zM2153 385c30 26 52 55 64 93c2 23 3 38 -10 57c-10 25 -35 41 -62 50c-50 5 -83 -21 -85 -70c-3 -57 30 -90 93 -130zM154 185c1 3 6 9 8 13c-9 17 -24 20 -40 22
c-38 1 -62 -16 -83 -48c-33 -50 -40 -86 -7 -91c30 -1 52 19 71 40c20 21 33 42 51 64z" />
    <glyph glyph-name="a_eloopswash2" horiz-adv-x="4319" 
d="M4319 307c0 -2 -4 -8 -6 -10c-7 -6 -11 -14 -16 -15c-7 -2 -16 6 -20 15c-3 19 -14 36 -8 62l-32 25c-41 29 -84 45 -131 62c-92 28 -288 21 -398 11l-264 -24c-115 -14 -231 -32 -344 -55l-155 -30c-128 -27 -258 -48 -386 -58c-119 -10 -235 0 -346 42
c-13 4 -55 21 -55 21c-29 -27 -76 -55 -108 -80c-57 -41 -120 -74 -180 -104c-457 -197 -931 -188 -1312 -187c-400 -8 -381 18 -394 73c-1 6 -1 11 -1 16c1 24 1 67 6 98c-2 1 -8 -8 -10 -11c-16 -20 -34 -39 -51 -57c-12 -13 -25 -24 -41 -32c-12 -7 -24 -9 -38 -10
c-17 2 -30 10 -36 26c-3 12 -4 26 0 39c3 9 6 19 10 27c15 32 35 58 66 76c23 13 33 16 49 16c22 0 19 -1 55 -20c3 3 2 9 9 12c5 0 16 -8 19 -14c-2 -14 -5 -29 -9 -47c-3 -108 -35 -154 52 -166c107 -15 496 -10 712 -7c182 6 555 49 795 140c123 41 232 105 331 182
c19 12 37 24 55 45c-64 50 -83 73 -95 121c-4 24 -2 42 4 64c8 21 22 34 43 42c40 20 102 5 128 -30c25 -34 29 -66 16 -103c-9 -25 -18 -39 -57 -89c10 -7 20 -13 33 -18c89 -33 180 -50 275 -47c71 0 142 5 215 15c121 18 239 40 359 64c81 16 165 31 247 46
c178 22 620 88 799 36c56 -22 104 -39 150 -72c19 -14 34 -30 50 -47c11 -10 14 -24 15 -43zM2153 385c30 26 52 55 64 93c2 23 3 38 -10 57c-10 25 -35 41 -62 50c-50 5 -83 -21 -85 -70c-3 -57 30 -90 93 -130zM154 185c1 3 6 9 8 13c-9 17 -24 20 -40 22
c-38 1 -62 -16 -83 -48c-33 -50 -40 -86 -7 -91c30 -1 52 19 71 40c20 21 33 42 51 64z" />
    </font>
</defs>
</svg>
